<svg xmlns="http://www.w3.org/2000/svg" viewBox="0 0 521.01 521"><defs><style>.cls-1{fill:#005082;}</style></defs><g id="Layer_2" data-name="Layer 2"><g id="Layer_1-2" data-name="Layer 1"><path class="cls-1" d="M213.06,427.73a60.12,60.12,0,0,0,48.28,23.63h.85a58.66,58.66,0,0,0,47-23.49,58,58,0,0,0,9.1-51.55L298,309.23c-9.38-31.06-11.86-54.3-13.91-79.24-7.29-87.92,5.61-151.08,43.11-211.19A12.28,12.28,0,0,0,315.44.08a12.41,12.41,0,0,0-4.71,1.51A12.25,12.25,0,0,0,307,4.8c-28,36.06-62.76,116.76-68.78,225.53a320.39,320.39,0,0,1-13.91,79l-20.24,67.07a57.56,57.56,0,0,0,9,51.34Zm2.33-48,20.25-67.07A330.4,330.4,0,0,0,250,230.91c5.89-106.09,39.41-184.27,66.33-219l.74-.1a.46.46,0,0,1,.17.32.5.5,0,0,1-.08.36c-38.94,62.42-52.37,127.73-44.86,218.35,2.05,24.65,4.69,49.62,14.37,81.73L307,379.66a46.29,46.29,0,0,1-7.27,41.13,46.85,46.85,0,0,1-37.5,18.74h-.85a48.26,48.26,0,0,1-38.76-18.86,45.85,45.85,0,0,1-7.19-41Zm21.47,30.53a28.07,28.07,0,0,1-4.46-25.44l6.74-22.33,11.35,3.38-6.74,22.33a16.41,16.41,0,0,0,2.62,15.05,18.46,18.46,0,0,0,15,6.92v11.78a30.33,30.33,0,0,1-24.48-11.69Zm93.92-213.18a29.06,29.06,0,0,0-21.44,9.36,28.88,28.88,0,0,0-7.53,22.05c2,24.07,4.35,46.4,13.26,75.72l20.24,67.05a75.72,75.72,0,0,1-11.87,67.17,76.52,76.52,0,0,1-61.24,30.66h-.88a78,78,0,0,1-62.54-30.83,74.77,74.77,0,0,1-11.7-66.91l20.24-67.07a298.59,298.59,0,0,0,13.15-74.91v-1.53A29.05,29.05,0,0,0,203,199.47a28.85,28.85,0,0,0-11.48-2.33H.18L0,521H521V197.05Zm-12.72,17.34a17.28,17.28,0,0,1,12.72-5.56H509.17v57.26a48.53,48.53,0,0,0-11.95,5.28,33.35,33.35,0,0,1-35.8,0,45.16,45.16,0,0,0-47.66,0,33.32,33.32,0,0,1-35.78,0,45.12,45.12,0,0,0-47.64,0,35.17,35.17,0,0,1-10.3,4.44,382.36,382.36,0,0,1-6.44-48.6,16.58,16.58,0,0,1,.86-6.88,16.78,16.78,0,0,1,3.6-5.94Zm-126.5-5.56A17.12,17.12,0,0,1,208.67,227v1.62A287.08,287.08,0,0,1,202.42,276a33.08,33.08,0,0,1-11.5-4.7,45.1,45.1,0,0,0-47.66,0,33.41,33.41,0,0,1-35.8,0,45.1,45.1,0,0,0-47.66,0,33.32,33.32,0,0,1-35.75,0A48.16,48.16,0,0,0,12,266V208.83ZM11.86,509.15,12,278.48a51.65,51.65,0,0,1,6.1,3.14,45.12,45.12,0,0,0,47.61,0,33.3,33.3,0,0,1,35.8,0,45.21,45.21,0,0,0,47.66,0,33.3,33.3,0,0,1,35.8,0,44.28,44.28,0,0,0,14.71,5.95c-1.1,4.24-2.3,8.61-3.68,13.22l-20.25,67.08a86.38,86.38,0,0,0,13.52,77.47,89.84,89.84,0,0,0,72,35.6h.88a88.36,88.36,0,0,0,70.73-35.4A87.46,87.46,0,0,0,346.64,368l-20.23-67.07c-1.41-4.66-2.62-9.12-3.72-13.47a45.5,45.5,0,0,0,13.56-5.7,33.3,33.3,0,0,1,35.8,0,45.23,45.23,0,0,0,47.64,0,33.32,33.32,0,0,1,35.81,0,45.19,45.19,0,0,0,47.65,0,52.78,52.78,0,0,1,6-3.12V509.26Zm94.91-97.67a27.36,27.36,0,0,0-25.31,16.81A27.16,27.16,0,0,0,87.39,458a27.45,27.45,0,0,0,42.12-4.12,27.1,27.1,0,0,0-3.4-34.38,27.51,27.51,0,0,0-19.34-8Zm0,42.68a15.51,15.51,0,0,1-14.37-9.53,15.41,15.41,0,0,1,3.36-16.86,15.59,15.59,0,0,1,23.92,2.35,15.46,15.46,0,0,1-12.91,24Zm335-73.77a28.29,28.29,0,0,0-26.16,17.39,28.18,28.18,0,0,0,20.64,38.41,28.34,28.34,0,0,0,29.06-12,28,28,0,0,0-3.55-35.54,28.44,28.44,0,0,0-20-8.28Zm0,44.72a16.47,16.47,0,1,1,13.75-25.64,16.4,16.4,0,0,1-2,20.81,16.62,16.62,0,0,1-11.7,4.83Zm-21.47-85a21.15,21.15,0,0,0-13.11-19.53,21.3,21.3,0,0,0-23.14,4.59,21.08,21.08,0,0,0,3.22,32.51A21.31,21.31,0,0,0,414.09,355,21.09,21.09,0,0,0,420.31,340.1Zm-21.23,9.35a9.4,9.4,0,0,1-8.69-5.78,9.34,9.34,0,0,1,2-10.19,9.44,9.44,0,0,1,14.46,1.42,9.36,9.36,0,0,1-7.81,14.55ZM137.69,322a18.2,18.2,0,0,0-16.76,11.2,18,18,0,0,0,4,19.69,18.21,18.21,0,0,0,27.94-2.76,18,18,0,0,0-2.29-22.84A18.28,18.28,0,0,0,137.69,322Zm0,24.39a6.3,6.3,0,0,1-6.22-7.53,6.29,6.29,0,0,1,1.74-3.23,6.38,6.38,0,0,1,3.24-1.73,6.45,6.45,0,0,1,3.66.36,6.3,6.3,0,0,1-2.42,12.13ZM64.17,362.25a21.23,21.23,0,0,0-19.62,13A21.12,21.12,0,0,0,60,404.1a21.1,21.1,0,1,0,4.14-41.76Zm0,30.48a9.56,9.56,0,0,1-5.24-1.57,9.37,9.37,0,0,1,3.39-17,9.45,9.45,0,0,1,9.67,4,9.36,9.36,0,0,1,1.58,5.21,9.26,9.26,0,0,1-.69,3.6,9.45,9.45,0,0,1-2,3.07,9.74,9.74,0,0,1-3.06,2.05,9.58,9.58,0,0,1-3.62.72Z"/></g></g></svg>