<svg width="19" height="19" viewBox="0 0 19 19" fill="none" xmlns="http://www.w3.org/2000/svg">
<path d="M7.68216 15.4226C7.88569 15.6896 8.14903 15.9056 8.45122 16.0535C8.75342 16.2014 9.08614 16.2771 9.42291 16.2746H9.45355C9.7829 16.2747 10.1077 16.1982 10.402 16.0511C10.6963 15.904 10.952 15.6905 11.1485 15.4276C11.3451 15.1646 11.4771 14.8596 11.534 14.5368C11.591 14.214 11.5712 13.8825 11.4763 13.5687L10.7463 11.1498C10.4082 10.0298 10.3188 9.19175 10.2448 8.29274C9.98189 5.12272 10.4471 2.84536 11.7992 0.677839C11.856 0.586942 11.8779 0.478716 11.8609 0.373045C11.8439 0.267374 11.7891 0.171356 11.7067 0.102627C11.661 0.064247 11.6078 0.0356002 11.5505 0.0184561C11.4932 0.00131207 11.433 -0.00396579 11.3736 0.00294807C11.314 0.0095224 11.2563 0.0279736 11.204 0.0572069C11.1517 0.0864402 11.1059 0.125856 11.0692 0.173099C10.061 1.47336 8.8065 4.38307 8.58955 8.30481C8.54216 9.27125 8.37367 10.228 8.088 11.1529L7.358 13.5712C7.26251 13.8835 7.24211 14.2138 7.29841 14.5353C7.35472 14.8569 7.48616 15.1608 7.68216 15.4226ZM7.76639 13.6906L8.49639 11.2723C8.79256 10.3156 8.96685 9.32567 9.01517 8.32576C9.22766 4.50053 10.4362 1.6816 11.4068 0.43023L11.4336 0.426421C11.437 0.429474 11.4392 0.43366 11.4398 0.438208C11.4404 0.442757 11.4393 0.447364 11.4368 0.451182C10.0329 2.70188 9.54862 5.05669 9.81918 8.32385C9.8932 9.2127 9.98828 10.113 10.3373 11.271L11.0679 13.6893C11.1435 13.9397 11.1591 14.2042 11.1136 14.4617C11.068 14.7192 10.9627 14.9625 10.8058 15.1722C10.649 15.3819 10.445 15.5523 10.2102 15.6696C9.97541 15.7869 9.71629 15.848 9.45355 15.848H9.42291C9.15286 15.8507 8.88591 15.7906 8.6433 15.6725C8.40069 15.5545 8.18914 15.3817 8.02546 15.168C7.86885 14.9592 7.76379 14.7167 7.71879 14.4601C7.67378 14.2034 7.69009 13.9398 7.76639 13.6906ZM8.54041 14.7915C8.44203 14.6624 8.3761 14.5118 8.34812 14.3522C8.32015 14.1926 8.33095 14.0287 8.37961 13.8741L8.62273 13.069L9.03175 13.1909L8.78864 13.996C8.75917 14.0873 8.75237 14.1844 8.76881 14.2789C8.78526 14.3735 8.82446 14.4626 8.88307 14.5388C8.94752 14.6191 9.02982 14.6835 9.12349 14.7268C9.21717 14.7701 9.31966 14.7911 9.42291 14.7883V15.2131C9.25298 15.216 9.08473 15.1794 8.93152 15.1062C8.77831 15.033 8.64438 14.9253 8.54041 14.7915ZM11.9268 7.10486C11.7815 7.10466 11.6377 7.13456 11.5047 7.19266C11.3716 7.25076 11.2521 7.33578 11.1539 7.44232C11.0556 7.54885 10.9807 7.67457 10.934 7.81147C10.8872 7.94838 10.8696 8.09346 10.8823 8.2375C10.9544 9.1054 11.0392 9.91045 11.3602 10.9675L12.0902 13.3852C12.2134 13.7942 12.2388 14.2262 12.1644 14.6467C12.0901 15.0672 11.918 15.4646 11.662 15.8072C11.406 16.1498 11.073 16.4282 10.6897 16.6201C10.3064 16.8121 9.8833 16.9122 9.45418 16.9127H9.42228C8.98538 16.9147 8.55403 16.8153 8.16254 16.6223C7.77106 16.4293 7.43024 16.1481 7.16721 15.801C6.91126 15.4601 6.73968 15.064 6.6664 14.6449C6.59311 14.2257 6.62018 13.7952 6.74542 13.3884L7.47542 10.9701C7.74771 10.0934 7.90702 9.18586 7.94952 8.26925V8.21401C7.9574 8.07148 7.93613 7.92883 7.88699 7.79471C7.83785 7.6606 7.76187 7.53779 7.66365 7.43373C7.56616 7.33053 7.4484 7.24837 7.31767 7.19234C7.18693 7.13631 7.04601 7.10762 6.90367 7.10803H0.0063795L0 18.7856H18.7858V7.10486H11.9268ZM11.468 7.73023C11.5264 7.66705 11.5973 7.61661 11.6763 7.58208C11.7553 7.54755 11.8406 7.52968 11.9268 7.5296H18.359V9.59427C18.2073 9.63783 18.0624 9.70192 17.9282 9.78474C17.7355 9.90725 17.5115 9.97234 17.2828 9.97234C17.0541 9.97234 16.8301 9.90725 16.6373 9.78474C16.3797 9.62441 16.082 9.53938 15.7781 9.53938C15.4743 9.53938 15.1765 9.62441 14.9189 9.78474C14.7263 9.90727 14.5024 9.97238 14.2738 9.97238C14.0452 9.97238 13.8213 9.90727 13.6287 9.78474C13.3712 9.62439 13.0735 9.53936 12.7698 9.53936C12.466 9.53936 12.1684 9.62439 11.9109 9.78474C11.7966 9.85766 11.6712 9.91169 11.5395 9.94473C11.4247 9.36614 11.3471 8.78085 11.3072 8.19243C11.3001 8.10848 11.3107 8.02398 11.3384 7.94436C11.3661 7.86475 11.4103 7.7918 11.468 7.73023ZM6.90686 7.5296C6.99045 7.52928 7.07321 7.54602 7.15004 7.57878C7.22687 7.61154 7.29613 7.65962 7.35354 7.72007C7.41242 7.78152 7.45794 7.8544 7.48726 7.93414C7.51657 8.01388 7.52905 8.09878 7.52391 8.18354V8.24195C7.4966 8.81731 7.42125 9.38941 7.29866 9.95235C7.15087 9.92247 7.01012 9.86495 6.88389 9.78284C6.62628 9.6225 6.32854 9.53748 6.02467 9.53748C5.72081 9.53748 5.42308 9.6225 5.16547 9.78284C4.97271 9.90534 4.74875 9.97044 4.52002 9.97044C4.29129 9.97044 4.06734 9.90534 3.87458 9.78284C3.61697 9.6225 3.31923 9.53748 3.01537 9.53748C2.71151 9.53748 2.41377 9.6225 2.15616 9.78284C1.96374 9.90533 1.7401 9.97042 1.51167 9.97042C1.28324 9.97042 1.0596 9.90533 0.867184 9.78284C0.731984 9.6999 0.585981 9.63581 0.433269 9.59237V7.5296H6.90686ZM0.427528 18.3583L0.432638 10.0412C0.508483 10.074 0.582028 10.1117 0.652781 10.1542C0.91018 10.3142 1.20755 10.399 1.51103 10.399C1.81451 10.399 2.11189 10.3142 2.36929 10.1542C2.56191 10.0314 2.78592 9.96605 3.01473 9.96605C3.24355 9.96605 3.46756 10.0314 3.66018 10.1542C3.91792 10.3142 4.2156 10.399 4.51938 10.399C4.82317 10.399 5.12085 10.3142 5.37859 10.1542C5.57121 10.0314 5.79523 9.96605 6.02404 9.96605C6.25286 9.96605 6.47687 10.0314 6.66949 10.1542C6.83179 10.257 7.01144 10.3297 7.19975 10.3688C7.16019 10.5218 7.1168 10.6793 7.06703 10.8456L6.33703 13.264C6.19127 13.7349 6.15946 14.2334 6.24419 14.7189C6.32891 15.2043 6.52777 15.663 6.82454 16.0575C7.12716 16.458 7.51961 16.7826 7.97061 17.0054C8.42161 17.2283 8.91871 17.3433 9.42228 17.3412H9.45418C9.94984 17.3408 10.4385 17.2252 10.8813 17.0036C11.3241 16.7819 11.7087 16.4604 12.0044 16.0647C12.3001 15.6689 12.4988 15.2099 12.5846 14.7242C12.6704 14.2384 12.641 13.7395 12.4986 13.2671L11.7692 10.8488C11.7182 10.6806 11.6748 10.5199 11.6352 10.3631C11.8083 10.3215 11.9734 10.252 12.124 10.1574C12.3166 10.0345 12.5406 9.96922 12.7695 9.96922C12.9983 9.96922 13.2223 10.0345 13.4149 10.1574C13.6726 10.3173 13.9701 10.4021 14.2738 10.4021C14.5775 10.4021 14.875 10.3173 15.1327 10.1574C15.3253 10.0345 15.5493 9.96922 15.7781 9.96922C16.0069 9.96922 16.231 10.0345 16.4236 10.1574C16.6813 10.3174 16.979 10.4022 17.2828 10.4022C17.5866 10.4022 17.8843 10.3174 18.142 10.1574C18.2117 10.1152 18.2842 10.0777 18.359 10.045V18.3621L0.427528 18.3583ZM3.84969 14.8366C3.65443 14.8365 3.46351 14.894 3.30109 15.0018C3.13867 15.1096 3.01204 15.263 2.93723 15.4425C2.86242 15.6219 2.84278 15.8194 2.88079 16.01C2.91881 16.2006 3.01278 16.3756 3.15081 16.513C3.28884 16.6505 3.46473 16.7441 3.65623 16.782C3.84774 16.82 4.04626 16.8006 4.22668 16.7262C4.40709 16.6519 4.5613 16.526 4.6698 16.3645C4.7783 16.203 4.8362 16.013 4.8362 15.8188C4.83586 15.5585 4.73184 15.309 4.54693 15.1249C4.36201 14.9407 4.11129 14.8371 3.84969 14.8366ZM3.84969 16.3756C3.73883 16.3757 3.63043 16.3431 3.53819 16.2819C3.44596 16.2207 3.37405 16.1336 3.33157 16.0317C3.28908 15.9299 3.27794 15.8177 3.29954 15.7095C3.32113 15.6013 3.3745 15.502 3.45289 15.424C3.53129 15.346 3.63117 15.2929 3.73991 15.2714C3.84865 15.2499 3.96135 15.261 4.06375 15.3032C4.16615 15.3455 4.25364 15.4171 4.31515 15.5088C4.37667 15.6006 4.40944 15.7085 4.40931 15.8188C4.40914 15.9664 4.35013 16.1079 4.24521 16.2123C4.1403 16.3167 3.99806 16.3754 3.84969 16.3756ZM15.929 13.7154C15.7271 13.7154 15.5297 13.7749 15.3618 13.8866C15.1939 13.9982 15.0631 14.1568 14.9858 14.3425C14.9085 14.5281 14.8883 14.7323 14.9277 14.9294C14.9671 15.1264 15.0643 15.3074 15.2071 15.4495C15.3499 15.5916 15.5318 15.6883 15.7299 15.7275C15.9279 15.7667 16.1332 15.7466 16.3198 15.6697C16.5063 15.5928 16.6658 15.4626 16.7779 15.2956C16.8901 15.1285 16.95 14.9321 16.95 14.7312C16.949 14.4621 16.8411 14.2043 16.6499 14.014C16.4586 13.8237 16.1995 13.7164 15.929 13.7154ZM15.929 15.328C15.8109 15.3281 15.6954 15.2934 15.597 15.2281C15.4987 15.1629 15.4221 15.0702 15.3768 14.9616C15.3315 14.853 15.3196 14.7335 15.3425 14.6182C15.3655 14.5029 15.4223 14.3969 15.5058 14.3138C15.5894 14.2306 15.6958 14.1739 15.8117 14.1509C15.9275 14.128 16.0476 14.1397 16.1568 14.1846C16.266 14.2296 16.3593 14.3058 16.425 14.4035C16.4906 14.5012 16.5257 14.6162 16.5257 14.7337C16.5257 14.8912 16.4628 15.0423 16.351 15.1537C16.2391 15.2651 16.0873 15.3278 15.929 15.328ZM15.155 12.2627C15.155 12.112 15.1101 11.9647 15.026 11.8395C14.9418 11.7142 14.8222 11.6165 14.6823 11.5588C14.5424 11.5012 14.3884 11.4861 14.2399 11.5155C14.0914 11.5449 13.9549 11.6175 13.8478 11.724C13.7408 11.8306 13.6678 11.9663 13.6383 12.1141C13.6087 12.2619 13.6239 12.4151 13.6819 12.5543C13.7398 12.6935 13.838 12.8125 13.9639 12.8962C14.0898 12.9799 14.2378 13.0246 14.3893 13.0246C14.5924 13.0246 14.7871 12.9443 14.9307 12.8015C15.0743 12.6586 15.155 12.4648 15.155 12.2627ZM14.3893 12.5999C14.3223 12.5999 14.2568 12.5801 14.201 12.543C14.1453 12.506 14.1019 12.4533 14.0762 12.3917C14.0506 12.3301 14.0439 12.2624 14.057 12.197C14.07 12.1316 14.1023 12.0715 14.1497 12.0243C14.1971 11.9772 14.2575 11.9451 14.3232 11.9321C14.3889 11.9191 14.457 11.9257 14.519 11.9513C14.5809 11.9768 14.6338 12.02 14.671 12.0754C14.7083 12.1309 14.7281 12.196 14.7281 12.2627C14.7281 12.3521 14.6924 12.4379 14.6289 12.5011C14.5653 12.5643 14.4792 12.5999 14.3893 12.5999ZM4.96446 11.6107C4.83493 11.6111 4.70842 11.6496 4.6009 11.7215C4.49338 11.7934 4.40969 11.8953 4.36038 12.0145C4.31107 12.1337 4.29837 12.2647 4.32387 12.3911C4.34937 12.5175 4.41194 12.6335 4.50367 12.7245C4.59539 12.8155 4.71216 12.8774 4.83923 12.9024C4.9663 12.9274 5.09797 12.9144 5.21761 12.8649C5.33724 12.8155 5.43948 12.732 5.5114 12.6248C5.58333 12.5176 5.62171 12.3916 5.62171 12.2627C5.62138 12.0896 5.55196 11.9236 5.42872 11.8014C5.30548 11.6791 5.1385 11.6105 4.96446 11.6107ZM4.96446 12.49C4.91928 12.49 4.87512 12.4767 4.83755 12.4517C4.79998 12.4267 4.7707 12.3912 4.75341 12.3497C4.73612 12.3082 4.7316 12.2625 4.74042 12.2184C4.74923 12.1743 4.77099 12.1338 4.80293 12.102C4.83488 12.0702 4.87559 12.0486 4.9199 12.0398C4.96421 12.031 5.01014 12.0355 5.05188 12.0527C5.09362 12.0699 5.1293 12.0991 5.15441 12.1364C5.17951 12.1738 5.19291 12.2178 5.19291 12.2627C5.19291 12.323 5.16884 12.3808 5.126 12.4234C5.08316 12.4661 5.02505 12.49 4.96446 12.49ZM2.31377 13.0614C2.16233 13.0614 2.01428 13.1061 1.88836 13.1898C1.76243 13.2735 1.66429 13.3925 1.60633 13.5317C1.54838 13.671 1.53321 13.8241 1.56276 13.9719C1.59231 14.1197 1.66523 14.2555 1.77232 14.362C1.87941 14.4686 2.01585 14.5411 2.16439 14.5705C2.31293 14.5999 2.46688 14.5848 2.6068 14.5272C2.74672 14.4695 2.86632 14.3719 2.95045 14.2466C3.03459 14.1213 3.0795 13.974 3.0795 13.8233C3.07866 13.6218 2.99761 13.4288 2.8541 13.2866C2.71059 13.1444 2.51631 13.0646 2.31377 13.0646V13.0614ZM2.31377 14.1604C2.24658 14.1605 2.18085 14.1408 2.12493 14.1038C2.069 14.0667 2.0254 14.014 1.99963 13.9522C1.97386 13.8905 1.96708 13.8225 1.98015 13.7569C1.99323 13.6913 2.02558 13.6311 2.07309 13.5838C2.1206 13.5366 2.18115 13.5044 2.24707 13.4914C2.31298 13.4783 2.38129 13.4851 2.44334 13.5107C2.5054 13.5364 2.55841 13.5798 2.59566 13.6354C2.63292 13.691 2.65273 13.7564 2.6526 13.8233C2.65303 13.8678 2.64457 13.912 2.62773 13.9533C2.61089 13.9946 2.586 14.0321 2.5545 14.0637C2.52299 14.0954 2.48549 14.1205 2.44418 14.1376C2.40286 14.1548 2.35854 14.1636 2.31377 14.1636V14.1604Z" fill="white"/>
</svg>
