<svg xmlns="http://www.w3.org/2000/svg" viewBox="0 0 214.05 163.58"><defs><style>.cls-1{fill:#005082;}</style></defs><g id="Layer_2" data-name="Layer 2"><g id="Layer_1-2" data-name="Layer 1"><path class="cls-1" d="M141,16.36h-2.3l-.26.29h-.25v.29a126.24,126.24,0,0,0-9.54,22.59L127.89,42l-1.51-2.11a30.59,30.59,0,0,1-2.26-3.6c-8.37-15.46-2.22-33.45-2.18-33.62a2,2,0,0,0-.11-1.57,2.11,2.11,0,0,0-1.19-1A1.89,1.89,0,0,0,120,0a2.13,2.13,0,0,0-2,1.41,51.05,51.05,0,0,0-2.18,10.74v1.16H98.16V12.18A49.21,49.21,0,0,0,96,1.44a2.23,2.23,0,0,0-.76-1A2.19,2.19,0,0,0,94,0a1.89,1.89,0,0,0-.67,0,2.11,2.11,0,0,0-1.19,1,2.09,2.09,0,0,0-.11,1.57S98.12,21,89.88,36.26a32,32,0,0,1-2.26,3.6L86.11,42l-.8-2.44A130.76,130.76,0,0,0,75.9,17l-.26-.2-.29-.33H73.09C-24,72.85,3.52,150.64,3.81,151.43a1.87,1.87,0,0,0,.8,1,69.85,69.85,0,0,0,38.55,11.15,87.22,87.22,0,0,0,35-7.46,2.07,2.07,0,0,0,1-1A153.11,153.11,0,0,0,92.51,71.77v-1l.88-.37a50.33,50.33,0,0,0,13.19-8.58l.88-.83.88.83a50.44,50.44,0,0,0,13.18,8.58l.88.37v1a153.12,153.12,0,0,0,13.44,83.35,1.93,1.93,0,0,0,1,1,86.7,86.7,0,0,0,34.91,7.46,69.84,69.84,0,0,0,37.72-11.44,1.85,1.85,0,0,0,.79-1C210.56,150.52,237.93,72.73,141,16.36Zm-9.67,28.47a145.35,145.35,0,0,1,8.37-22l.8-1.66,1.29,1.33a32.38,32.38,0,0,1,7.71,31.37l-.3,1.41-1.38-.46a47.09,47.09,0,0,1-16.2-8.66l-.63-.58ZM71.58,22.54l1.3-1.33.8,1.66a147.94,147.94,0,0,1,8.37,22l.25.79-.63.58a47,47,0,0,1-16.2,8.66l-1.38.46-.29-1.41a32.36,32.36,0,0,1,7.78-31.37Zm-51.31,133H20a63.63,63.63,0,0,1-12.56-6L7,149.36v-.46c-2.22-6.84-19.76-68.34,52.45-119l3.56-2.48-1.6,4.14a41.11,41.11,0,0,0-.46,27,64.85,64.85,0,0,0,2.93,8,72.94,72.94,0,0,1,5.83,32.26,73.23,73.23,0,0,1-8.88,31.57A51.11,51.11,0,0,1,43.93,147.9a51.72,51.72,0,0,1-23.16,7.72Zm55-3.44v.46h-.46a86,86,0,0,1-32,6.38,46.66,46.66,0,0,1-6.82-.33l-5.86-.54,5.53-1.95a53.6,53.6,0,0,0,28.88-23.91,77.62,77.62,0,0,0,7.16-56.11l-.42-1.58h1.67a51,51,0,0,0,13.56-2L88,72.1v1.54A148.86,148.86,0,0,1,75.23,152.13Zm33.23-95.32-.29-.25h-2.43l-.29.25A45.49,45.49,0,0,1,90.18,67.26,46.09,46.09,0,0,1,72,70.82H70L69.66,70c-.55-1.62-1.17-3.23-1.88-4.81a46,46,0,0,1-1.72-4.39l-.46-1.24,1.3-.42a44.07,44.07,0,0,0,15.36-7.54A43.69,43.69,0,0,0,93.52,38.74a42.47,42.47,0,0,0,4.81-19.56V17.94h17.25v1.24a42.47,42.47,0,0,0,4.81,19.56A44,44,0,0,0,147,59.09l1.3.42-.46,1.24c-.5,1.45-1,2.9-1.72,4.39s-1.33,3.19-1.88,4.81l-.33.87h-2.26a45.72,45.72,0,0,1-18.07-3.6A45.35,45.35,0,0,1,108.46,56.81ZM177.74,159c-2.22,0-4.48.29-6.74.29a86.49,86.49,0,0,1-32.06-6.34h-.47l-.2-.45a148.85,148.85,0,0,1-12.56-78.33V72.6l1.51.42a51.33,51.33,0,0,0,13.56,2h1.67L142,76.62a77.64,77.64,0,0,0,7.16,56.12,53.79,53.79,0,0,0,28.88,23.54l5.53,2Zm29-10.07v.46l-.38.25a63.1,63.1,0,0,1-12.56,6h-.54a51.46,51.46,0,0,1-40.1-25.15,73.05,73.05,0,0,1-3.06-63.83,68.3,68.3,0,0,0,2.93-8,41.38,41.38,0,0,0-.46-27L151,27.47,154.55,30c71.95,50.48,54.42,112,52.2,118.82Z"/></g></g></svg>