<svg xmlns="http://www.w3.org/2000/svg" xmlns:xlink="http://www.w3.org/1999/xlink" viewBox="0 0 4701.22 2086.17"><defs><style>.cls-1{fill:#dbdce0;}.cls-2{fill:url(#linear-gradient);}.cls-3{fill:#0d84ce;}.cls-4,.cls-5{fill:#fff;}.cls-5{opacity:0.5;isolation:isolate;}.cls-6,.cls-7{fill:none;}.cls-6{stroke:#e0e0e0;stroke-linecap:square;}</style><linearGradient id="linear-gradient" x1="2961.92" y1="2139.44" x2="2961.92" y2="53.28" gradientTransform="matrix(1, 0, 0, -1, 564, 2139.44)" gradientUnits="userSpaceOnUse"><stop offset="0" stop-color="#005082"/><stop offset="1" stop-color="#0a3a57"/></linearGradient></defs><g id="Layer_2" data-name="Layer 2"><g id="Layer_1-2" data-name="Layer 1"><rect class="cls-1" width="2350.61" height="2086.17"/><rect class="cls-2" x="2350.61" width="2350.61" height="2086.17"/><path class="cls-3" d="M2771.76,450.53v731.31H2559.22V882H2142v299.84H1929.46V450.53H2142V738.88h417.22V450.53Z"/><path class="cls-4" d="M2728.18,845.24H2665L2652,875h-17.49l53.82-118.84h16.81l54,118.84h-17.82Zm-5.94-13.58-25.63-58.23L2671,831.66Zm214.69,44.65q-23.78,0-37-13.58t-13.24-39.05V756.11h17V823q0,38.21,33.45,38.2,16.29,0,25-9.34,8.67-9.51,8.66-28.86V756.11h16.47v67.57q0,25.64-13.24,39.22Q2960.7,876.31,2936.93,876.31Zm219.9-120.2V875h-13.92l-71.3-88.62V875h-17V756.11h13.92l71.3,88.62V756.11Zm199.58,120.2a66.64,66.64,0,0,1-32.25-7.81,59,59,0,0,1-22.4-21.73,60.8,60.8,0,0,1-8.16-31.24,59.93,59.93,0,0,1,8.16-31.07,57.06,57.06,0,0,1,22.59-21.73,65.57,65.57,0,0,1,32.26-8,66.27,66.27,0,0,1,25.46,4.75,51.57,51.57,0,0,1,19.69,13.75l-11,10.69q-13.41-14.09-33.46-14.09a48.54,48.54,0,0,0-23.93,5.95,43.65,43.65,0,0,0-16.81,16.46,46,46,0,0,0-5.95,23.26,47,47,0,0,0,5.95,23.43,44,44,0,0,0,16.81,16.3,48.53,48.53,0,0,0,23.93,5.94,44.38,44.38,0,0,0,33.46-14.26l11,10.69a52.62,52.62,0,0,1-19.88,13.92A66.11,66.11,0,0,1,3356.41,876.31Zm102.22-120.2h17V860.18h64.31V875h-81.29Zm133.43,0h17V875h-17Zm138.33,120.2a66.65,66.65,0,0,1-32.26-7.81,59,59,0,0,1-22.39-21.73,60.81,60.81,0,0,1-8.17-31.24,59.93,59.93,0,0,1,8.17-31.07,57.06,57.06,0,0,1,22.59-21.73,65.56,65.56,0,0,1,32.25-8,66.32,66.32,0,0,1,25.47,4.75,51.54,51.54,0,0,1,19.68,13.75l-11,10.69q-13.42-14.09-33.46-14.09a48.51,48.51,0,0,0-23.93,5.95,43.68,43.68,0,0,0-16.82,16.46,46,46,0,0,0-5.94,23.26,47,47,0,0,0,5.94,23.43,44.05,44.05,0,0,0,16.82,16.3,48.51,48.51,0,0,0,23.93,5.94,44.35,44.35,0,0,0,33.46-14.26l11,10.69a52.54,52.54,0,0,1-19.88,13.92A66.06,66.06,0,0,1,3730.39,876.31Zm140.9-54.16-21.71,22.07V875h-17V756.11h17v66.38l64.51-66.38h19.33l-50.73,53.48,54,65.36H3916.8Z"/><path class="cls-4" d="M1087.84,875l-.17-86.58-43,72.15h-7.81l-43-71.64V875h-16.3V756.11h13.92l49.57,83.53L1090,756.11H1104l.17,118.84Zm170.85-14.77V875h-86.24V756.11h83.86v14.77h-66.89v36.5H1249v14.43h-59.59v38.37Zm60.13-104.07h50.08q18.86,0,33.45,7.47a54.2,54.2,0,0,1,22.58,21q8.14,13.43,8.15,30.9t-8.15,31.07a54.52,54.52,0,0,1-22.58,20.88q-14.6,7.47-33.45,7.47h-50.08Zm49.07,104.07q14.43,0,25.29-5.6a40.56,40.56,0,0,0,17-15.62,45.65,45.65,0,0,0,5.94-23.43,44.74,44.74,0,0,0-5.94-23.26,40.16,40.16,0,0,0-17-15.78q-10.86-5.61-25.29-5.61H1335.8v89.3Zm123.84-104.07h17V875h-17Zm138.34,120.2a66.62,66.62,0,0,1-32.26-7.81,59,59,0,0,1-22.41-21.73,60.7,60.7,0,0,1-8.15-31.24,59.83,59.83,0,0,1,8.15-31.07A57.17,57.17,0,0,1,1598,762.73a69.85,69.85,0,0,1,57.72-3.22,51.19,51.19,0,0,1,19.69,13.75l-11,10.69q-13.41-14.09-33.44-14.09a48.47,48.47,0,0,0-23.94,5.95,43.59,43.59,0,0,0-16.81,16.46,45.93,45.93,0,0,0-5.94,23.26,46.85,46.85,0,0,0,5.94,23.43,44,44,0,0,0,16.81,16.3,48.46,48.46,0,0,0,23.94,5.94,44.36,44.36,0,0,0,33.44-14.26l11,10.69a52.55,52.55,0,0,1-19.86,13.92A66.24,66.24,0,0,1,1630.07,876.31Zm102.19-120.2h17V875h-17Zm187.4,0V875h-13.92l-71.3-88.62V875h-17V756.11h13.92l71.3,88.62V756.11Zm143.93,89.13h-63.15L1987.37,875h-17.49l53.82-118.84h16.81l54,118.84h-17.82Zm-5.94-13.58L2032,773.43l-25.64,58.23Z"/><path class="cls-4" d="M2956.13,414.62l-8.36-11.75a27.65,27.65,0,0,1-2.92.16H2935v11.59h-3.87V378.06h13.69q7,0,11,3.34a11.38,11.38,0,0,1,4,9.19,11.37,11.37,0,0,1-8.35,11.5l8.93,12.53Zm-11.39-14.89q5.43,0,8.31-2.4a9.41,9.41,0,0,0,0-13.53q-2.88-2.4-8.31-2.4H2935v18.33Zm32.74-12.79q5.39,0,8.25,2.71t2.88,7.94v17h-3.56v-4.28a8.43,8.43,0,0,1-3.7,3.34,12.74,12.74,0,0,1-5.75,1.2,11.31,11.31,0,0,1-7.31-2.19,7.57,7.57,0,0,1-.21-11.44c1.71-1.43,4.4-2.14,8.09-2.14h8.73v-1.67a6.92,6.92,0,0,0-2-5.38,8.08,8.08,0,0,0-5.8-1.88,14.36,14.36,0,0,0-5,.88,12.55,12.55,0,0,0-4.13,2.35l-1.67-2.76a14.53,14.53,0,0,1,5-2.72A19.07,19.07,0,0,1,2977.48,386.94Zm-1.31,25a9.89,9.89,0,0,0,5.38-1.41,8.75,8.75,0,0,0,3.35-4.18v-4.49h-8.62c-4.7,0-7.05,1.63-7.05,4.91a4.58,4.58,0,0,0,1.82,3.81A8.51,8.51,0,0,0,2976.17,412Zm36.67-25a14,14,0,0,1,7,1.77,12.4,12.4,0,0,1,4.91,4.91,15.9,15.9,0,0,1,0,14.58,12.79,12.79,0,0,1-4.91,5,14.1,14.1,0,0,1-7,1.72,13.3,13.3,0,0,1-6.06-1.36,11.63,11.63,0,0,1-4.39-4.07v15.31h-3.71V387.15h3.55v5.43a11.57,11.57,0,0,1,4.39-4.18A13.06,13.06,0,0,1,3012.84,386.94Zm-.26,24.65a10.58,10.58,0,0,0,5.22-1.3,9.49,9.49,0,0,0,3.66-3.82,11.39,11.39,0,0,0,1.35-5.59,11.08,11.08,0,0,0-1.35-5.53,9.49,9.49,0,0,0-3.66-3.82,10.31,10.31,0,0,0-5.22-1.35,10.43,10.43,0,0,0-5.28,1.35,10,10,0,0,0-3.66,3.82,11.38,11.38,0,0,0-1.3,5.53,11.7,11.7,0,0,0,1.3,5.59,10,10,0,0,0,3.66,3.82A10.7,10.7,0,0,0,3012.58,411.59Zm21.5-24.44h3.71v27.47h-3.71Zm1.88-6a2.6,2.6,0,0,1-1.93-.79,2.55,2.55,0,0,1-.78-1.88,2.5,2.5,0,0,1,.78-1.82,2.76,2.76,0,0,1,3.87,0,2.33,2.33,0,0,1,.78,1.77,2.68,2.68,0,0,1-2.72,2.72Zm37.23-5.28v38.76h-3.56v-5.43a11.28,11.28,0,0,1-4.44,4.23,12.71,12.71,0,0,1-6.16,1.46,14,14,0,0,1-7-1.77,12.68,12.68,0,0,1-4.91-5,15.7,15.7,0,0,1,0-14.52,12.34,12.34,0,0,1,4.91-4.91,14,14,0,0,1,7-1.77,12.66,12.66,0,0,1,6,1.41,11.12,11.12,0,0,1,4.44,4V375.86Zm-13.85,35.73a10.26,10.26,0,0,0,5.17-1.3,9.42,9.42,0,0,0,3.66-3.82,12.17,12.17,0,0,0,0-11.18,9.15,9.15,0,0,0-3.66-3.76,10,10,0,0,0-5.17-1.35,10.36,10.36,0,0,0-5.27,1.35,9.6,9.6,0,0,0-3.66,3.76,12.58,12.58,0,0,0,0,11.18,9.9,9.9,0,0,0,3.66,3.82A10.64,10.64,0,0,0,3059.34,411.59Zm48.1-9.56h-23a9.94,9.94,0,0,0,3.29,7,11,11,0,0,0,7.53,2.61,12.22,12.22,0,0,0,4.7-.89,10.53,10.53,0,0,0,3.71-2.71l2.08,2.4a11.57,11.57,0,0,1-4.59,3.34,15.22,15.22,0,0,1-6,1.15,15.61,15.61,0,0,1-7.52-1.77,13.22,13.22,0,0,1-5.07-5,14.21,14.21,0,0,1-1.83-7.21,14.86,14.86,0,0,1,1.73-7.2,13,13,0,0,1,4.8-5,13.63,13.63,0,0,1,6.9-1.77,13.31,13.31,0,0,1,6.84,1.77,12.49,12.49,0,0,1,4.75,5,14.66,14.66,0,0,1,1.73,7.2Zm-13.27-11.91a9.41,9.41,0,0,0-6.69,2.56,10,10,0,0,0-3,6.58h19.49a9.8,9.8,0,0,0-3.09-6.58A9.27,9.27,0,0,0,3094.17,390.12Zm40,21.42v3.08H3111.8v-2.45l17.29-21.89h-17v-3.13h21.73v2.45l-17.29,21.94Z"/><path class="cls-5" d="M2950.88,491v2h-20.5V463.27h19.87v2h-17.7v11.71h15.83v1.91h-15.83V491Zm27.83-20.37a8.89,8.89,0,0,1,6.58,2.42q2.41,2.42,2.42,7v13h-2.12V480.2a7.84,7.84,0,0,0-1.91-5.69,7,7,0,0,0-5.27-1.95,8.13,8.13,0,0,0-6.15,2.34,8.66,8.66,0,0,0-2.25,6.28V493h-2.12V470.82h2v4.8a8.42,8.42,0,0,1,3.39-3.65A10.63,10.63,0,0,1,2978.71,470.65Zm36.36,22.5a11.46,11.46,0,0,1-5.78-1.45,10.38,10.38,0,0,1-4-4,12.39,12.39,0,0,1,0-11.63,10.12,10.12,0,0,1,4-4,11.56,11.56,0,0,1,5.78-1.44,10.84,10.84,0,0,1,4.84,1.06,8.57,8.57,0,0,1,3.56,3l-1.57,1.14a7.35,7.35,0,0,0-3-2.46,8.78,8.78,0,0,0-3.86-.85,9.27,9.27,0,0,0-4.67,1.19,8.33,8.33,0,0,0-3.23,3.27,11,11,0,0,0,0,9.76,8.71,8.71,0,0,0,3.23,3.31,9.56,9.56,0,0,0,4.67,1.15,9,9,0,0,0,3.86-.81,7.64,7.64,0,0,0,3-2.51l1.57,1.15a8.88,8.88,0,0,1-3.56,3.06A11.25,11.25,0,0,1,3015.07,493.15ZM3059,470.82V493h-2v-4.76a8.39,8.39,0,0,1-3.27,3.65,9.84,9.84,0,0,1-5.09,1.28,9.31,9.31,0,0,1-6.8-2.42q-2.46-2.43-2.46-7V470.82h2.13V483.6a7.76,7.76,0,0,0,1.91,5.68,7.15,7.15,0,0,0,5.39,2,7.62,7.62,0,0,0,5.89-2.34,8.74,8.74,0,0,0,2.21-6.28v-11.8Zm37.51,11.59h-19.06a9.4,9.4,0,0,0,1.32,4.62,8.44,8.44,0,0,0,3.31,3.1,10.72,10.72,0,0,0,8.74.34,7.93,7.93,0,0,0,3.1-2.33l1.23,1.4a9.39,9.39,0,0,1-3.65,2.67,11.62,11.62,0,0,1-4.71.94,11.83,11.83,0,0,1-5.9-1.45,10.61,10.61,0,0,1-4.07-4,11.6,11.6,0,0,1-1.45-5.81,12.11,12.11,0,0,1,1.36-5.77,10.22,10.22,0,0,1,9.25-5.48,10.18,10.18,0,0,1,5.39,1.44,9.72,9.72,0,0,1,3.78,4,11.82,11.82,0,0,1,1.4,5.77ZM3086,472.52a8.35,8.35,0,0,0-4.2,1.06,7.83,7.83,0,0,0-3,2.93,9.44,9.44,0,0,0-1.27,4.24h17a8.86,8.86,0,0,0-1.27-4.24,8.26,8.26,0,0,0-7.22-4Zm37.75-1.87a8.89,8.89,0,0,1,6.58,2.42q2.41,2.42,2.42,7v13h-2.12V480.2a7.84,7.84,0,0,0-1.91-5.69,6.93,6.93,0,0,0-5.26-1.95,8.14,8.14,0,0,0-6.16,2.34,8.66,8.66,0,0,0-2.25,6.28V493h-2.12V470.82h2v4.8a8.42,8.42,0,0,1,3.39-3.65A10.63,10.63,0,0,1,3123.74,470.65Zm38.52,20.92a5.4,5.4,0,0,1-2,1.19,8,8,0,0,1-2.51.39,6,6,0,0,1-4.45-1.58,6.07,6.07,0,0,1-1.57-4.45V472.65h-4.08v-1.83h4.08V466h2.12v4.84h7v1.83h-7v14.26a4.84,4.84,0,0,0,1,3.31,4.13,4.13,0,0,0,3.1,1.1,4.91,4.91,0,0,0,3.43-1.23ZM3180,475.66a7.55,7.55,0,0,1,3.19-3.69,9.9,9.9,0,0,1,5.26-1.32v2.08l-.51,0a7.35,7.35,0,0,0-5.77,2.33,9.19,9.19,0,0,0-2.08,6.41V493H3178V470.82h2Zm31.56-5a8.82,8.82,0,0,1,6.33,2.12c1.46,1.39,2.2,3.44,2.2,6.16V493h-2v-4a7.45,7.45,0,0,1-3.09,3.05,10.43,10.43,0,0,1-4.88,1.07,9.13,9.13,0,0,1-5.86-1.74,6.05,6.05,0,0,1-.17-9.05c1.33-1.15,3.44-1.74,6.32-1.74h7.6v-1.78a6.21,6.21,0,0,0-1.7-4.71,6.74,6.74,0,0,0-4.88-1.61,12,12,0,0,0-4.24.76,10.73,10.73,0,0,0-3.4,2l-1.06-1.53a11.5,11.5,0,0,1,4-2.29A14.27,14.27,0,0,1,3211.57,470.65Zm-1.19,20.76a8.22,8.22,0,0,0,4.67-1.28,7.72,7.72,0,0,0,2.93-3.69v-4.16h-7.55a7.63,7.63,0,0,0-4.76,1.19,4,4,0,0,0-1.44,3.27,4.11,4.11,0,0,0,1.61,3.43A7.36,7.36,0,0,0,3210.38,491.41Zm57.75,1.74a11.46,11.46,0,0,1-5.78-1.45,10.34,10.34,0,0,1-4-4,12.46,12.46,0,0,1,0-11.63,10.08,10.08,0,0,1,4-4,11.56,11.56,0,0,1,5.78-1.44,10.77,10.77,0,0,1,4.83,1.06,8.63,8.63,0,0,1,3.56,3l-1.56,1.14a7.48,7.48,0,0,0-3-2.46,8.84,8.84,0,0,0-3.86-.85,9.31,9.31,0,0,0-4.68,1.19,8.24,8.24,0,0,0-3.22,3.27,10.93,10.93,0,0,0,0,9.76,8.61,8.61,0,0,0,3.22,3.31,9.6,9.6,0,0,0,4.68,1.15,9.11,9.11,0,0,0,3.86-.81,7.79,7.79,0,0,0,3-2.51l1.56,1.15a9,9,0,0,1-3.56,3.06A11.17,11.17,0,0,1,3268.13,493.15Zm43.95-22.33V493H3310v-4.76a8.27,8.27,0,0,1-3.27,3.65,9.79,9.79,0,0,1-5.09,1.28,9.29,9.29,0,0,1-6.79-2.42q-2.45-2.43-2.45-7V470.82h2.12V483.6a7.8,7.8,0,0,0,1.9,5.68,7.16,7.16,0,0,0,5.39,2,7.6,7.6,0,0,0,5.9-2.34,8.79,8.79,0,0,0,2.22-6.28v-11.8Zm26.24-.17a8.81,8.81,0,0,1,6.34,2.12c1.47,1.39,2.19,3.44,2.19,6.16V493h-2v-4a7.47,7.47,0,0,1-3.1,3.05,10.37,10.37,0,0,1-4.86,1.07,9.15,9.15,0,0,1-5.88-1.74,5.68,5.68,0,0,1-2.12-4.59,5.62,5.62,0,0,1,2-4.46c1.33-1.15,3.42-1.74,6.33-1.74h7.57v-1.78a6.17,6.17,0,0,0-1.69-4.71,6.67,6.67,0,0,0-4.87-1.61,11.88,11.88,0,0,0-4.24.76,10.41,10.41,0,0,0-3.4,2l-1.08-1.53a11.64,11.64,0,0,1,4-2.29A14.12,14.12,0,0,1,3338.32,470.65Zm-1.17,20.76a8.26,8.26,0,0,0,4.67-1.28,7.84,7.84,0,0,0,2.9-3.69v-4.16h-7.54a7.67,7.67,0,0,0-4.76,1.19,4,4,0,0,0-1.44,3.27,4.13,4.13,0,0,0,1.63,3.43A7.28,7.28,0,0,0,3337.15,491.41Zm28.24-29.93h2.12V493h-2.12Zm40.55,9.34v30.39h-2.12V487.84a9.87,9.87,0,0,1-3.73,3.9,10.1,10.1,0,0,1-5.32,1.41,11.15,11.15,0,0,1-5.58-1.41,10.41,10.41,0,0,1-4-4,12,12,0,0,1-1.4-5.86,11.71,11.71,0,0,1,1.4-5.82,10.51,10.51,0,0,1,4-4,11,11,0,0,1,5.58-1.44,10.36,10.36,0,0,1,5.39,1.4,9.51,9.51,0,0,1,3.72,4v-5.22Zm-11,20.42a8.66,8.66,0,0,0,4.54-1.19,8.49,8.49,0,0,0,3.2-3.31,10.52,10.52,0,0,0,0-9.68,8.42,8.42,0,0,0-3.2-3.31,8.66,8.66,0,0,0-4.54-1.19,8.62,8.62,0,0,0-7.77,4.5,10.84,10.84,0,0,0,0,9.68,9,9,0,0,0,3.2,3.31A8.87,8.87,0,0,0,3394.9,491.24Zm49.17-20.42V493h-2v-4.76a8.52,8.52,0,0,1-3.27,3.65,9.82,9.82,0,0,1-5.09,1.28,9.27,9.27,0,0,1-6.79-2.42c-1.64-1.62-2.45-3.94-2.45-7V470.82h2.12V483.6a7.79,7.79,0,0,0,1.89,5.68,7.18,7.18,0,0,0,5.39,2,7.68,7.68,0,0,0,5.91-2.34,8.77,8.77,0,0,0,2.19-6.28v-11.8Zm18.8,0H3465V493h-2.13Zm1.05-5.39a1.73,1.73,0,0,1-1.21-.47,1.71,1.71,0,0,1,0-2.46,1.65,1.65,0,0,1,1.21-.51,1.67,1.67,0,0,1,1.24.51,1.49,1.49,0,0,1,.52,1.19,1.61,1.61,0,0,1-.52,1.23A1.67,1.67,0,0,1,3463.92,465.43Zm38.52,17h-19a9.09,9.09,0,0,0,1.31,4.62,8.45,8.45,0,0,0,3.29,3.1,10.74,10.74,0,0,0,8.75.34,7.93,7.93,0,0,0,3.1-2.33l1.24,1.4a9.46,9.46,0,0,1-3.65,2.67,11.61,11.61,0,0,1-4.7.94,11.85,11.85,0,0,1-5.91-1.45,10.5,10.5,0,0,1-4.08-4,11.7,11.7,0,0,1-1.44-5.81,12.34,12.34,0,0,1,1.34-5.77,10.22,10.22,0,0,1,9.27-5.48,10.28,10.28,0,0,1,5.39,1.44,9.92,9.92,0,0,1,3.78,4,11.93,11.93,0,0,1,1.41,5.77Zm-10.51-9.89a8.31,8.31,0,0,0-4.21,1.06,7.74,7.74,0,0,0-3,2.93,9.09,9.09,0,0,0-1.28,4.24h17a9.2,9.2,0,0,0-1.27-4.24,8.23,8.23,0,0,0-7.22-4Zm29,3.14a7.47,7.47,0,0,1,3.2-3.69,9.81,9.81,0,0,1,5.25-1.32v2.08l-.52,0A7.42,7.42,0,0,0,3523,475a9.28,9.28,0,0,0-2.05,6.41V493h-2.13V470.82h2Zm-580.07,47.23a11.05,11.05,0,0,1,5.61,1.44,10.18,10.18,0,0,1,3.9,4,11.62,11.62,0,0,1,1.44,5.81,11.86,11.86,0,0,1-1.44,5.86,10.18,10.18,0,0,1-3.9,4,11.34,11.34,0,0,1-5.61,1.4,10.43,10.43,0,0,1-5.3-1.36,9.59,9.59,0,0,1-3.69-3.86v13.28h-2.13V523.06h2v5.22a9.58,9.58,0,0,1,3.69-3.95A10.36,10.36,0,0,1,2940.82,522.89Zm-.12,20.58a8.86,8.86,0,0,0,4.58-1.19,8.24,8.24,0,0,0,3.18-3.31,10.42,10.42,0,0,0,0-9.67,8.24,8.24,0,0,0-3.18-3.31,9.43,9.43,0,0,0-9.17,0,8.66,8.66,0,0,0-3.18,3.31,10.74,10.74,0,0,0,0,9.67,8.66,8.66,0,0,0,3.18,3.31A8.88,8.88,0,0,0,2940.7,543.47Zm29.47-15.57a7.53,7.53,0,0,1,3.19-3.7,9.92,9.92,0,0,1,5.26-1.31V525l-.51-.05a7.33,7.33,0,0,0-5.77,2.34,9.18,9.18,0,0,0-2.08,6.41v11.54h-2.12V523.06h2Zm32.54,17.48a11.31,11.31,0,0,1-5.68-1.44,10.51,10.51,0,0,1-4-4,11.76,11.76,0,0,1-1.44-5.82,11.52,11.52,0,0,1,1.44-5.77,10.34,10.34,0,0,1,4-4,11.31,11.31,0,0,1,5.68-1.44,11.12,11.12,0,0,1,5.65,1.44,10.31,10.31,0,0,1,4,4,11.52,11.52,0,0,1,1.44,5.77,11.76,11.76,0,0,1-1.44,5.82,10.47,10.47,0,0,1-4,4A11.12,11.12,0,0,1,3002.71,545.38Zm0-1.91a8.6,8.6,0,0,0,4.54-1.19,8.33,8.33,0,0,0,3.19-3.31,10.42,10.42,0,0,0,0-9.67,8.33,8.33,0,0,0-3.19-3.31,8.6,8.6,0,0,0-4.54-1.19,8.86,8.86,0,0,0-4.58,1.19,8.66,8.66,0,0,0-3.18,3.31,10.74,10.74,0,0,0,0,9.67,8.66,8.66,0,0,0,3.18,3.31A8.86,8.86,0,0,0,3002.71,543.47Zm47.15-29.75v31.49h-2.08V540a9.51,9.51,0,0,1-3.69,4,10.46,10.46,0,0,1-5.39,1.4,11.08,11.08,0,0,1-5.61-1.44,10.56,10.56,0,0,1-3.94-4,12.78,12.78,0,0,1,0-11.63,10.08,10.08,0,0,1,3.94-4,11.08,11.08,0,0,1,5.61-1.44,10,10,0,0,1,5.3,1.4,9.89,9.89,0,0,1,3.74,3.9V513.72Zm-11,29.75a8.66,8.66,0,0,0,4.55-1.19,8.38,8.38,0,0,0,3.18-3.31,10.42,10.42,0,0,0,0-9.67,8.38,8.38,0,0,0-3.18-3.31,8.66,8.66,0,0,0-4.55-1.19,8.86,8.86,0,0,0-4.58,1.19,8.66,8.66,0,0,0-3.18,3.31,10.74,10.74,0,0,0,0,9.67,8.66,8.66,0,0,0,3.18,3.31A8.86,8.86,0,0,0,3038.82,543.47ZM3088,523.06v22.15h-2v-4.75a8.33,8.33,0,0,1-3.27,3.65,9.84,9.84,0,0,1-5.09,1.27,9.27,9.27,0,0,1-6.79-2.42q-2.46-2.41-2.46-7V523.06h2.12v12.77a7.83,7.83,0,0,0,1.91,5.69,7.2,7.2,0,0,0,5.39,2,7.67,7.67,0,0,0,5.9-2.33,8.78,8.78,0,0,0,2.21-6.28v-11.8Zm27.57,22.32a11.52,11.52,0,0,1-5.77-1.44,10.41,10.41,0,0,1-4-4,11.76,11.76,0,0,1-1.44-5.82,11.62,11.62,0,0,1,1.44-5.81,10,10,0,0,1,4-4,11.52,11.52,0,0,1,5.77-1.44,10.81,10.81,0,0,1,4.84,1.06,8.63,8.63,0,0,1,3.57,3l-1.58,1.15a7.19,7.19,0,0,0-3-2.46,8.61,8.61,0,0,0-3.86-.85,9.19,9.19,0,0,0-4.67,1.19,8.34,8.34,0,0,0-3.22,3.26,10.93,10.93,0,0,0,0,9.76,8.71,8.71,0,0,0,3.22,3.32,9.58,9.58,0,0,0,4.67,1.14,9,9,0,0,0,3.86-.81,7.62,7.62,0,0,0,3-2.5l1.58,1.15a9,9,0,0,1-3.57,3.05A11.22,11.22,0,0,1,3115.57,545.38Zm35.79-1.57a5.54,5.54,0,0,1-2,1.19,8.29,8.29,0,0,1-2.51.38,6,6,0,0,1-4.45-1.57,6.1,6.1,0,0,1-1.57-4.46V524.88h-4.08v-1.82h4.08v-4.84h2.12v4.84h7v1.82h-7v14.26a4.8,4.8,0,0,0,1,3.31,4.07,4.07,0,0,0,3.09,1.11,5,5,0,0,0,3.44-1.23Zm23.59,1.57a11.35,11.35,0,0,1-5.69-1.44,10.51,10.51,0,0,1-4-4,11.76,11.76,0,0,1-1.44-5.82,11.52,11.52,0,0,1,1.44-5.77,10.34,10.34,0,0,1,4-4,11.35,11.35,0,0,1,5.69-1.44,11.11,11.11,0,0,1,5.64,1.44,10.24,10.24,0,0,1,4,4,11.52,11.52,0,0,1,1.44,5.77,11.76,11.76,0,0,1-1.44,5.82,10.41,10.41,0,0,1-4,4A11.11,11.11,0,0,1,3175,545.38Zm0-1.91a8.62,8.62,0,0,0,4.54-1.19,8.24,8.24,0,0,0,3.18-3.31,10.42,10.42,0,0,0,0-9.67,8.24,8.24,0,0,0-3.18-3.31,8.62,8.62,0,0,0-4.54-1.19,8.88,8.88,0,0,0-4.59,1.19,8.66,8.66,0,0,0-3.18,3.31,10.74,10.74,0,0,0,0,9.67,8.66,8.66,0,0,0,3.18,3.31A8.88,8.88,0,0,0,3175,543.47Zm67.84-20.41v30.38h-2.12V540.08a10,10,0,0,1-3.74,3.9,10.11,10.11,0,0,1-5.3,1.4A11.36,11.36,0,0,1,3226,544a10.49,10.49,0,0,1-3.94-4,12.06,12.06,0,0,1-1.4-5.86,11.81,11.81,0,0,1,1.4-5.81,10.49,10.49,0,0,1,3.94-4,11.08,11.08,0,0,1,5.61-1.44,10.37,10.37,0,0,1,5.39,1.4,9.51,9.51,0,0,1,3.69,4v-5.22Zm-11,20.41a8.66,8.66,0,0,0,4.55-1.19,8.38,8.38,0,0,0,3.18-3.31,10.42,10.42,0,0,0,0-9.67,8.38,8.38,0,0,0-3.18-3.31,8.66,8.66,0,0,0-4.55-1.19,8.86,8.86,0,0,0-4.58,1.19,8.66,8.66,0,0,0-3.18,3.31,10.74,10.74,0,0,0,0,9.67,8.66,8.66,0,0,0,3.18,3.31A8.86,8.86,0,0,0,3231.75,543.47Zm49.18-20.41v22.15h-2.06v-4.75a8.07,8.07,0,0,1-3.26,3.65,9.81,9.81,0,0,1-5.09,1.27,9.28,9.28,0,0,1-6.78-2.42q-2.46-2.41-2.46-7V523.06h2.12v12.77a7.91,7.91,0,0,0,1.89,5.69,7.24,7.24,0,0,0,5.42,2,7.64,7.64,0,0,0,5.88-2.33,8.79,8.79,0,0,0,2.22-6.28v-11.8Zm37.51,11.58h-19.06a9.53,9.53,0,0,0,1.3,4.63,8.5,8.5,0,0,0,3.33,3.1,10.78,10.78,0,0,0,8.72.34,7.81,7.81,0,0,0,3.1-2.34l1.24,1.4a9.47,9.47,0,0,1-3.66,2.68,11.7,11.7,0,0,1-4.7.93,12,12,0,0,1-5.91-1.44,10.85,10.85,0,0,1-4.08-4,12.69,12.69,0,0,1-.06-11.59,10,10,0,0,1,3.82-4,10.39,10.39,0,0,1,5.42-1.44,10.07,10.07,0,0,1,5.38,1.44,9.62,9.62,0,0,1,3.79,3.95,11.58,11.58,0,0,1,1.41,5.77Zm-10.54-9.89a8.28,8.28,0,0,0-4.18,1.07,7.88,7.88,0,0,0-3,2.92,10,10,0,0,0-1.27,4.25h17a8.48,8.48,0,0,0-1.28-4.25,8.15,8.15,0,0,0-3-2.92A8.34,8.34,0,0,0,3307.9,524.75Zm58.44-1.86a8.87,8.87,0,0,1,6.59,2.42c1.6,1.61,2.42,3.93,2.42,7v12.94h-2.13V532.44a7.82,7.82,0,0,0-1.89-5.69,7,7,0,0,0-5.29-2,8.15,8.15,0,0,0-6.14,2.33,8.67,8.67,0,0,0-2.25,6.28v11.8h-2.12V523.06h2v4.79a8.68,8.68,0,0,1,3.4-3.65A10.63,10.63,0,0,1,3366.34,522.89Zm46.29,11.75h-19a9.21,9.21,0,0,0,1.3,4.63,8.62,8.62,0,0,0,3.3,3.1,10.31,10.31,0,0,0,4.77,1.1,10.19,10.19,0,0,0,4-.76,8,8,0,0,0,3.1-2.34l1.24,1.4a9.74,9.74,0,0,1-3.65,2.68,11.78,11.78,0,0,1-4.71.93,12,12,0,0,1-5.91-1.44,10.57,10.57,0,0,1-4.08-4,11.84,11.84,0,0,1-1.43-5.82,12.24,12.24,0,0,1,1.34-5.77,10.23,10.23,0,0,1,9.27-5.47,10.25,10.25,0,0,1,5.38,1.44,9.88,9.88,0,0,1,3.79,3.95,11.9,11.9,0,0,1,1.41,5.77Zm-10.51-9.89a8.31,8.31,0,0,0-4.21,1.07,7.74,7.74,0,0,0-3,2.92,9.24,9.24,0,0,0-1.27,4.25h17a9.25,9.25,0,0,0-1.28-4.25,8.25,8.25,0,0,0-7.21-4Zm35.71,20.63a11.49,11.49,0,0,1-5.77-1.44,10.34,10.34,0,0,1-4-4,11.55,11.55,0,0,1-1.43-5.82,11.41,11.41,0,0,1,1.43-5.81,9.89,9.89,0,0,1,4-4,11.49,11.49,0,0,1,5.77-1.44,10.84,10.84,0,0,1,4.84,1.06,8.64,8.64,0,0,1,3.55,3l-1.56,1.15a7.32,7.32,0,0,0-3-2.46,8.7,8.7,0,0,0-3.86-.85,9.08,9.08,0,0,0-4.66,1.19,8.2,8.2,0,0,0-3.24,3.26,11,11,0,0,0,0,9.76,8.55,8.55,0,0,0,3.24,3.32,9.46,9.46,0,0,0,4.66,1.14,9.11,9.11,0,0,0,3.86-.81,7.76,7.76,0,0,0,3-2.5l1.56,1.15a9,9,0,0,1-3.55,3.05A11.25,11.25,0,0,1,3437.83,545.38Zm42.9-10.74h-19.06a9.53,9.53,0,0,0,1.3,4.63,8.5,8.5,0,0,0,3.33,3.1,10.78,10.78,0,0,0,8.72.34,7.81,7.81,0,0,0,3.1-2.34l1.24,1.4a9.47,9.47,0,0,1-3.66,2.68,11.7,11.7,0,0,1-4.7.93,12,12,0,0,1-5.91-1.44,10.85,10.85,0,0,1-4.08-4,12.69,12.69,0,0,1-.06-11.59,10,10,0,0,1,3.82-4,10.39,10.39,0,0,1,5.42-1.44,10.07,10.07,0,0,1,5.38,1.44,9.62,9.62,0,0,1,3.79,3.95,11.58,11.58,0,0,1,1.41,5.77Zm-10.54-9.89a8.47,8.47,0,0,0-4.21,1.07,8,8,0,0,0-3,2.92,10,10,0,0,0-1.27,4.25h17a8.48,8.48,0,0,0-1.28-4.25,8.15,8.15,0,0,0-3-2.92A8.34,8.34,0,0,0,3470.19,524.75Zm32.55,20.63a15.84,15.84,0,0,1-5.1-.81,10.33,10.33,0,0,1-3.78-2l1-1.7a11.35,11.35,0,0,0,3.46,1.91,13.63,13.63,0,0,0,4.5.76,8.71,8.71,0,0,0,4.93-1.1,3.47,3.47,0,0,0,1.6-3.06,2.83,2.83,0,0,0-.88-2.2,5,5,0,0,0-2.12-1.19c-.85-.26-2-.52-3.53-.81a28.84,28.84,0,0,1-4.24-1,6.4,6.4,0,0,1-2.74-1.78,4.67,4.67,0,0,1-1.15-3.39,5.27,5.27,0,0,1,2.16-4.33,9.87,9.87,0,0,1,6.23-1.74,15.74,15.74,0,0,1,4.22.59,10.78,10.78,0,0,1,3.39,1.57l-1,1.7a10.47,10.47,0,0,0-3.1-1.49,12.71,12.71,0,0,0-3.56-.51,7.88,7.88,0,0,0-4.67,1.15,3.56,3.56,0,0,0-1.56,3,3.1,3.1,0,0,0,.88,2.34,5.88,5.88,0,0,0,2.15,1.23c.88.25,2.09.54,3.66.85a26.82,26.82,0,0,1,4.14,1,6.35,6.35,0,0,1,2.75,1.69,4.73,4.73,0,0,1,1.07,3.27,5.18,5.18,0,0,1-2.28,4.42A10.86,10.86,0,0,1,3502.74,545.38Zm24.45-22.32h2.12v22.15h-2.12Zm1-5.39a1.71,1.71,0,0,1-1.2-.47,1.74,1.74,0,0,1,1.2-3,1.69,1.69,0,0,1,1.25.51,1.62,1.62,0,0,1,.52,1.19,1.77,1.77,0,0,1-.52,1.23A1.69,1.69,0,0,1,3528.23,517.67ZM3559,543.81a5.49,5.49,0,0,1-2,1.19,8.35,8.35,0,0,1-2.52.38,6,6,0,0,1-4.44-1.57,6.14,6.14,0,0,1-1.56-4.46V524.88h-4.08v-1.82h4.08v-4.84h2.12v4.84h7.05v1.82h-7.05v14.26a4.75,4.75,0,0,0,1,3.31,4.09,4.09,0,0,0,3.1,1.11,5,5,0,0,0,3.43-1.23Zm33.66-9.17h-19.07a9.53,9.53,0,0,0,1.31,4.63,8.71,8.71,0,0,0,3.33,3.1,10.15,10.15,0,0,0,4.73,1.1,10.36,10.36,0,0,0,4-.76,8.25,8.25,0,0,0,3.1-2.34l1.21,1.4a9.25,9.25,0,0,1-3.66,2.68,11.7,11.7,0,0,1-4.7.93,12,12,0,0,1-5.91-1.44,10.7,10.7,0,0,1-4.05-4,11.44,11.44,0,0,1-1.47-5.82,11.92,11.92,0,0,1,1.38-5.77,10.23,10.23,0,0,1,9.24-5.47,10.25,10.25,0,0,1,5.41,1.44,9.62,9.62,0,0,1,3.76,3.95,11.57,11.57,0,0,1,1.4,5.77Zm-10.54-9.89a8.28,8.28,0,0,0-4.18,1.07,8,8,0,0,0-3,2.92,10,10,0,0,0-1.27,4.25h17a8.48,8.48,0,0,0-1.27-4.25,8.15,8.15,0,0,0-3-2.92A8.34,8.34,0,0,0,3582.14,524.75Zm32.54,20.63a15.83,15.83,0,0,1-5.09-.81,10.46,10.46,0,0,1-3.79-2l1-1.7a11.35,11.35,0,0,0,3.5,1.91,13.29,13.29,0,0,0,4.47.76,8.71,8.71,0,0,0,4.93-1.1,3.5,3.5,0,0,0,1.63-3.06,2.75,2.75,0,0,0-.91-2.2,5.06,5.06,0,0,0-2.12-1.19c-.85-.26-2-.52-3.53-.81a29.5,29.5,0,0,1-4.24-1,6.62,6.62,0,0,1-2.75-1.78,4.84,4.84,0,0,1-1.14-3.39,5.27,5.27,0,0,1,2.16-4.33,9.83,9.83,0,0,1,6.23-1.74,15.29,15.29,0,0,1,4.21.59,10.84,10.84,0,0,1,3.4,1.57l-1,1.7a10.24,10.24,0,0,0-3.1-1.49,12.56,12.56,0,0,0-3.56-.51,7.92,7.92,0,0,0-4.67,1.15,3.57,3.57,0,0,0-1.57,3,3.14,3.14,0,0,0,.88,2.34,6,6,0,0,0,2.16,1.23c.88.25,2.12.54,3.66.85a27.32,27.32,0,0,1,4.17,1,6.21,6.21,0,0,1,2.71,1.69,4.7,4.7,0,0,1,1.11,3.27,5.21,5.21,0,0,1-2.31,4.42A10.81,10.81,0,0,1,3614.68,545.38Zm24.2,0a1.91,1.91,0,0,1-1.28-.51,1.93,1.93,0,0,1-.49-1.31,1.81,1.81,0,0,1,.49-1.28,1.91,1.91,0,0,1,1.28-.51,1.67,1.67,0,0,1,1.24.51,1.7,1.7,0,0,1,.55,1.28,1.81,1.81,0,0,1-.55,1.31A1.67,1.67,0,0,1,3638.88,545.38Z"/><path class="cls-6" d="M2429,419.52h463.6"/><rect class="cls-7" x="2131.14" y="232.81" width="530.83" height="966.87" transform="translate(-104.69 732.72) rotate(-17.02)"/><image width="557" height="734" transform="translate(1938.22 151.47) scale(1.67)" xlink:href="../1391%20%5BConvertido%5D%201.png"/></g></g></svg>