<svg width="255" height="83" viewBox="0 0 255 83" fill="none" xmlns="http://www.w3.org/2000/svg">
<g clip-path="url(#clip0_83_112)">
<path d="M127.415 49.9605C132.353 49.9614 137.181 48.4977 141.288 45.7544C145.394 43.0111 148.595 39.1115 150.486 34.5487C152.376 29.9859 152.871 24.9649 151.908 20.1207C150.945 15.2765 148.568 10.8266 145.076 7.33392C141.584 3.8412 137.136 1.46248 132.292 0.498592C127.449 -0.465295 122.428 0.0289495 117.866 1.91881C113.303 3.80868 109.403 7.00927 106.659 11.1158C103.916 15.2224 102.451 20.0505 102.451 24.9895C102.456 31.6099 105.088 37.9579 109.768 42.6397C114.448 47.3214 120.795 49.9544 127.415 49.9605" fill="black"/>
<path d="M112.267 18.6879C111.3 20.5487 110.799 22.6158 110.805 24.7127C110.805 32.8918 118.125 39.5209 127.249 39.5209C136.29 39.5209 143.693 32.8918 143.693 24.7127C143.699 22.6158 143.197 20.5487 142.231 18.6879H112.267Z" fill="url(#paint0_linear_83_112)"/>
<path d="M112.092 19.546C112.092 22.5584 118.978 25.0818 127.244 25.2294V13.8625C118.808 14.0378 112.092 16.4459 112.092 19.546Z" fill="url(#paint1_linear_83_112)"/>
<path d="M127.244 25.1418C135.51 24.9711 142.397 22.4753 142.397 19.463C142.397 16.4506 135.681 13.9502 127.244 13.7795V25.1418Z" fill="url(#paint2_linear_83_112)"/>
<path d="M121.562 19.546C121.579 20.6488 121.922 21.7219 122.547 22.6306C123.172 23.5392 124.052 24.2427 125.075 24.6529C126.099 25.063 127.221 25.1614 128.301 24.9357C129.38 24.7099 130.369 24.1702 131.143 23.3842C131.917 22.5983 132.441 21.6012 132.65 20.5182C132.859 19.4351 132.743 18.3146 132.317 17.2972C131.891 16.2798 131.174 15.4109 130.256 14.7999C129.338 14.1888 128.259 13.8627 127.157 13.8625C125.667 13.8938 124.249 14.5053 123.204 15.5669C122.159 16.6285 121.57 18.0562 121.562 19.546" fill="url(#paint3_radial_83_112)"/>
<path d="M1.37899 65.5253C1.37899 67.0753 1.37899 68.367 1.29135 69.0544C1.20832 69.488 1.12069 69.917 0.86238 69.917C0.691713 69.917 0.516435 70.0001 0.345768 70.0001C0.280484 70.0088 0.220203 70.0397 0.175103 70.0877C0.175103 70.1754 0.258129 70.2584 0.433409 70.2584C0.950023 70.2584 1.97866 70.1754 1.97866 70.1754C3.35714 70.3241 4.74398 70.3811 6.13002 70.3461C6.73428 70.3461 6.90494 70.3461 6.99258 69.917C7.07916 69.4041 7.13614 68.8865 7.16325 68.367C7.16325 68.2794 7.16325 68.1087 7.08022 68.1087C6.9972 68.1087 6.99258 68.1963 6.90494 68.367C6.90638 68.6104 6.8436 68.8499 6.72293 69.0613C6.60226 69.2727 6.42798 69.4485 6.21766 69.571C5.71378 69.7119 5.19026 69.7696 4.6678 69.7417C3.11796 69.7417 2.85966 69.571 2.77202 68.4547V64.2336C2.77202 64.146 2.77202 64.146 2.85966 64.146C3.62943 64.1351 4.39924 64.1644 5.16597 64.2336C5.77023 64.3213 5.94089 64.5796 6.02853 64.8379C6.09658 65.0012 6.12502 65.1782 6.11155 65.3546C6.11155 65.4376 6.11156 65.5253 6.1992 65.5253C6.28684 65.5253 6.28684 65.3546 6.28684 65.1793C6.28251 64.833 6.3103 64.4871 6.36986 64.146C6.4575 63.6293 6.54514 63.371 6.54514 63.2003C6.54514 63.1126 6.54514 63.0296 6.4575 63.0296C6.36986 63.0296 6.28684 63.1126 6.1992 63.2003C6.02853 63.371 5.85325 63.371 5.42428 63.4586H2.84122C2.75358 63.4586 2.75357 63.371 2.75357 63.2879V58.8085C2.75357 58.7209 2.75358 58.6378 2.84122 58.6378C3.58787 58.6256 4.33463 58.6533 5.07833 58.7209C5.94089 58.8085 6.11156 58.9792 6.1992 59.2375C6.27074 59.4305 6.30061 59.6365 6.28684 59.8419C6.28684 60.0126 6.28683 60.0126 6.4575 60.0126C6.54514 60.0126 6.54514 59.9295 6.54514 59.8419C6.54514 59.6712 6.62817 58.8962 6.62817 58.8085C6.71581 58.3795 6.80345 58.1212 6.80345 58.0335C6.80345 57.9459 6.80345 57.8628 6.71581 57.8628C6.62817 57.8628 6.54514 57.9459 6.4575 57.9459C6.28683 57.9459 6.02853 58.0335 5.77022 58.0335H2.08012C1.99248 58.0335 0.963872 57.9459 0.271978 57.9459C0.101311 57.9459 0.0136719 57.9459 0.0136719 58.1212C0.0136719 58.2042 0.101314 58.2042 0.188954 58.2042C0.359621 58.2042 0.617926 58.2042 0.705566 58.2919C1.22218 58.3795 1.39284 58.6378 1.39284 59.2375V65.5253H1.37899ZM9.38654 65.0963C9.38654 67.5043 9.98618 68.6254 10.7703 69.4004C11.8912 70.5167 13.5379 70.5167 14.1283 70.5167C15.3531 70.5567 16.5482 70.1352 17.4771 69.3358C18.7686 68.2194 18.9393 66.2357 18.9393 64.515V59.2375C18.9393 58.6378 19.1146 58.3795 19.5435 58.2919C19.6748 58.2212 19.824 58.1908 19.9725 58.2042C20.0601 58.2042 20.1478 58.2042 20.1478 58.1212C20.1478 58.0381 20.0601 57.9459 19.8895 57.9459C19.3729 57.9459 18.5979 58.0335 18.5057 58.0335C18.4134 58.0335 17.5832 57.9459 16.7852 57.9459C16.6099 57.9459 16.5269 57.9459 16.5269 58.1212C16.5269 58.2042 16.6099 58.2042 16.6975 58.2042C16.8682 58.2042 17.1265 58.2042 17.2142 58.2919C17.7308 58.3795 17.9014 58.6378 17.9014 59.2375V64.8379C17.9014 66.471 17.7308 67.8503 16.9789 68.796C16.657 69.1669 16.2607 69.4657 15.8156 69.6732C15.3706 69.8807 14.8868 69.992 14.3958 70.0001C13.9572 70.0285 13.5175 69.967 13.1034 69.8195C12.6894 69.6719 12.3099 69.4414 11.988 69.142C11.2961 68.4547 10.7795 67.5043 10.7795 65.0963V59.3252C10.7795 58.7209 10.9548 58.4625 11.3838 58.3795C11.5545 58.3795 11.6421 58.2919 11.8128 58.2919C11.9004 58.2919 11.988 58.2919 11.988 58.2042C11.988 58.1166 11.9004 58.0335 11.7297 58.0335C11.2131 58.0335 10.2629 58.1212 10.0923 58.1212C9.92159 58.1212 8.97139 58.0335 8.19647 58.0335C8.0258 58.0335 7.93817 58.0335 7.93817 58.2042C7.93817 58.2919 8.02581 58.2919 8.11345 58.2919C8.28412 58.2919 8.54242 58.2919 8.63006 58.3795C9.14667 58.4625 9.31734 58.7209 9.31734 59.3252V62.8773L9.40498 65.1193L9.38654 65.0963ZM22.2143 65.5253C22.2143 67.0753 22.2143 68.367 22.1266 69.0544C22.039 69.488 21.956 69.917 21.6976 69.917C21.5224 69.917 21.3517 70.0001 21.181 70.0001C21.1145 70.0092 21.0529 70.04 21.0058 70.0877C21.0058 70.1754 21.0934 70.2584 21.2641 70.2584C21.7807 70.2584 22.8139 70.1754 22.8139 70.1754C22.9015 70.1754 23.9348 70.2584 24.7973 70.2584C24.968 70.2584 25.0556 70.1754 25.0556 70.0877C25.0556 70.0001 25.0556 70.0001 24.8803 70.0001C24.6481 70.0136 24.4154 69.9855 24.1931 69.917C23.6765 69.8294 23.5888 69.488 23.5888 69.0544C23.5058 68.367 23.5058 67.0753 23.5058 65.5253V65.1839C23.5058 65.1009 23.5058 65.0132 23.5888 65.0132H25.5492C25.6368 65.0132 25.7245 65.0132 25.7245 65.1009C26.0658 65.5299 26.8407 66.6509 27.5326 67.509C28.4551 68.7176 28.9948 69.4926 29.6821 69.9216C30.2112 70.2022 30.8112 70.3209 31.4072 70.263H32.5235C32.7818 70.263 32.9571 70.263 32.9571 70.0923C32.9571 70.0047 32.8694 70.0047 32.7818 70.0047C32.5788 70.0076 32.3767 69.9796 32.1821 69.9216C31.3997 69.7668 30.6972 69.3404 30.1987 68.7176C29.2547 67.6843 28.1353 66.3003 26.8407 64.5658C28.3075 63.1818 28.8241 61.9824 28.8241 60.7737C28.8132 60.3413 28.7071 59.9167 28.5133 59.53C28.3196 59.1433 28.043 58.804 27.7033 58.5364C26.8407 57.932 25.7245 57.849 24.7789 57.849C24.2623 57.849 23.0537 57.932 22.8831 57.932C22.7954 57.932 21.7622 57.849 21.0749 57.849C20.9043 57.849 20.8166 57.849 20.8166 58.0197C20.8166 58.1073 20.9043 58.1073 20.9873 58.1073C21.1626 58.1073 21.4209 58.1073 21.5039 58.1904C22.0205 58.278 22.1958 58.5364 22.1958 59.1407V65.5115L22.2143 65.5253ZM23.5058 58.8085C23.508 58.764 23.5267 58.7219 23.5582 58.6903C23.5898 58.6588 23.6319 58.6401 23.6765 58.6378C24.043 58.5487 24.4214 58.5191 24.7973 58.5502C26.5178 58.5502 27.6341 59.7542 27.6341 61.8209C27.6671 62.2793 27.6019 62.7395 27.4428 63.1707C27.2837 63.6019 27.0344 63.9942 26.7116 64.3213C26.3529 64.5517 25.9339 64.6705 25.5077 64.6626C24.9224 64.6982 24.3362 64.6102 23.7872 64.4043C23.6995 64.3213 23.6995 64.3213 23.6995 64.2336L23.5288 58.8085H23.5058ZM31.1674 64.146C31.1674 67.0753 32.9755 70.5167 37.4498 70.5167C41.3244 70.5167 43.9074 67.5043 43.9074 63.8876C43.9074 60.1002 41.1399 57.7752 37.5374 57.7752C33.0585 57.7752 31.1674 61.4657 31.1674 64.146V64.146ZM32.7172 63.6293C32.7172 60.1002 34.7837 58.2919 37.4498 58.2919C40.0328 58.2919 42.3576 60.3586 42.3576 64.3213C42.3576 69.0544 39.3455 69.917 37.8787 69.917C34.9543 69.917 32.7172 67.4213 32.7172 63.6293V63.6293ZM45.7156 65.5253C45.7156 67.0753 45.7156 68.367 45.628 69.0544C45.5449 69.488 45.4573 69.917 45.199 69.917C45.0283 69.917 44.853 70.0001 44.6824 70.0001C44.6171 70.0088 44.5568 70.0397 44.5117 70.0877C44.5117 70.1754 44.5947 70.2584 44.77 70.2584C45.2866 70.2584 46.3199 70.1754 46.3199 70.1754C46.4029 70.1754 47.4361 70.2584 48.2987 70.2584C48.4693 70.2584 48.557 70.1754 48.557 70.0877C48.557 70.0001 48.557 70.0001 48.3863 70.0001C48.1526 70.0135 47.9183 69.9854 47.6944 69.917C47.1778 69.8294 47.0948 69.488 47.0948 69.0544C47.0071 68.367 47.0071 67.0753 47.0071 65.5253V58.8962C47.0071 58.7209 47.0071 58.6378 47.1778 58.5502C47.3997 58.4727 47.6355 58.4429 47.8697 58.4625C48.2762 58.4257 48.6859 58.4757 49.0716 58.6093C49.4573 58.743 49.8102 58.9571 50.1068 59.2375C50.7293 59.9184 51.0604 60.8159 51.0293 61.7379C51.0223 62.101 50.9427 62.4589 50.7952 62.7908C50.6477 63.1226 50.4354 63.4215 50.1706 63.67C49.9058 63.9185 49.594 64.1115 49.2535 64.2376C48.913 64.3637 48.5507 64.4204 48.188 64.4043C47.8466 64.4043 47.759 64.4043 47.759 64.5796C47.759 64.6626 47.8466 64.6626 47.9297 64.6626H48.2756C50.5819 64.6626 52.2332 63.1126 52.2332 60.7876C52.2257 60.0813 51.9484 59.4047 51.4583 58.8962C51.2 58.6378 50.5127 57.9459 48.4463 57.9459C47.6714 57.9459 46.7258 58.0335 46.3798 58.0335C46.2091 58.0335 45.2636 57.9459 44.5717 57.9459C44.401 57.9459 44.3134 57.9459 44.3134 58.1212C44.3134 58.2042 44.401 58.2042 44.4886 58.2042C44.6593 58.2042 44.9176 58.2042 45.0052 58.2919C45.5219 58.3795 45.6925 58.6378 45.6925 59.2375V65.5253H45.7156ZM54.3228 65.5253C54.3228 67.0753 54.3228 68.367 54.2397 69.0544C54.1521 69.488 54.0645 69.917 53.8062 69.917C53.6355 69.917 53.4648 70.0001 53.2895 70.0001C53.2247 70.0101 53.1648 70.0409 53.1189 70.0877C53.1189 70.1754 53.2065 70.2584 53.3772 70.2584H55.0147C55.4436 70.2584 56.5645 70.3461 59.0599 70.3461C59.6642 70.3461 59.8349 70.3461 59.9225 69.917C60.0068 69.4037 60.0637 68.8863 60.0932 68.367C60.0932 68.2794 60.0932 68.1087 60.0055 68.1087C59.9179 68.1087 59.9225 68.1963 59.8349 68.367C59.8363 68.6104 59.7735 68.8499 59.6529 69.0613C59.5322 69.2727 59.3579 69.4485 59.1476 69.571C58.6437 69.7117 58.1202 69.7693 57.5977 69.7417C56.0479 69.7417 55.7896 69.571 55.7019 68.4547V64.2336C55.7019 64.146 55.7019 64.146 55.7896 64.146C56.5593 64.1352 57.3292 64.1645 58.0959 64.2336C58.6955 64.3213 58.8708 64.5796 58.9538 64.8379C59.0256 65.0002 59.0557 65.1778 59.0415 65.3546C59.0415 65.4376 59.0415 65.5253 59.1291 65.5253C59.2168 65.5253 59.2121 65.3546 59.2121 65.1793C59.2076 64.8328 59.2369 64.4867 59.2998 64.146C59.3874 63.6293 59.4704 63.371 59.4704 63.2003C59.4704 63.1126 59.4705 63.0296 59.3874 63.0296C59.3044 63.0296 59.2121 63.1126 59.1291 63.2003C58.9538 63.371 58.7832 63.371 58.3542 63.4586H55.7711C55.6835 63.4586 55.6835 63.371 55.6835 63.2879V58.8085C55.6835 58.7209 55.6835 58.6378 55.7711 58.6378C56.5178 58.6256 57.2646 58.6533 58.0083 58.7209C58.8708 58.8085 59.0415 58.9792 59.1291 59.2375C59.1969 59.4314 59.2251 59.6369 59.2121 59.8419C59.2121 60.0126 59.2121 60.0126 59.3874 60.0126C59.4705 60.0126 59.4704 59.9295 59.4704 59.8419C59.4704 59.6712 59.5581 58.8962 59.5581 58.8085C59.6457 58.3795 59.7288 58.1212 59.7288 58.0335C59.7288 57.9459 59.7288 57.8628 59.6457 57.8628C59.5627 57.8628 59.4705 57.9459 59.3874 57.9459C59.2121 57.9459 58.9538 58.0335 58.6955 58.0335H55.0054C54.9178 58.0335 53.8846 57.9459 53.1973 57.9459C53.022 57.9459 52.939 57.9459 52.939 58.1212C52.939 58.2042 53.022 58.2042 53.1096 58.2042C53.2803 58.2042 53.5386 58.2042 53.6263 58.2919C54.1429 58.3795 54.3135 58.6378 54.3135 59.2375V65.5253H54.3228ZM62.6762 68.4547C62.4179 69.2297 62.072 69.917 61.2924 70.0001H60.8635C60.7758 70.0001 60.6928 70.0001 60.6928 70.0877C60.6928 70.1754 60.7758 70.2584 61.0341 70.2584C61.8091 70.2584 62.6716 70.1754 62.8423 70.1754C63.0129 70.1754 63.7049 70.2584 64.1338 70.2584C64.3045 70.2584 64.3921 70.2584 64.3921 70.0877C64.3921 70.0001 64.3045 70.0001 64.2215 70.0001H64.0462C63.7879 70.0001 63.4465 69.8294 63.4465 69.571C63.4664 69.1866 63.5538 68.8087 63.7048 68.4547L64.6274 65.6129C64.6304 65.5682 64.6493 65.5261 64.6805 65.494C64.7118 65.4619 64.7535 65.4419 64.7981 65.4376H68.3313C68.4143 65.4376 68.4143 65.4376 68.502 65.5253L70.0518 69.488C70.1395 69.7417 70.0518 69.917 69.9642 69.917C69.9422 69.917 69.9211 69.9258 69.9055 69.9413C69.8899 69.9569 69.8812 69.978 69.8812 70.0001C69.8812 70.0877 70.0518 70.0877 70.3978 70.0877H72.9762C73.1515 70.0877 73.3222 70.0877 73.3222 69.917C73.3222 69.8294 73.2346 69.8294 73.1515 69.8294C72.9191 69.839 72.6868 69.8093 72.4642 69.7417C72.1183 69.6587 71.6893 69.4004 71.0805 67.938C70.1579 65.4376 67.5518 58.8085 67.2935 58.1212C67.1182 57.6045 67.0352 57.5168 66.9475 57.5168C66.8599 57.5168 66.7769 57.6045 66.6016 58.1212L62.6439 68.4547H62.6762ZM64.9825 64.921C64.8949 64.921 64.8949 64.921 64.8949 64.8379L66.3571 60.4462C66.4447 60.1879 66.5324 60.1879 66.6154 60.4462L68.1653 64.8379C68.1653 64.921 68.1653 64.921 68.0822 64.921H64.9825ZM75.5916 60.2709C76.1082 60.8752 77.8979 62.9419 79.8122 64.921C81.5327 66.7293 83.8574 69.142 84.0327 69.3127C84.8906 70.1754 85.0613 70.3461 85.2366 70.3461C85.3196 70.3461 85.4073 70.2584 85.4073 69.2297V59.7542C85.4073 58.8085 85.4949 58.4625 86.0115 58.2919C86.1454 58.2286 86.2926 58.1986 86.4405 58.2042C86.5051 58.1964 86.5652 58.1672 86.6112 58.1212C86.6112 58.0335 86.5281 58.0335 86.3529 58.0335C85.6656 58.0335 85.149 58.1212 84.9691 58.1212C84.7892 58.1212 84.0235 58.0335 83.2486 58.0335C83.0733 58.0335 82.9026 58.0335 82.9026 58.1212C82.9026 58.2088 82.9026 58.2042 83.0733 58.2042C83.3345 58.1943 83.5958 58.2239 83.8482 58.2919C84.3648 58.4625 84.4525 58.8085 84.4525 59.8419L84.6231 68.1087C84.1065 67.592 82.3168 65.6129 80.7485 63.8876C78.2531 61.2212 75.8407 58.6378 75.5824 58.2919C75.4117 58.1212 75.1534 57.7752 74.9827 57.7752C74.8121 57.7752 74.8074 57.9459 74.8074 58.5502V67.8503C74.8074 69.3127 74.7244 69.8294 74.2908 69.917C74.0675 69.9807 73.8356 70.0087 73.6036 70.0001C73.5159 70.0001 73.4329 70.0001 73.4329 70.0877C73.4329 70.1754 73.5159 70.2584 73.6912 70.2584C74.3785 70.2584 75.075 70.1754 75.241 70.1754C75.4071 70.1754 76.016 70.2584 76.9616 70.2584C77.1322 70.2584 77.2199 70.2584 77.2199 70.0877C77.2199 70.0001 77.1322 70.0001 77.0492 70.0001C76.7883 70.0095 76.5273 69.9815 76.2743 69.917C75.8407 69.7417 75.67 69.4004 75.67 68.021L75.5824 60.2709H75.5916ZM105.638 58.2042C105.638 57.8628 105.555 57.7752 105.468 57.7752C105.38 57.7752 105.297 57.8628 105.209 58.0335L100.472 68.1825L95.4766 57.9459C95.389 57.7752 95.306 57.6921 95.2183 57.6921C95.1307 57.6921 95.0477 57.7752 95.0477 57.9459L93.8392 68.6253C93.7561 69.2297 93.7561 69.917 93.1519 70.0093C92.9877 70.0743 92.8117 70.1041 92.6353 70.0969C92.5476 70.0969 92.4646 70.0969 92.4646 70.1846C92.4646 70.2722 92.5476 70.3553 92.7229 70.3553C93.1519 70.3553 93.9268 70.2676 94.1067 70.2676C94.2866 70.2676 95.0569 70.3553 95.6565 70.3553C95.8318 70.3553 95.9148 70.3553 95.9148 70.1846C95.9148 70.0969 95.8318 70.0969 95.7442 70.0969C95.5394 70.1003 95.3353 70.0707 95.1399 70.0093C95.0213 69.9845 94.9145 69.9205 94.8367 69.8276C94.7589 69.7347 94.7146 69.6184 94.7109 69.4972V68.6346L95.3982 61.1428H95.4859C95.6565 61.5718 97.4647 65.4469 97.6354 65.7929L99.5312 69.5803C99.8771 70.1846 99.9601 70.3553 100.048 70.3553C100.218 70.3553 100.218 70.1846 100.564 69.4972L104.517 61.0321H104.6L105.375 69.3865C105.375 69.6448 105.375 69.9862 105.292 69.9862C105.269 69.9862 105.247 69.9955 105.23 70.0119C105.214 70.0283 105.205 70.0506 105.205 70.0739C105.205 70.1615 105.292 70.2446 105.634 70.2446C106.238 70.3322 107.94 70.3322 108.304 70.3322C108.475 70.3322 108.646 70.2446 108.646 70.1615C108.646 70.0785 108.563 70.0739 108.475 70.0739C108.123 70.0822 107.772 70.0243 107.442 69.9032C106.755 69.6449 106.667 68.7822 106.584 68.1825L105.634 58.1904L105.638 58.2042ZM110.712 65.5253C110.712 67.0753 110.712 68.367 110.629 69.0544C110.541 69.488 110.454 69.917 110.196 69.917C110.025 69.917 109.854 70.0001 109.679 70.0001C109.614 70.0101 109.554 70.0409 109.508 70.0877C109.508 70.1754 109.596 70.2584 109.767 70.2584H111.404C111.833 70.2584 112.954 70.3461 115.449 70.3461C116.054 70.3461 116.224 70.3461 116.312 69.917C116.396 69.4037 116.453 68.8863 116.483 68.367C116.483 68.2794 116.483 68.1087 116.395 68.1087C116.307 68.1087 116.312 68.1963 116.224 68.367C116.226 68.6104 116.163 68.8499 116.042 69.0613C115.922 69.2727 115.747 69.4485 115.537 69.571C115.033 69.7117 114.51 69.7693 113.987 69.7417C112.437 69.7417 112.179 69.571 112.091 68.4547V64.2336C112.091 64.146 112.091 64.146 112.179 64.146C112.949 64.1352 113.719 64.1645 114.485 64.2336C115.085 64.3213 115.26 64.5796 115.343 64.8379C115.415 65.0002 115.445 65.1778 115.431 65.3546C115.431 65.4376 115.431 65.5253 115.519 65.5253C115.606 65.5253 115.602 65.3546 115.602 65.1793C115.597 64.8328 115.626 64.4867 115.689 64.146C115.777 63.6293 115.86 63.371 115.86 63.2003C115.86 63.1126 115.86 63.0296 115.777 63.0296C115.694 63.0296 115.602 63.1126 115.519 63.2003C115.343 63.371 115.173 63.371 114.744 63.4586H112.161C112.073 63.4586 112.073 63.371 112.073 63.2879V58.8085C112.073 58.7209 112.073 58.6378 112.161 58.6378C112.907 58.6256 113.654 58.6533 114.398 58.7209C115.26 58.8085 115.431 58.9792 115.519 59.2375C115.586 59.4314 115.615 59.6369 115.602 59.8419C115.602 60.0126 115.602 60.0126 115.777 60.0126C115.86 60.0126 115.86 59.9295 115.86 59.8419C115.86 59.6712 115.947 58.8962 115.947 58.8085C116.035 58.3795 116.118 58.1212 116.118 58.0335C116.118 57.9459 116.118 57.8628 116.035 57.8628C115.952 57.8628 115.86 57.9459 115.777 57.9459C115.602 57.9459 115.343 58.0335 115.085 58.0335H111.395C111.307 58.0335 110.274 57.9459 109.587 57.9459C109.411 57.9459 109.328 57.9459 109.328 58.1212C109.328 58.2042 109.411 58.2042 109.499 58.2042C109.67 58.2042 109.928 58.2042 110.016 58.2919C110.532 58.3795 110.703 58.6378 110.703 59.2375V65.5253H110.712ZM118.807 65.5253C118.807 67.0753 118.807 68.367 118.72 69.0544C118.637 69.488 118.549 69.917 118.291 69.917C118.12 69.917 117.945 70.0001 117.774 70.0001C117.709 70.0088 117.649 70.0397 117.603 70.0877C117.603 70.1754 117.686 70.2584 117.862 70.2584C118.378 70.2584 119.412 70.1754 119.412 70.1754C119.582 70.1754 121.649 70.3461 123.023 70.3461C125.791 70.3461 127.244 69.2297 127.931 68.4547C128.505 67.8445 128.953 67.127 129.249 66.3432C129.545 65.5595 129.684 64.725 129.656 63.8876C129.678 62.3583 129.125 60.8766 128.106 59.7358C126.211 57.7567 123.199 57.9274 121.561 57.9274C120.639 57.9274 119.582 58.0151 119.412 58.0151C119.324 58.0151 118.291 57.9274 117.603 57.9274C117.428 57.9274 117.345 57.9274 117.345 58.1027C117.345 58.1857 117.428 58.1857 117.516 58.1857C117.686 58.1857 117.945 58.1857 118.032 58.2734C118.549 58.361 118.72 58.6194 118.72 59.2191V65.5069L118.807 65.5253ZM120.191 62.4252V58.9792C120.194 58.9131 120.211 58.8483 120.242 58.7894C120.272 58.7305 120.314 58.6788 120.366 58.6378C120.704 58.5572 121.053 58.5276 121.4 58.5502C123.291 58.5502 125.187 58.8085 126.736 60.3586C127.763 61.4523 128.319 62.9048 128.286 64.4043C128.286 65.8713 127.857 67.4213 126.995 68.2794C126.482 68.7797 125.877 69.1742 125.212 69.4401C124.547 69.7061 123.836 69.8384 123.12 69.8294C121.224 69.8294 120.537 69.488 120.353 69.142C120.177 68.9713 120.177 68.2794 120.177 67.938L120.191 62.4252ZM133.106 62.6836V59.1545C133.106 58.5502 133.277 58.2919 133.711 58.2042C133.881 58.2042 133.969 58.1212 134.14 58.1212C134.227 58.1212 134.31 58.1212 134.31 58.0335C134.31 57.9459 134.227 57.8628 134.052 57.8628C133.535 57.8628 132.502 57.9459 132.502 57.9459C132.502 57.9459 131.386 57.8628 130.869 57.8628C130.699 57.8628 130.611 57.8628 130.611 58.0335C130.611 58.1212 130.699 58.1212 130.782 58.1212C130.958 58.1139 131.133 58.1422 131.298 58.2042C131.644 58.2919 131.815 58.5502 131.815 59.1545V65.5253C131.815 67.0753 131.815 68.367 131.727 69.0544C131.644 69.488 131.557 69.917 131.298 69.917C131.128 69.917 130.957 70.0001 130.782 70.0001C130.717 70.0101 130.657 70.0409 130.611 70.0877C130.611 70.1754 130.699 70.2584 130.869 70.2584C131.386 70.2584 132.419 70.1754 132.419 70.1754C132.419 70.1754 133.535 70.2584 134.398 70.2584C134.569 70.2584 134.656 70.1754 134.656 70.0877C134.656 70.0001 134.656 70.0001 134.486 70.0001C134.252 70.0135 134.018 69.9854 133.794 69.917C133.277 69.8294 133.194 69.488 133.194 69.0544C133.106 68.367 133.106 67.0753 133.106 65.5253V62.6836V62.6836ZM142.835 70.526C143.822 70.5608 144.81 70.4457 145.764 70.1846C146.022 70.0093 146.105 70.0093 146.193 69.751C146.357 69.0727 146.473 68.3836 146.538 67.6889C146.538 67.5136 146.538 67.4305 146.451 67.4305C146.363 67.4305 146.28 67.5136 146.28 67.6889C146.176 68.1869 145.971 68.6581 145.676 69.0728C144.989 69.7602 144.038 69.8478 142.835 69.8478C142.059 69.8448 141.292 69.6885 140.578 69.3877C139.863 69.087 139.215 68.6478 138.671 68.0955C138.127 67.5432 137.698 66.8887 137.408 66.1697C137.118 65.4507 136.973 64.6814 136.981 63.9061C136.981 62.273 137.239 60.806 138.443 59.6896C139.048 59.173 139.993 58.481 142.133 58.481C143.299 58.4279 144.448 58.7621 145.404 59.4313C145.625 59.641 145.801 59.8945 145.919 60.1756C146.037 60.4567 146.096 60.7594 146.091 61.0644C146.091 61.3227 146.091 61.4104 146.266 61.4104C146.349 61.4104 146.437 61.3227 146.437 61.0644C146.429 60.5187 146.458 59.973 146.525 59.4313C146.531 59.1131 146.559 58.7956 146.608 58.481C146.608 58.398 146.608 58.3103 146.437 58.3103C145.886 58.2604 145.339 58.1741 144.8 58.052C144.038 57.9174 143.266 57.8602 142.493 57.8813C139.993 57.8813 138.531 58.6563 137.585 59.602C136.391 60.8513 135.739 62.5221 135.771 64.2503C135.803 65.9785 136.516 67.6241 137.756 68.8283C138.679 69.9493 140.339 70.549 142.83 70.549L142.835 70.526ZM150.321 62.7067V59.1776C150.321 58.5733 150.492 58.3149 150.925 58.2273C151.096 58.2273 151.183 58.1442 151.354 58.1442C151.442 58.1442 151.525 58.1442 151.525 58.0566C151.525 57.9689 151.442 57.8859 151.266 57.8859C150.75 57.8859 149.717 57.9689 149.717 57.9689C149.633 57.9689 148.6 57.8859 148.084 57.8859C147.908 57.8859 147.825 57.8859 147.825 58.0566C147.825 58.0679 147.826 58.0792 147.83 58.0898C147.834 58.1004 147.84 58.1101 147.848 58.1183C147.856 58.1265 147.865 58.133 147.876 58.1375C147.886 58.142 147.897 58.1442 147.908 58.1442C148.084 58.137 148.26 58.1653 148.425 58.2273C148.771 58.3149 148.942 58.5733 148.942 59.1776V65.5484C148.942 67.0984 148.942 68.3901 148.859 69.0774C148.771 69.5111 148.683 69.9401 148.425 69.9401C148.254 69.9401 148.084 70.0231 147.908 70.0231C147.844 70.0332 147.784 70.0639 147.738 70.1108C147.738 70.1984 147.825 70.2815 147.996 70.2815C148.513 70.2815 149.546 70.1984 149.546 70.1984C149.634 70.1984 150.667 70.2815 151.525 70.2815C151.7 70.2815 151.783 70.1984 151.783 70.1108C151.783 70.0231 151.783 70.0231 151.612 70.0231C151.38 70.0366 151.147 70.0085 150.925 69.9401C150.408 69.8524 150.321 69.5111 150.321 69.0774C150.233 68.3901 150.233 67.0984 150.233 65.5484L150.321 62.7067ZM154.97 60.294C155.487 60.8983 157.277 62.965 159.186 64.944C160.911 66.7524 163.236 69.1651 163.407 69.3358C164.269 70.1984 164.44 70.3691 164.611 70.3691C164.698 70.3691 164.786 70.2815 164.786 69.2527V59.7542C164.786 58.8085 164.869 58.4625 165.386 58.2919C165.521 58.2279 165.67 58.1978 165.819 58.2042C165.883 58.1951 165.943 58.1661 165.99 58.1212C165.99 58.0335 165.902 58.0335 165.732 58.0335C165.044 58.0335 164.528 58.1212 164.348 58.1212C164.168 58.1212 163.402 58.0335 162.627 58.0335C162.457 58.0335 162.281 58.0335 162.281 58.1212C162.281 58.2088 162.281 58.2042 162.457 58.2042C162.718 58.1945 162.979 58.2241 163.232 58.2919C163.748 58.4625 163.831 58.8085 163.831 59.8419L164.006 68.1087C163.49 67.592 161.7 65.6129 160.132 63.8876C157.632 61.2212 155.224 58.6378 154.966 58.2919C154.795 58.1212 154.537 57.7752 154.361 57.7752C154.186 57.7752 154.191 57.9459 154.191 58.5502V67.8503C154.191 69.3127 154.103 69.8294 153.674 69.917C153.451 69.9807 153.219 70.0087 152.987 70.0001C152.899 70.0001 152.812 70.0001 152.812 70.0877C152.812 70.1754 152.899 70.2584 153.07 70.2584C153.762 70.2584 154.454 70.1754 154.62 70.1754C154.786 70.1754 155.395 70.2584 156.34 70.2584C156.516 70.2584 156.599 70.2584 156.599 70.0877C156.599 70.0001 156.516 70.0001 156.428 70.0001C156.167 70.0091 155.906 69.9811 155.653 69.917C155.224 69.7417 155.053 69.4004 155.053 68.021L154.966 60.2709L154.97 60.294ZM168.227 65.5484C168.227 67.0984 168.227 68.3901 168.139 69.0774C168.056 69.5065 167.969 69.9401 167.71 69.9401C167.54 69.9401 167.364 70.0231 167.194 70.0231C167.129 70.0318 167.068 70.0628 167.023 70.1108C167.023 70.1984 167.106 70.2815 167.281 70.2815H168.914C169.348 70.2815 170.464 70.3691 172.964 70.3691C173.564 70.3691 173.739 70.3691 173.822 69.9401C173.91 69.4272 173.968 68.9097 173.997 68.3901C173.997 68.3024 173.997 68.1317 173.91 68.1317C173.822 68.1317 173.822 68.2194 173.739 68.3901C173.74 68.6339 173.677 68.8737 173.555 69.0852C173.434 69.2966 173.258 69.4722 173.047 69.5941C172.543 69.7352 172.02 69.7929 171.497 69.7648C169.948 69.7648 169.689 69.5941 169.606 68.4777V64.2567C169.606 64.169 169.606 64.169 169.689 64.169C170.459 64.1582 171.229 64.1874 171.996 64.2567C172.6 64.3443 172.77 64.6027 172.858 64.861C172.93 65.0232 172.96 65.2008 172.946 65.3777C172.946 65.4607 172.946 65.5484 173.029 65.5484C173.112 65.5484 173.116 65.3777 173.116 65.2024C173.112 64.8559 173.141 64.5098 173.204 64.169C173.287 63.6523 173.375 63.394 173.375 63.2233C173.375 63.1357 173.375 63.0526 173.287 63.0526C173.199 63.0526 173.116 63.1357 173.029 63.2233C172.858 63.394 172.687 63.394 172.254 63.4817H169.671C169.588 63.4817 169.588 63.394 169.588 63.311V58.8316C169.588 58.744 169.588 58.6609 169.671 58.6609C170.419 58.6486 171.167 58.6763 171.913 58.7439C172.771 58.8316 172.946 59.0023 173.029 59.2606C173.1 59.4536 173.13 59.6596 173.116 59.8649C173.116 60.0356 173.116 60.0356 173.287 60.0356C173.375 60.0356 173.375 59.9526 173.375 59.8649C173.375 59.6943 173.462 58.9193 173.462 58.8316C173.545 58.4026 173.633 58.1442 173.633 58.0566C173.633 57.9689 173.633 57.8859 173.545 57.8859C173.458 57.8859 173.375 57.9689 173.287 57.9689C173.116 57.9689 172.858 58.0566 172.6 58.0566H168.91C168.827 58.0566 167.793 57.9689 167.106 57.9689C166.931 57.9689 166.848 57.9689 166.848 58.1442C166.848 58.2273 166.931 58.2273 167.019 58.2273C167.189 58.2273 167.447 58.2273 167.535 58.3149C168.052 58.4026 168.222 58.6609 168.222 59.2606V65.5484H168.227ZM177.955 70.5398C178.812 70.578 179.659 70.3368 180.367 69.8524C180.788 69.5449 181.132 69.1442 181.372 68.6816C181.612 68.219 181.742 67.7071 181.751 67.186C181.751 65.8943 181.322 64.8795 179.343 63.394L178.914 63.0526C177.365 61.761 176.931 61.2443 176.931 60.2847C176.924 60.0265 176.971 59.7696 177.069 59.5307C177.168 59.2918 177.315 59.0762 177.502 58.8979C177.689 58.7196 177.911 58.5825 178.155 58.4956C178.398 58.4087 178.657 58.3739 178.914 58.3933C180.377 58.3933 180.806 59.0807 180.976 59.2514C181.076 59.4988 181.135 59.7604 181.152 60.0264C181.152 60.2017 181.152 60.2017 181.322 60.2017C181.41 60.2017 181.41 60.1141 181.41 59.8557C181.406 59.2811 181.434 58.7066 181.493 58.135C181.493 58.0474 181.493 58.0474 181.322 58.0474C181.117 58.0505 180.914 58.0209 180.718 57.9597C180.209 57.8468 179.689 57.7896 179.168 57.789C177.106 57.789 175.815 58.9931 175.815 60.7184C175.815 61.8348 176.244 62.7851 177.881 64.2475L178.569 64.8518C179.952 65.9682 180.46 66.6601 180.46 67.7765C180.458 68.0719 180.396 68.3638 180.277 68.6344C180.158 68.9049 179.986 69.1485 179.77 69.3501C179.554 69.5517 179.3 69.7072 179.022 69.8071C178.744 69.907 178.448 69.9491 178.153 69.9309C177.033 69.9309 175.999 69.5018 175.741 68.2932C175.675 68.1005 175.645 67.8971 175.653 67.6935C175.653 67.5182 175.653 67.5182 175.57 67.5182C175.487 67.5182 175.483 67.6058 175.483 67.7765C175.483 68.0349 175.395 68.7268 175.395 69.5018C175.395 69.9309 175.395 70.0139 175.653 70.1016C176.394 70.3666 177.173 70.5115 177.96 70.5306L177.955 70.5398ZM188.979 68.4685C188.721 69.2435 188.38 69.9309 187.595 70.0139H187.162C187.079 70.0139 186.991 70.0139 186.991 70.1016C186.991 70.1892 187.079 70.2722 187.337 70.2722C188.112 70.2722 188.97 70.1892 189.145 70.1892C189.321 70.1892 190.003 70.2722 190.437 70.2722C190.607 70.2722 190.691 70.2722 190.691 70.1016C190.691 70.0139 190.608 70.0139 190.52 70.0139H190.349C190.091 70.0139 189.745 69.8432 189.745 69.5849C189.767 69.2008 189.854 68.8232 190.003 68.4685L190.926 65.6268C190.929 65.5814 190.948 65.5386 190.981 65.5064C191.013 65.4742 191.056 65.4547 191.101 65.4515H194.63C194.717 65.4515 194.717 65.4515 194.8 65.5391L196.35 69.5018C196.438 69.7556 196.35 69.9309 196.267 69.9309C196.256 69.9302 196.245 69.9319 196.234 69.9358C196.223 69.9397 196.214 69.9457 196.205 69.9535C196.197 69.9613 196.191 69.9706 196.186 69.981C196.182 69.9914 196.18 70.0026 196.18 70.0139C196.18 70.1016 196.35 70.1016 196.696 70.1016H199.279C199.45 70.1016 199.625 70.1016 199.625 69.9309C199.625 69.8432 199.538 69.8432 199.45 69.8432C199.218 69.8523 198.985 69.8227 198.763 69.7556C198.417 69.6725 197.988 69.4142 197.379 67.9518C196.346 65.4515 193.85 58.8224 193.592 58.135C193.421 57.6183 193.334 57.5307 193.246 57.5307C193.158 57.5307 193.075 57.6183 192.905 58.135L188.942 68.4685H188.979ZM191.216 64.9348C191.133 64.9348 191.133 64.9348 191.133 64.8518L192.596 60.46C192.683 60.2017 192.766 60.2017 192.854 60.46L194.404 64.8518C194.404 64.9348 194.404 64.9348 194.316 64.9348H191.216ZM207.577 68.8975C207.582 69.0206 207.553 69.1426 207.491 69.2495C207.43 69.3563 207.34 69.4438 207.231 69.5018C206.66 69.7448 206.044 69.8613 205.423 69.8432C203.848 69.8385 202.336 69.2215 201.207 68.1225C200.603 67.6058 199.482 65.8851 199.482 63.6431C199.482 61.7517 200.174 60.2847 201.12 59.4913C202.105 58.7443 203.327 58.3775 204.561 58.4579C206.627 58.4579 208.006 59.1499 208.352 59.7496C208.546 60.0624 208.663 60.4164 208.694 60.783C208.694 60.9583 208.694 61.0413 208.781 61.0413C208.869 61.0413 208.952 60.9583 208.952 60.6999C208.952 59.0623 209.04 58.6332 209.04 58.3933C209.04 58.3057 209.04 58.218 208.869 58.218C208.433 58.2105 208 58.1532 207.577 58.0474C206.754 57.8796 205.917 57.7931 205.077 57.789C203.786 57.789 202.241 57.8767 200.774 58.8224C199.307 59.7681 198.108 61.5903 198.108 64.1598C198.098 65.0217 198.26 65.8769 198.585 66.6754C198.91 67.4738 199.39 68.1995 199.999 68.8099C201.807 70.3599 204.15 70.5306 205.336 70.5306C206.52 70.5449 207.693 70.3107 208.781 69.8432C208.952 69.7556 208.952 69.6725 208.952 68.9852V65.4515C208.952 64.8518 209.127 64.5934 209.556 64.5058C209.727 64.5058 209.814 64.4181 209.985 64.4181C210.073 64.4181 210.16 64.4181 210.16 64.3351C210.16 64.2521 210.073 64.1598 209.902 64.1598C209.386 64.1598 208.352 64.2475 208.352 64.2475C208.265 64.2475 207.231 64.1598 206.544 64.1598C206.369 64.1598 206.286 64.1598 206.286 64.3351C206.286 64.4181 206.369 64.4181 206.456 64.4181C206.627 64.4181 206.885 64.4181 206.973 64.5058C207.66 64.6765 207.66 64.8518 207.66 66.1435L207.577 68.9114V68.8975ZM211.793 65.5391C211.793 67.0892 211.793 68.3809 211.71 69.0682C211.623 69.5019 211.535 69.9309 211.277 69.9309C211.106 69.9309 210.935 70.0139 210.76 70.0139C210.695 70.024 210.635 70.0547 210.589 70.1016C210.589 70.1892 210.677 70.2722 210.848 70.2722H212.485C212.914 70.2722 214.035 70.3599 216.531 70.3599C217.13 70.3599 217.305 70.3599 217.388 69.9309C217.476 69.4179 217.535 68.9004 217.564 68.3808C217.564 68.2932 217.564 68.1225 217.476 68.1225C217.388 68.1225 217.388 68.2102 217.305 68.3808C217.306 68.6247 217.243 68.8645 217.121 69.0759C217 69.2874 216.825 69.463 216.614 69.5849C216.11 69.726 215.586 69.7837 215.064 69.7556C213.518 69.7556 213.26 69.5849 213.173 68.4685V64.2475C213.173 64.1598 213.172 64.1598 213.26 64.1598C214.03 64.1488 214.8 64.1781 215.566 64.2475C216.171 64.3351 216.341 64.5934 216.429 64.8518C216.501 65.014 216.531 65.1916 216.517 65.3684C216.517 65.4515 216.517 65.5391 216.6 65.5391C216.683 65.5391 216.687 65.3684 216.687 65.1931C216.683 64.8467 216.712 64.5006 216.775 64.1598C216.858 63.6431 216.946 63.3848 216.946 63.2141C216.946 63.1265 216.946 63.0434 216.858 63.0434C216.77 63.0434 216.687 63.1265 216.6 63.2141C216.429 63.3848 216.258 63.3848 215.825 63.4724H213.246C213.159 63.4724 213.159 63.3848 213.159 63.3018V58.8224C213.159 58.7347 213.159 58.6517 213.246 58.6517C213.993 58.6395 214.74 58.6672 215.483 58.7347C216.341 58.8224 216.517 58.9931 216.6 59.2514C216.671 59.4444 216.701 59.6504 216.687 59.8557C216.687 60.0264 216.687 60.0264 216.858 60.0264C216.946 60.0264 216.946 59.9434 216.946 59.8557C216.946 59.685 217.033 58.91 217.033 58.8224C217.116 58.3933 217.204 58.135 217.204 58.0474C217.204 57.9597 217.204 57.8767 217.116 57.8767C217.029 57.8767 216.946 57.9597 216.858 57.9597C216.687 57.9597 216.429 58.0474 216.171 58.0474H212.481C212.393 58.0474 211.36 57.9597 210.672 57.9597C210.497 57.9597 210.414 57.9597 210.414 58.135C210.414 58.218 210.497 58.218 210.585 58.218C210.755 58.218 211.014 58.218 211.101 58.3057C211.618 58.3933 211.789 58.6517 211.789 59.2514V65.5391H211.793ZM220.317 60.2847C220.834 60.8891 222.624 62.9558 224.538 64.9348C226.259 66.7432 228.583 69.1559 228.754 69.3266C229.617 70.1892 229.787 70.3599 229.958 70.3599C230.046 70.3599 230.133 70.2722 230.133 69.2435V59.7542C230.133 58.8085 230.216 58.4625 230.733 58.2919C230.868 58.2279 231.017 58.1978 231.166 58.2042C231.231 58.1951 231.29 58.1661 231.337 58.1212C231.337 58.0335 231.249 58.0335 231.079 58.0335C230.391 58.0335 229.875 58.1212 229.695 58.1212C229.515 58.1212 228.772 58.0335 227.974 58.0335C227.804 58.0335 227.628 58.0335 227.628 58.1212C227.628 58.2088 227.628 58.2042 227.804 58.2042C228.065 58.1945 228.326 58.2241 228.579 58.2919C229.095 58.4625 229.178 58.8085 229.178 59.8419L229.354 68.1087C228.837 67.592 227.047 65.6129 225.479 63.8876C222.984 61.2212 220.571 58.6378 220.313 58.2919C220.142 58.1212 219.884 57.7752 219.709 57.7752C219.533 57.7752 219.538 57.9459 219.538 58.5502V67.8503C219.538 69.3127 219.45 69.8294 219.021 69.917C218.798 69.9807 218.566 70.0087 218.334 70.0001C218.246 70.0001 218.159 70.0001 218.159 70.0877C218.159 70.1754 218.246 70.2584 218.417 70.2584C219.109 70.2584 219.801 70.1754 219.967 70.1754C220.133 70.1754 220.742 70.2584 221.692 70.2584C221.863 70.2584 221.95 70.2584 221.95 70.0877C221.95 70.0001 221.863 70.0001 221.775 70.0001C221.514 70.0091 221.253 69.9811 221 69.917C220.571 69.7417 220.401 69.4004 220.401 68.021L220.313 60.2709L220.317 60.2847ZM238.74 70.5306C239.728 70.5654 240.716 70.4504 241.669 70.1892C241.928 70.0139 242.011 70.0139 242.098 69.7556C242.263 69.0774 242.378 68.3882 242.444 67.6935C242.444 67.5182 242.444 67.4351 242.357 67.4351C242.269 67.4351 242.186 67.5182 242.186 67.6935C242.082 68.1915 241.876 68.6627 241.582 69.0774C240.894 69.7648 239.944 69.8524 238.74 69.8524C237.965 69.8494 237.198 69.6931 236.484 69.3923C235.769 69.0916 235.121 68.6524 234.577 68.1001C234.033 67.5478 233.603 66.8933 233.313 66.1743C233.023 65.4553 232.878 64.686 232.887 63.9107C232.887 62.2776 233.145 60.8106 234.349 59.6943C234.953 59.1776 235.899 58.4856 238.039 58.4856C239.204 58.4325 240.354 58.7667 241.31 59.4359C241.531 59.6456 241.706 59.8991 241.825 60.1802C241.943 60.4613 242.002 60.764 241.997 61.069C241.997 61.3273 241.997 61.415 242.172 61.415C242.255 61.415 242.255 61.3273 242.343 61.069C242.335 60.5233 242.364 59.9776 242.43 59.4359C242.437 59.1177 242.465 58.8002 242.513 58.4856C242.513 58.4026 242.513 58.3149 242.343 58.3149C241.792 58.265 241.245 58.1787 240.705 58.0566C239.944 57.9222 239.172 57.865 238.399 57.8859C235.904 57.8859 234.441 58.6609 233.496 59.6066C232.301 60.8559 231.649 62.5267 231.681 64.2549C231.713 65.9831 232.427 67.6287 233.666 68.8329C234.7 69.9539 236.337 70.5537 238.74 70.5537V70.5306ZM248.298 67.4582C248.302 68.0038 248.273 68.5492 248.21 69.0913C248.21 69.5249 248.039 69.9539 247.693 69.9539C247.523 69.9539 247.352 70.037 247.177 70.037C247.112 70.047 247.052 70.0778 247.006 70.1246C247.006 70.2123 247.094 70.2953 247.264 70.2953C247.781 70.2953 248.814 70.2123 248.814 70.2123C248.902 70.2123 249.931 70.2953 250.793 70.2953C250.964 70.2953 251.051 70.2123 251.051 70.1246C251.051 70.037 251.051 70.037 250.881 70.037C250.647 70.0504 250.413 70.0223 250.189 69.9539C249.672 69.8663 249.589 69.5249 249.502 69.0913C249.439 68.5492 249.41 68.0038 249.414 67.4582V66.0743C249.379 65.5161 249.468 64.9571 249.672 64.4366C250.611 62.6592 251.645 60.9344 252.772 59.2698C253.015 58.9423 253.306 58.6531 253.634 58.4118C253.866 58.2603 254.133 58.1713 254.409 58.1535C254.58 58.1535 254.58 58.0658 254.58 57.9782C254.58 57.8905 254.497 57.8951 254.409 57.8951C254.063 57.8951 252.947 57.9782 252.86 57.9782C252.689 57.9782 252.172 57.8951 251.826 57.8951C251.656 57.8951 251.568 57.8951 251.568 57.9782C251.568 58.0612 251.656 58.0658 251.826 58.1535C251.906 58.1925 251.973 58.2538 252.019 58.3299C252.065 58.406 252.087 58.4937 252.085 58.5825C252.055 58.8841 251.968 59.1771 251.826 59.4451C251.48 59.9618 249.414 63.4909 249.156 64.1783C248.897 63.7492 246.388 59.5282 246.144 59.0115C246.06 58.8202 246.002 58.6185 245.973 58.4118C245.973 58.2365 246.061 58.1535 246.144 58.1535C246.319 58.0658 246.402 58.0658 246.402 57.9782C246.402 57.8905 246.402 57.8951 246.231 57.8951C245.627 57.8951 244.94 57.9782 244.847 57.9782C244.755 57.9782 243.556 57.8951 243.215 57.8951C243.039 57.8951 243.039 57.9782 243.039 57.9782C243.039 58.0658 243.127 58.0658 243.215 58.0658C243.463 58.0885 243.7 58.1777 243.902 58.3241C244.336 58.6649 244.714 59.0711 245.023 59.5282C245.622 60.3908 247.79 63.9199 247.864 64.1783C248.103 64.7214 248.219 65.3104 248.205 65.9036L248.293 67.4536L248.298 67.4582Z" fill="black"/>
<path d="M1.63687 83.0046C2.15997 83.0355 2.67735 82.882 3.09909 82.571C3.34762 82.3992 3.54888 82.1676 3.68432 81.8975C3.81975 81.6274 3.88499 81.3275 3.87401 81.0256C3.87401 80.2506 3.6157 79.6417 2.49022 78.7836L2.23192 78.6129C1.37397 77.8379 1.11567 77.5796 1.11567 76.9752C1.11379 76.8205 1.14432 76.6672 1.20534 76.525C1.26636 76.3829 1.35649 76.2551 1.46992 76.1499C1.58335 76.0447 1.71756 75.9645 1.8639 75.9143C2.01024 75.8642 2.16547 75.8453 2.31956 75.8589C2.54761 75.8354 2.77786 75.8705 2.98854 75.9609C3.19921 76.0514 3.38333 76.1941 3.52345 76.3755C3.61109 76.4586 3.61109 76.7169 3.61109 76.8922C3.61109 76.9752 3.61109 76.9752 3.69873 76.9752C3.78637 76.9752 3.78175 76.8922 3.78175 76.7169V75.6836C3.78175 75.6005 3.78176 75.6005 3.69873 75.6005C3.57744 75.6046 3.45748 75.5742 3.35278 75.5129C3.07214 75.4359 2.78062 75.4062 2.49022 75.4252C1.28633 75.4252 0.511387 76.1172 0.511387 77.1505C0.511387 77.8379 0.76972 78.3546 1.71992 79.2172L2.14889 79.5586C3.00684 80.2506 3.26514 80.592 3.26514 81.2839C3.26634 81.4616 3.2306 81.6376 3.16019 81.8008C3.08978 81.9639 2.98624 82.1107 2.85613 82.2317C2.72602 82.3527 2.57219 82.4453 2.40438 82.5038C2.23658 82.5622 2.05847 82.5851 1.88135 82.571C1.2771 82.571 0.589817 82.3127 0.497564 81.6253V81.2839C0.497564 81.1963 0.497567 81.1963 0.41454 81.1963C0.331513 81.1963 0.326899 81.2839 0.326899 81.367C0.326899 81.5377 0.239258 81.8837 0.239258 82.4003C0.239258 82.6587 0.23926 82.6587 0.41454 82.7463C0.77644 82.9627 1.19963 83.0535 1.61843 83.0046H1.63687ZM13.5006 83.0046C14.0845 83.0151 14.666 82.9278 15.2211 82.7463C15.3917 82.6587 15.3917 82.6587 15.4794 82.488C15.5597 82.0887 15.6167 81.6852 15.65 81.2793C15.65 81.1963 15.65 81.1086 15.5624 81.1086C15.4748 81.1086 15.4794 81.1086 15.4794 81.2793C15.4386 81.5649 15.3188 81.8334 15.1334 82.0543C14.7875 82.488 14.1878 82.571 13.5006 82.571C13.0468 82.5772 12.5963 82.4925 12.1758 82.3218C11.7552 82.1511 11.3731 81.8979 11.052 81.5771C10.7308 81.2564 10.4772 80.8746 10.3059 80.4542C10.1347 80.0339 10.0493 79.5835 10.0549 79.1296C10.0182 78.6766 10.0759 78.2208 10.2244 77.7912C10.3729 77.3616 10.6089 76.9675 10.9175 76.6339C11.2588 76.2879 11.84 75.9419 13.067 75.9419C13.7365 75.9195 14.3972 76.0996 14.9628 76.4586C15.0989 76.5764 15.2078 76.7224 15.2819 76.8865C15.356 77.0506 15.3934 77.2288 15.3917 77.4089C15.3917 77.5796 15.3917 77.5796 15.4794 77.5796C15.567 77.5796 15.5624 77.4919 15.5624 77.4089V76.4586C15.5675 76.2831 15.597 76.1092 15.65 75.9419C15.65 75.8589 15.65 75.8589 15.5624 75.8589C15.2486 75.8406 14.9385 75.7817 14.6399 75.6836C14.1818 75.6166 13.7189 75.5888 13.2561 75.6005C11.7893 75.6005 10.9498 76.0295 10.3271 76.6339C9.65885 77.3272 9.28807 78.2543 9.29385 79.2172C9.27753 80.274 9.68057 81.2941 10.4147 82.0543C11.102 82.6587 12.0476 83.0046 13.5144 83.0046H13.5006ZM22.5505 78.4422V76.3755C22.5505 76.0295 22.6382 75.8589 22.8965 75.8589H23.1548L23.2424 75.7943C23.2424 75.7066 23.1548 75.7066 23.0672 75.7066H21.176C21.0883 75.7066 21.0007 75.7066 21.0007 75.7943L21.0883 75.8819H21.3467C21.4548 75.9153 21.5482 75.9849 21.6112 76.0789C21.6742 76.173 21.7029 76.2859 21.6926 76.3986V80.0891C21.7202 80.7793 21.6909 81.4705 21.605 82.1558C21.605 82.4142 21.5173 82.6725 21.3467 82.6725H21.0883C21.0007 82.6725 21.0007 82.6725 21.0007 82.7602C21.0007 82.8478 21.0883 82.8432 21.176 82.8432H23.3255C23.4131 82.8432 23.5007 82.8432 23.5007 82.7602C23.5007 82.7369 23.4915 82.7146 23.4751 82.6982C23.4586 82.6817 23.4363 82.6725 23.4131 82.6725H22.9841C22.7258 82.6725 22.6382 82.4142 22.6382 82.1558C22.5523 81.4705 22.5229 80.7793 22.5505 80.0891V78.4561V78.4422ZM29.7831 80.1629C29.8133 80.8606 29.7855 81.5596 29.7001 82.2527C29.7001 82.511 29.6171 82.7694 29.4418 82.7694H29.1835C29.1005 82.7694 29.1005 82.7694 29.1005 82.8524C29.1005 82.9354 29.1835 82.9401 29.2711 82.9401H30.1337C30.392 82.9401 31.0562 83.0277 32.44 83.0277C32.7814 83.0277 32.869 83.0277 32.9566 82.7694C33.0218 82.457 33.0497 82.138 33.0397 81.8191C33.0397 81.736 33.0397 81.6484 32.9566 81.6484C32.8736 81.6484 32.869 81.6484 32.869 81.8191C32.7814 82.2527 32.6983 82.4234 32.44 82.511C32.1282 82.5797 31.8088 82.6076 31.4898 82.5941C30.5673 82.5941 30.4566 82.511 30.3736 81.8191V79.3003C30.3736 79.2783 30.3823 79.2571 30.3979 79.2416C30.4134 79.226 30.4346 79.2172 30.4566 79.2172C30.9194 79.2056 31.3823 79.2334 31.8404 79.3003C31.953 79.2908 32.0654 79.3199 32.1593 79.3828C32.2531 79.4456 32.3229 79.5386 32.357 79.6463V79.9923C32.357 80.0753 32.357 80.0753 32.4446 80.0753C32.5323 80.0753 32.5277 79.9923 32.5277 79.9046V79.3003C32.52 79.1238 32.5499 78.9477 32.6153 78.7836C32.6153 78.7006 32.6153 78.7006 32.5277 78.7006C32.4817 78.7466 32.4216 78.7758 32.357 78.7836C32.2694 78.8713 32.0987 78.8712 31.928 78.9589H30.392C30.3044 78.9589 30.3044 78.9589 30.3044 78.8713V76.2002C30.3044 76.1172 30.3044 76.1172 30.392 76.1172H31.6835C32.2002 76.2002 32.2832 76.2879 32.3708 76.4586C32.4402 76.5598 32.4713 76.6825 32.4585 76.8046C32.4585 76.8922 32.4585 76.8922 32.5415 76.8922L32.6291 76.8046C32.6291 76.7169 32.6291 76.2879 32.7168 76.2002C32.727 76.0544 32.7549 75.9103 32.7998 75.7712V75.6836C32.7168 75.6836 32.7168 75.6836 32.6291 75.7712C32.4812 75.7656 32.334 75.7956 32.2002 75.8589H29.0128C28.9252 75.8589 28.8422 75.8589 28.8422 75.9419L28.9252 76.0295H29.2711C29.6171 76.1172 29.7001 76.2879 29.7001 76.5462V78.6129L29.7878 80.1629H29.7831ZM39.5112 77.0629C39.8571 77.4089 40.895 78.6129 42.0066 79.8308C43.0398 80.9518 44.419 82.3265 44.5066 82.4142C45.0233 82.9308 45.1063 83.0185 45.194 83.0185C45.2816 83.0185 45.2816 82.9308 45.2816 82.3265V76.7169C45.2816 76.1172 45.2816 75.9419 45.6229 75.8589H45.8812C45.9689 75.8589 45.9689 75.8589 45.9689 75.7712C45.9689 75.6836 45.8812 75.6836 45.7982 75.6836H44.0731C43.99 75.6836 43.9024 75.6836 43.9024 75.7712C43.9024 75.7945 43.9116 75.8167 43.9281 75.8332C43.9445 75.8496 43.9668 75.8589 43.99 75.8589C44.1375 75.8533 44.2843 75.8817 44.419 75.9419C44.6773 76.0295 44.765 76.2002 44.765 76.8922L44.848 81.713C44.5067 81.367 43.4642 80.2506 42.5417 79.2172C41.0795 77.6672 39.7003 76.1172 39.5296 75.9419C39.442 75.8589 39.2713 75.6005 39.1837 75.6005C39.096 75.6005 39.1007 75.6836 39.1007 76.1172V81.5377C39.1007 82.4003 39.013 82.6587 38.8424 82.7463C38.706 82.8065 38.5577 82.8349 38.4088 82.8293C38.3257 82.8293 38.3257 82.8293 38.3257 82.917C38.3257 83.0046 38.4088 83.0046 38.4964 83.0046H40.4752C40.5629 83.0046 40.6505 83.0046 40.6505 82.917C40.6505 82.8938 40.6413 82.8715 40.6248 82.855C40.6084 82.8386 40.5861 82.8293 40.5629 82.8293C40.3872 82.8309 40.2126 82.8028 40.0462 82.7463C39.7879 82.6587 39.7003 82.4003 39.7003 81.6253L39.5296 77.0629H39.5112ZM55.4386 83.0046C56.0225 83.0159 56.6042 82.9286 57.1591 82.7463C57.3344 82.6587 57.3344 82.6587 57.4174 82.488C57.501 82.0892 57.5596 81.6855 57.5927 81.2793C57.5927 81.1963 57.5927 81.1086 57.5051 81.1086C57.4174 81.1086 57.4174 81.1086 57.4174 81.2793C57.3785 81.5646 57.2602 81.8331 57.0761 82.0543C56.7301 82.488 56.1259 82.571 55.4386 82.571C54.9848 82.5772 54.5343 82.4925 54.1138 82.3218C53.6932 82.1511 53.3111 81.8979 52.99 81.5771C52.6689 81.2564 52.4152 80.8746 52.2439 80.4542C52.0727 80.0339 51.9874 79.5835 51.993 79.1296C51.9574 78.6766 52.0156 78.2212 52.164 77.7918C52.3124 77.3623 52.5478 76.9682 52.8555 76.6339C53.2015 76.2879 53.778 75.9419 55.0096 75.9419C55.6777 75.9193 56.337 76.0994 56.9008 76.4586C57.0375 76.5761 57.1471 76.722 57.222 76.8861C57.2969 77.0501 57.3352 77.2285 57.3344 77.4089C57.3344 77.5796 57.3344 77.5796 57.4174 77.5796C57.5004 77.5796 57.5051 77.4919 57.5051 77.4089V76.4586C57.5102 76.2831 57.5396 76.1092 57.5927 75.9419C57.5927 75.8589 57.5927 75.8589 57.5051 75.8589C57.1912 75.8414 56.881 75.7825 56.5825 75.6836C56.1244 75.6168 55.6615 75.589 55.1987 75.6005C53.7365 75.6005 52.8924 76.0295 52.2697 76.6339C51.6048 77.3293 51.2346 78.255 51.2365 79.2172C51.2202 80.274 51.6232 81.2941 52.3573 82.0543C53.0446 82.6587 53.9948 83.0046 55.4571 83.0046H55.4386ZM63.7229 80.1629C63.7502 80.8531 63.7209 81.5443 63.6352 82.2296C63.6352 82.488 63.5476 82.7463 63.3769 82.7463H63.1186C63.031 82.7463 63.031 82.7463 63.031 82.8293C63.031 82.9124 63.1186 82.917 63.2063 82.917H64.0642C64.3225 82.917 65.0144 83.0046 66.3705 83.0046C66.7165 83.0046 66.8041 83.0047 66.8871 82.7463C66.9559 82.4344 66.9853 82.1152 66.9748 81.796C66.9748 81.713 66.9748 81.6253 66.8871 81.6253C66.7995 81.6253 66.8041 81.6253 66.8041 81.796C66.7165 82.2296 66.6288 82.4003 66.3705 82.488C66.0678 82.5547 65.7578 82.5826 65.448 82.571C64.5024 82.571 64.4148 82.488 64.3271 81.796V79.3003C64.3271 79.289 64.3294 79.2778 64.3339 79.2674C64.3383 79.257 64.3449 79.2476 64.3531 79.2399C64.3613 79.2321 64.371 79.2261 64.3816 79.2222C64.3922 79.2183 64.4035 79.2166 64.4148 79.2172C64.8775 79.2058 65.3405 79.2335 65.7986 79.3003C65.911 79.2917 66.0231 79.3211 66.1167 79.3838C66.2104 79.4466 66.2803 79.539 66.3152 79.6463V79.9923C66.3152 80.0753 66.3152 80.0753 66.3982 80.0753C66.4812 80.0753 66.4858 79.9923 66.4858 79.9046V79.3003C66.4782 79.1238 66.5081 78.9477 66.5735 78.7836C66.5735 78.7723 66.5712 78.7611 66.5667 78.7507C66.5623 78.7403 66.5558 78.731 66.5475 78.7232C66.5393 78.7154 66.5296 78.7094 66.519 78.7055C66.5084 78.7016 66.4971 78.6999 66.4858 78.7006C66.4391 78.7455 66.3794 78.7745 66.3152 78.7836C66.2275 78.8713 66.0569 78.8712 65.8816 78.9589H64.2948C64.2118 78.9589 64.2118 78.9589 64.2118 78.8713V76.2002C64.2118 76.1172 64.2118 76.1172 64.2948 76.1172H65.5864C66.103 76.2002 66.1906 76.2879 66.2783 76.4586C66.3446 76.5611 66.3739 76.6831 66.3613 76.8046C66.3613 76.8922 66.3613 76.8922 66.4489 76.8922L66.5366 76.8046C66.5232 76.5996 66.5514 76.394 66.6196 76.2002C66.6305 76.0541 66.6599 75.9099 66.7072 75.7712V75.6836C66.6196 75.6836 66.6196 75.6836 66.5366 75.7712C66.3871 75.7648 66.2383 75.7949 66.103 75.8589H62.9203C62.8326 75.8589 62.745 75.8589 62.745 75.9419L62.8326 76.0295H63.1786C63.5199 76.1172 63.6076 76.2879 63.6076 76.5462V78.6129L63.6952 80.1629H63.7229ZM93.5943 75.8589C93.5999 75.7654 93.5703 75.6732 93.5112 75.6005C93.4236 75.6005 93.4236 75.6836 93.336 75.7712L90.5684 81.713L87.6393 75.6836C87.5563 75.6005 87.5563 75.5129 87.4687 75.5129C87.381 75.5129 87.381 75.6005 87.381 75.6836L86.6938 81.8837C86.6938 82.2296 86.6061 82.6587 86.3478 82.6587H86.0895C86.0065 82.6587 86.0065 82.6587 86.0065 82.7463C86.0065 82.834 86.0895 82.8293 86.1771 82.8293H87.8192C87.9023 82.8293 87.9899 82.8294 87.9899 82.7463L87.9023 82.6587C87.7825 82.6622 87.6642 82.6318 87.5609 82.571C87.4935 82.5677 87.4297 82.5394 87.382 82.4916C87.3343 82.4439 87.306 82.3801 87.3026 82.3127V81.7914L87.644 77.4043C87.7316 77.6626 88.8525 79.9876 88.9355 80.1722C89.0231 80.2598 89.7981 81.8929 90.0564 82.4095C90.1214 82.5642 90.2084 82.7087 90.3147 82.8386C90.4023 82.8386 90.4023 82.7555 90.6606 82.3219L92.9669 77.4181L93.3959 82.3219V82.6679C93.3083 82.6679 93.3083 82.6679 93.3083 82.7555C93.3083 82.8432 93.3959 82.8386 93.5666 82.8386C93.9125 82.8386 94.9504 82.9262 95.1164 82.9262C95.2041 82.9262 95.2917 82.9262 95.2917 82.8386C95.2917 82.8273 95.2894 82.8161 95.285 82.8057C95.2805 82.7953 95.274 82.7859 95.2658 82.7782C95.2576 82.7704 95.2479 82.7644 95.2373 82.7605C95.2266 82.7566 95.2154 82.7549 95.2041 82.7555C94.9993 82.7589 94.7952 82.7293 94.5998 82.6679C94.4219 82.5653 94.278 82.4126 94.1861 82.2289C94.0943 82.0452 94.0585 81.8385 94.0832 81.6345L93.5666 75.8681L93.5943 75.8589ZM100.915 80.1629C100.942 80.8531 100.913 81.5443 100.827 82.2296C100.827 82.488 100.739 82.7463 100.569 82.7463H100.31C100.223 82.7463 100.223 82.7463 100.223 82.8293C100.223 82.9124 100.31 82.917 100.398 82.917H101.256C101.514 82.917 102.206 83.0046 103.562 83.0046C103.908 83.0046 103.996 83.0047 104.079 82.7463C104.148 82.4344 104.177 82.1152 104.166 81.796C104.166 81.713 104.166 81.6253 104.079 81.6253C103.991 81.6253 103.996 81.6253 103.996 81.796C103.908 82.2296 103.82 82.4003 103.562 82.488C103.259 82.5547 102.949 82.5826 102.64 82.571C101.694 82.571 101.606 82.488 101.519 81.796V79.3003C101.519 79.289 101.521 79.2778 101.525 79.2674C101.53 79.257 101.536 79.2476 101.545 79.2399C101.553 79.2321 101.563 79.2261 101.573 79.2222C101.584 79.2183 101.595 79.2166 101.606 79.2172C102.069 79.2058 102.532 79.2335 102.99 79.3003C103.103 79.2917 103.215 79.3211 103.308 79.3838C103.402 79.4466 103.472 79.539 103.507 79.6463V79.9923C103.507 80.0753 103.507 80.0753 103.59 80.0753C103.673 80.0753 103.677 79.9923 103.677 79.9046V79.3003C103.67 79.1238 103.7 78.9477 103.765 78.7836C103.765 78.7723 103.763 78.7611 103.758 78.7507C103.754 78.7403 103.747 78.731 103.739 78.7232C103.731 78.7154 103.721 78.7094 103.711 78.7055C103.7 78.7016 103.689 78.6999 103.677 78.7006C103.631 78.7455 103.571 78.7745 103.507 78.7836C103.419 78.8713 103.248 78.8712 103.073 78.9589H101.523C101.44 78.9589 101.44 78.9589 101.44 78.8713V76.2002C101.44 76.1172 101.44 76.1172 101.523 76.1172H102.815C103.332 76.2002 103.419 76.2879 103.507 76.4586C103.573 76.5611 103.602 76.6831 103.59 76.8046C103.59 76.8922 103.59 76.8922 103.677 76.8922L103.765 76.8046C103.752 76.5996 103.78 76.394 103.848 76.2002C103.859 76.0541 103.888 75.9099 103.936 75.7712V75.6836C103.848 75.6836 103.848 75.6836 103.765 75.7712C103.616 75.7648 103.467 75.7949 103.332 75.8589H100.149C100.061 75.8589 99.9735 75.8589 99.9735 75.9419L100.061 76.0295H100.407C100.748 76.1172 100.836 76.2879 100.836 76.5462V78.6129L100.924 80.1629H100.915ZM110.555 80.1629C110.582 80.8531 110.553 81.5443 110.467 82.2296C110.467 82.488 110.384 82.7463 110.209 82.7463H109.96C109.877 82.7463 109.877 82.7463 109.877 82.8293C109.877 82.9124 109.96 82.917 110.048 82.917H110.993C111.081 82.917 112.285 83.0046 113.147 83.0046C114.785 83.0046 115.643 82.3127 115.989 81.8837C116.65 81.1526 117.018 80.203 117.022 79.2172C117.039 78.7736 116.966 78.3312 116.807 77.9165C116.649 77.5019 116.408 77.1236 116.099 76.8046C114.978 75.6005 113.258 75.6836 112.308 75.6836H110.001C109.918 75.6836 109.831 75.6836 109.831 75.7712L109.918 75.8589H110.26C110.606 75.9419 110.693 76.1172 110.693 76.3755V78.4422L110.606 80.1629H110.555ZM111.33 78.3546V76.2879C111.33 76.2002 111.33 76.1172 111.417 76.1172C111.505 76.1172 111.846 76.0295 112.017 76.0295C113.138 76.0295 114.259 76.2002 115.117 77.0629C115.43 77.3801 115.675 77.7574 115.839 78.1721C116.002 78.5867 116.08 79.0301 116.067 79.4756C116.067 80.3336 115.809 81.2793 115.292 81.713C114.995 81.9994 114.644 82.223 114.259 82.3704C113.873 82.5178 113.462 82.5861 113.05 82.571C111.934 82.571 111.588 82.4003 111.417 82.2296C111.33 82.142 111.33 81.713 111.33 81.5377V78.3546V78.3546ZM123.812 78.4422V76.3755C123.812 76.0295 123.899 75.8589 124.158 75.8589H124.416L124.503 75.7712C124.503 75.6836 124.416 75.6836 124.328 75.6836H122.414C122.326 75.6836 122.239 75.6836 122.239 75.7712L122.326 75.8589H122.585C122.693 75.8922 122.786 75.9618 122.849 76.0559C122.912 76.1499 122.941 76.2628 122.931 76.3755V80.0661C122.958 80.7562 122.929 81.4474 122.843 82.1328C122.843 82.3911 122.755 82.6494 122.585 82.6494H122.326C122.239 82.6494 122.239 82.6494 122.239 82.7371C122.239 82.8247 122.326 82.8201 122.414 82.8201H124.563C124.651 82.8201 124.739 82.8201 124.739 82.7371C124.739 82.7138 124.73 82.6915 124.713 82.6751C124.697 82.6587 124.674 82.6494 124.651 82.6494H124.222C123.964 82.6494 123.876 82.3911 123.876 82.1328C123.79 81.4474 123.761 80.7562 123.789 80.0661V78.433L123.812 78.4422ZM134.056 83.0046C134.642 83.0155 135.225 82.9281 135.781 82.7463C135.952 82.6587 135.952 82.6587 136.04 82.488C136.12 82.0887 136.177 81.6852 136.21 81.2793C136.21 81.1963 136.21 81.1086 136.123 81.1086C136.035 81.1086 136.04 81.1086 136.04 81.2793C135.999 81.5649 135.879 81.8334 135.694 82.0543C135.348 82.488 134.771 82.571 134.056 82.571C133.603 82.5772 133.152 82.4924 132.732 82.3217C132.312 82.1509 131.93 81.8977 131.609 81.5769C131.288 81.2561 131.035 80.8742 130.864 80.4539C130.694 80.0335 130.609 79.5832 130.615 79.1296C130.579 78.6766 130.636 78.2208 130.785 77.7912C130.933 77.3616 131.169 76.9675 131.478 76.6339C131.819 76.2879 132.423 75.9419 133.627 75.9419C134.297 75.9195 134.957 76.0996 135.523 76.4586C135.659 76.5764 135.768 76.7224 135.842 76.8865C135.916 77.0506 135.954 77.2288 135.952 77.4089C135.952 77.5796 135.952 77.5796 136.04 77.5796C136.127 77.5796 136.123 77.4919 136.123 77.4089V76.4586C136.128 76.2831 136.157 76.1092 136.21 75.9419C136.21 75.8589 136.21 75.8589 136.123 75.8589C135.809 75.8406 135.499 75.7817 135.2 75.6836C134.742 75.6167 134.279 75.5889 133.816 75.6005C132.354 75.6005 131.51 76.0295 130.892 76.6339C130.224 77.3272 129.853 78.2543 129.859 79.2172C129.842 80.274 130.245 81.2941 130.98 82.0543C131.667 82.6587 132.7 83.0046 134.075 83.0046H134.056ZM143.203 78.4422V76.3755C143.203 76.0295 143.291 75.8589 143.549 75.8589H143.803L143.89 75.7712C143.89 75.6836 143.803 75.6836 143.72 75.6836H141.787C141.704 75.6836 141.616 75.6836 141.616 75.7712L141.704 75.8589H141.962C142.07 75.8924 142.163 75.9621 142.225 76.0563C142.287 76.1504 142.315 76.2632 142.304 76.3755V80.0661C142.33 80.7561 142.302 81.4471 142.221 82.1328C142.221 82.3911 142.133 82.6494 141.962 82.6494H141.704C141.616 82.6494 141.616 82.6494 141.616 82.7371C141.616 82.8247 141.704 82.8201 141.787 82.8201H143.941C144.024 82.8201 144.112 82.8201 144.112 82.7371C144.112 82.7138 144.103 82.6915 144.086 82.6751C144.07 82.6587 144.047 82.6494 144.024 82.6494H143.595C143.337 82.6494 143.254 82.3911 143.254 82.1328C143.168 81.4474 143.139 80.7562 143.166 80.0661V78.433L143.203 78.4422ZM150.519 77.0583C150.865 77.4043 151.902 78.6083 153.019 79.8262C154.052 80.9472 155.427 82.3219 155.514 82.4095C156.031 82.9262 156.114 83.0139 156.201 83.0139C156.289 83.0139 156.289 82.9262 156.289 82.3219V76.7169C156.289 76.1172 156.289 75.9419 156.63 75.8589H156.889C156.976 75.8589 156.976 75.8589 156.976 75.7712C156.976 75.6836 156.889 75.6836 156.806 75.6836H155.085C154.998 75.6836 154.91 75.6836 154.91 75.7712C154.91 75.7945 154.919 75.8167 154.936 75.8332C154.952 75.8496 154.974 75.8589 154.998 75.8589C155.145 75.853 155.292 75.8814 155.427 75.9419C155.685 76.0295 155.772 76.2002 155.772 76.8922L155.856 81.713C155.514 81.367 154.472 80.2506 153.549 79.2172C152.082 77.6672 150.62 76.1172 150.533 75.9419C150.45 75.8589 150.274 75.6005 150.191 75.6005C150.108 75.6005 150.104 75.6836 150.104 76.1172V81.5377C150.104 82.4003 150.016 82.6587 149.845 82.7463C149.711 82.8065 149.564 82.8349 149.416 82.8293C149.329 82.8293 149.329 82.8293 149.329 82.917C149.329 83.0046 149.416 83.0046 149.499 83.0046H151.483C151.566 83.0046 151.653 83.0046 151.653 82.917C151.653 82.8938 151.644 82.8715 151.628 82.855C151.611 82.8386 151.589 82.8293 151.566 82.8293C151.39 82.8306 151.216 82.8026 151.049 82.7463C150.791 82.6587 150.708 82.4003 150.708 81.6253L150.533 77.0629L150.519 77.0583ZM163.176 80.1583C163.203 80.8485 163.174 81.5397 163.088 82.225C163.088 82.4834 163.005 82.7417 162.83 82.7417H162.544C162.461 82.7417 162.461 82.7417 162.461 82.8247C162.461 82.9078 162.544 82.9124 162.631 82.9124H163.494C163.752 82.9124 164.417 83 165.8 83C166.142 83 166.229 83 166.317 82.7417C166.382 82.4293 166.41 82.1103 166.4 81.7914C166.4 81.7083 166.4 81.6207 166.317 81.6207C166.234 81.6207 166.229 81.6207 166.229 81.7914C166.142 82.225 166.059 82.3957 165.8 82.4834C165.489 82.552 165.169 82.5799 164.85 82.5664C163.928 82.5664 163.817 82.4834 163.734 81.7914V79.3003C163.734 79.2783 163.743 79.2571 163.758 79.2416C163.774 79.226 163.795 79.2172 163.817 79.2172C164.28 79.2056 164.743 79.2334 165.201 79.3003C165.313 79.2908 165.426 79.3199 165.52 79.3828C165.614 79.4456 165.683 79.5386 165.717 79.6463V79.9923C165.717 80.0753 165.717 80.0753 165.805 80.0753C165.893 80.0753 165.888 79.9923 165.888 79.9046V79.3003C165.88 79.1238 165.91 78.9477 165.976 78.7836C165.976 78.7006 165.976 78.7006 165.888 78.7006C165.842 78.7466 165.782 78.7758 165.717 78.7836C165.63 78.8713 165.459 78.8712 165.288 78.9589H163.738C163.651 78.9589 163.651 78.9589 163.651 78.8713V76.2002C163.651 76.1172 163.651 76.1172 163.738 76.1172H165.03C165.547 76.2002 165.63 76.2879 165.717 76.4586C165.787 76.5598 165.818 76.6825 165.805 76.8046C165.805 76.8922 165.805 76.8922 165.888 76.8922L165.976 76.8046C165.976 76.7169 165.976 76.2879 166.063 76.2002C166.074 76.0544 166.101 75.9103 166.146 75.7712V75.6836C166.063 75.6836 166.063 75.6836 165.976 75.7712C165.828 75.7656 165.681 75.7956 165.547 75.8589H162.359C162.272 75.8589 162.189 75.8589 162.189 75.9419L162.272 76.0295H162.618C162.964 76.1172 163.047 76.2879 163.047 76.5462V78.6129L163.134 80.1629L163.176 80.1583ZM173.508 83C174.031 83.0308 174.548 82.8774 174.97 82.5664C175.219 82.3946 175.42 82.163 175.555 81.8929C175.691 81.6228 175.756 81.3229 175.745 81.021C175.745 80.246 175.487 79.637 174.361 78.779L174.103 78.6083C173.245 77.8333 172.987 77.5749 172.987 76.9706C172.985 76.8159 173.016 76.6626 173.077 76.5204C173.138 76.3783 173.228 76.2505 173.341 76.1453C173.455 76.0401 173.589 75.9599 173.735 75.9097C173.881 75.8596 174.037 75.8407 174.191 75.8542C174.419 75.8308 174.649 75.8659 174.86 75.9563C175.07 76.0467 175.254 76.1894 175.395 76.3709C175.482 76.454 175.482 76.7123 175.482 76.8876C175.482 76.9706 175.482 76.9706 175.57 76.9706C175.658 76.9706 175.653 76.8876 175.653 76.7123V75.6789C175.653 75.5959 175.653 75.5959 175.57 75.5959C175.449 75.6 175.329 75.5696 175.224 75.5083C174.943 75.4313 174.652 75.4016 174.361 75.4206C173.157 75.4206 172.383 76.1126 172.383 77.1459C172.383 77.8333 172.641 78.35 173.586 79.2126L174.02 79.554C174.795 80.246 175.136 80.5874 175.136 81.2747C175.137 81.4526 175.102 81.6288 175.031 81.7921C174.961 81.9555 174.858 82.1025 174.727 82.2239C174.597 82.3453 174.444 82.4384 174.276 82.4973C174.108 82.5563 173.93 82.5798 173.753 82.5664C173.148 82.5664 172.461 82.3081 172.369 81.6207V81.2747C172.369 81.1917 172.369 81.1917 172.281 81.1917C172.193 81.1917 172.198 81.2747 172.198 81.3624C172.198 81.5331 172.11 81.879 172.11 82.3957C172.11 82.654 172.11 82.654 172.281 82.7417C172.539 83 172.973 83 173.49 83H173.508ZM201.627 78.4376V76.3709C201.627 76.0249 201.714 75.8542 201.973 75.8542H202.226L202.314 75.7666C202.314 75.6789 202.226 75.6789 202.143 75.6789H200.164C200.077 75.6789 199.989 75.6789 199.989 75.7666L200.077 75.8542H200.423C200.486 75.8582 200.547 75.8749 200.603 75.9034C200.659 75.9319 200.709 75.9716 200.749 76.0199C200.789 76.0683 200.819 76.1244 200.836 76.1848C200.854 76.2451 200.859 76.3085 200.852 76.3709V78.6083C200.852 78.696 200.852 78.696 200.764 78.696H196.719C196.696 78.696 196.673 78.6867 196.657 78.6703C196.64 78.6538 196.631 78.6316 196.631 78.6083V76.3709C196.631 76.0249 196.719 75.8542 196.977 75.8542H197.235L197.323 75.7666C197.323 75.6789 197.235 75.6789 197.148 75.6789H195.169C195.081 75.6789 194.998 75.6789 194.998 75.7666L195.081 75.8542H195.427C195.49 75.8582 195.551 75.8749 195.607 75.9034C195.663 75.9319 195.713 75.9716 195.753 76.0199C195.793 76.0683 195.823 76.1244 195.841 76.1848C195.859 76.2451 195.864 76.3085 195.856 76.3709V80.0614C195.882 80.7515 195.855 81.4425 195.773 82.1282C195.773 82.3865 195.686 82.6448 195.515 82.6448H195.257C195.169 82.6448 195.169 82.6448 195.169 82.7325C195.169 82.8201 195.257 82.8155 195.34 82.8155H197.494C197.581 82.8155 197.664 82.8155 197.664 82.7325C197.664 82.7325 197.664 82.6448 197.581 82.6448H197.139C196.88 82.6448 196.797 82.3865 196.797 82.1282C196.711 81.4428 196.682 80.7516 196.71 80.0614V79.0235C196.71 78.9405 196.71 78.9405 196.797 78.9405H200.843L200.93 79.0235V80.0568C200.958 80.747 200.928 81.4382 200.843 82.1235C200.843 82.3819 200.755 82.6402 200.584 82.6402H200.326C200.238 82.6402 200.238 82.6402 200.238 82.7279C200.238 82.8155 200.326 82.8109 200.414 82.8109H202.563C202.651 82.8109 202.734 82.8109 202.734 82.7279C202.734 82.7279 202.734 82.6402 202.651 82.6402H202.212C201.954 82.6402 201.871 82.3819 201.871 82.1235C201.785 81.4382 201.756 80.747 201.783 80.0568L201.613 78.4238L201.627 78.4376ZM208.772 80.1583C208.796 80.8581 208.762 81.5586 208.67 82.2527C208.67 82.511 208.587 82.7694 208.412 82.7694H208.154C208.07 82.7694 208.07 82.7694 208.07 82.8524C208.07 82.9354 208.153 82.9401 208.241 82.9401H209.131C209.39 82.9401 210.054 83.0277 211.438 83.0277C211.779 83.0277 211.867 83.0277 211.954 82.7694C212.019 82.457 212.047 82.138 212.037 81.8191C212.037 81.736 212.037 81.6484 211.954 81.6484C211.871 81.6484 211.867 81.6484 211.867 81.8191C211.779 82.2527 211.696 82.4234 211.438 82.511C211.126 82.5797 210.806 82.6076 210.487 82.5941C209.565 82.5941 209.454 82.511 209.371 81.8191V79.3003C209.371 79.2783 209.38 79.2571 209.396 79.2416C209.411 79.226 209.432 79.2172 209.454 79.2172C209.917 79.2056 210.38 79.2334 210.838 79.3003C210.951 79.2908 211.063 79.3199 211.157 79.3828C211.251 79.4456 211.321 79.5386 211.355 79.6463V79.9923C211.355 80.0753 211.355 80.0753 211.442 80.0753C211.53 80.0753 211.525 79.9923 211.525 79.9046V79.3003C211.518 79.1238 211.548 78.9477 211.613 78.7836C211.613 78.7723 211.611 78.7611 211.606 78.7507C211.602 78.7403 211.595 78.731 211.587 78.7232C211.579 78.7154 211.569 78.7094 211.559 78.7055C211.548 78.7016 211.537 78.6999 211.525 78.7006C211.479 78.7466 211.419 78.7758 211.355 78.7836C211.267 78.8713 211.096 78.8712 210.926 78.9589H209.376C209.288 78.9589 209.288 78.9589 209.288 78.8713V76.2002C209.288 76.1172 209.288 76.1172 209.376 76.1172H210.667C211.184 76.2002 211.267 76.2879 211.355 76.4586C211.424 76.5598 211.455 76.6825 211.442 76.8046C211.442 76.8922 211.442 76.8922 211.525 76.8922L211.613 76.8046C211.613 76.7169 211.613 76.2879 211.701 76.2002C211.711 76.0544 211.739 75.9103 211.784 75.7712V75.6836C211.701 75.6836 211.701 75.6836 211.613 75.7712C211.465 75.7656 211.318 75.7956 211.184 75.8589H207.997C207.909 75.8589 207.826 75.8589 207.826 75.9419L207.909 76.0295H208.255C208.601 76.1172 208.684 76.2879 208.684 76.5462V78.6129L208.772 80.1629V80.1583ZM217.637 81.879C217.466 82.3957 217.296 82.7417 216.862 82.7417H216.604C216.521 82.7417 216.521 82.7417 216.521 82.8247C216.521 82.9078 216.604 82.9124 216.691 82.9124H218.5C218.587 82.9124 218.67 82.9124 218.67 82.8247C218.67 82.8027 218.662 82.7816 218.646 82.766C218.63 82.7505 218.609 82.7417 218.587 82.7417H218.5C218.329 82.7417 218.154 82.654 218.154 82.4834C218.17 82.2721 218.23 82.0665 218.329 81.879L218.929 80.1583C218.929 80.1351 218.938 80.1128 218.954 80.0963C218.971 80.0799 218.993 80.0707 219.016 80.0707H221.083C221.17 80.0707 221.17 80.0707 221.17 80.1583L222.028 82.4649C222.116 82.6356 222.028 82.7232 221.945 82.7232L221.858 82.8063C221.858 82.8939 221.945 82.8939 222.116 82.8939H223.578C223.666 82.8939 223.753 82.8939 223.753 82.8063C223.753 82.7186 223.753 82.7232 223.666 82.7232C223.544 82.736 223.421 82.705 223.32 82.6356C223.149 82.5479 222.803 82.4649 222.462 81.6022C221.858 80.1399 220.395 76.2648 220.22 75.8358C220.188 75.7097 220.13 75.5918 220.05 75.4898C219.962 75.4898 219.962 75.5775 219.879 75.8358L217.637 81.8606V81.879ZM218.929 79.7293L219.704 77.0583C219.791 76.8876 219.791 76.8876 219.879 77.0583L220.801 79.6416V79.7293H218.929ZM229.69 78.4376V76.3709C229.69 76.0249 229.777 75.8542 230.036 75.8542H230.382L230.465 75.7666C230.465 75.6789 230.382 75.6789 230.294 75.6789H228.228C228.14 75.6789 228.057 75.6789 228.057 75.7666L228.14 75.8542H228.486C228.549 75.8582 228.61 75.8749 228.666 75.9034C228.722 75.9319 228.772 75.9716 228.812 76.0199C228.852 76.0683 228.882 76.1244 228.9 76.1848C228.917 76.2451 228.923 76.3085 228.915 76.3709V80.0614C228.941 80.7515 228.913 81.4425 228.832 82.1282C228.832 82.3865 228.744 82.6448 228.574 82.6448H228.315C228.228 82.6448 228.228 82.6448 228.228 82.7325C228.228 82.8201 228.315 82.8155 228.398 82.8155H229.349C229.865 82.8155 230.552 82.9032 231.932 82.9032C232.448 82.9032 232.448 82.9032 232.531 82.6448C232.617 82.3352 232.675 82.0188 232.707 81.6991C232.707 81.6115 232.707 81.5238 232.619 81.5238C232.596 81.5238 232.573 81.5331 232.557 81.5495C232.54 81.5659 232.531 81.5882 232.531 81.6115C232.522 81.8378 232.43 82.0529 232.273 82.2158C231.947 82.4409 231.548 82.5333 231.157 82.4741C230.382 82.4741 230.123 82.3865 230.036 82.2158C229.865 82.0405 229.865 81.4408 229.865 80.0614L229.69 78.4284V78.4376ZM239.764 76.131H240.959C241.909 76.131 242.079 76.3894 242.167 76.6477V76.7169C242.167 76.8922 242.167 76.8922 242.25 76.8922C242.262 76.8922 242.273 76.8899 242.284 76.8855C242.294 76.8811 242.304 76.8747 242.312 76.8665C242.32 76.8584 242.327 76.8487 242.331 76.8381C242.335 76.8275 242.338 76.8161 242.338 76.8046V75.7943C242.338 75.7066 242.338 75.7066 242.25 75.7066C242.159 75.7179 242.071 75.7477 241.992 75.7943C241.821 75.7943 241.65 75.8819 241.304 75.8819H237.776C237.515 75.8876 237.254 75.8581 237.001 75.7943C236.855 75.784 236.71 75.7545 236.572 75.7066C236.524 75.7538 236.493 75.8154 236.484 75.8819C236.484 75.965 236.314 76.74 236.314 76.8276C236.314 76.9153 236.314 76.9153 236.397 76.9153C236.42 76.9153 236.442 76.906 236.459 76.8896C236.475 76.8732 236.484 76.8509 236.484 76.8276C236.484 76.74 236.572 76.6569 236.655 76.5693C236.83 76.3109 237.001 76.3109 237.605 76.2233H238.989V80.2737C239.016 80.9623 238.987 81.652 238.901 82.3357C238.901 82.5941 238.818 82.8524 238.643 82.8524H238.385C238.302 82.8524 238.302 82.8524 238.302 82.9401C238.302 83.0277 238.385 83.0277 238.472 83.0277H240.626C240.709 83.0277 240.797 83.0277 240.797 82.9401C240.797 82.9168 240.788 82.8945 240.771 82.8781C240.755 82.8616 240.733 82.8524 240.709 82.8524H240.28C240.022 82.8524 239.935 82.5941 239.935 82.3357C239.853 81.6516 239.825 80.9621 239.851 80.2737L239.764 76.1218V76.131ZM253.883 78.4376V76.3709C253.883 76.0249 253.971 75.8542 254.229 75.8542H254.487L254.57 75.7666C254.57 75.6789 254.487 75.6789 254.4 75.6789H252.421C252.333 75.6789 252.246 75.6789 252.246 75.7666L252.333 75.8542H252.679C252.742 75.8582 252.803 75.8749 252.859 75.9034C252.915 75.9319 252.965 75.9716 253.005 76.0199C253.045 76.0683 253.075 76.1244 253.093 76.1848C253.111 76.2451 253.116 76.3085 253.108 76.3709V78.6083C253.108 78.696 253.108 78.696 253.021 78.696H248.975C248.964 78.696 248.953 78.6937 248.942 78.6892C248.932 78.6848 248.923 78.6782 248.915 78.67C248.907 78.6618 248.901 78.6521 248.897 78.6415C248.893 78.6309 248.892 78.6196 248.892 78.6083V76.3709C248.892 76.0249 248.975 75.8542 249.234 75.8542H249.492L249.58 75.7666C249.58 75.6789 249.492 75.6789 249.404 75.6789H247.416C247.333 75.6789 247.246 75.6789 247.246 75.7666L247.333 75.8542H247.675C248.02 75.9373 248.108 76.1126 248.108 76.3709V80.0614C248.136 80.7516 248.106 81.4428 248.02 82.1282C248.02 82.3865 247.933 82.6448 247.762 82.6448H247.504C247.416 82.6448 247.416 82.6448 247.416 82.7325C247.416 82.8201 247.504 82.8155 247.591 82.8155H249.741C249.829 82.8155 249.912 82.8155 249.912 82.7325C249.912 82.7325 249.912 82.6448 249.829 82.6448H249.395C249.141 82.6448 249.054 82.3865 249.054 82.1282C248.968 81.4428 248.938 80.7516 248.966 80.0614V79.0235C248.966 78.9405 248.966 78.9405 249.054 78.9405H253.099L253.187 79.0235V80.0568C253.214 80.747 253.185 81.4382 253.099 82.1235C253.099 82.3819 253.011 82.6402 252.841 82.6402H252.582C252.495 82.6402 252.495 82.6402 252.495 82.7279C252.495 82.8155 252.582 82.8109 252.67 82.8109H254.82C254.907 82.8109 254.995 82.8109 254.995 82.7279C254.995 82.7046 254.986 82.6823 254.969 82.6659C254.953 82.6494 254.93 82.6402 254.907 82.6402H254.478C254.22 82.6402 254.132 82.3819 254.132 82.1235C254.046 81.4382 254.017 80.747 254.045 80.0568L253.874 78.4238L253.883 78.4376Z" fill="black"/>
</g>
<defs>
<linearGradient id="paint0_linear_83_112" x1="111.771" y1="29.2246" x2="144.428" y2="29.2246" gradientUnits="userSpaceOnUse">
<stop stop-color="white"/>
<stop offset="0.28" stop-color="white"/>
<stop offset="1" stop-color="#464747"/>
</linearGradient>
<linearGradient id="paint1_linear_83_112" x1="111.256" y1="20.2133" x2="126.34" y2="20.2133" gradientUnits="userSpaceOnUse">
<stop stop-color="#464747"/>
<stop offset="0.04" stop-color="#464747"/>
<stop offset="0.96" stop-color="#B3B0AF"/>
<stop offset="1" stop-color="#B3B0AF"/>
</linearGradient>
<linearGradient id="paint2_linear_83_112" x1="126.34" y1="19.5275" x2="141.425" y2="19.5275" gradientUnits="userSpaceOnUse">
<stop stop-color="#C8C5C4"/>
<stop offset="0.33" stop-color="#C8C5C4"/>
<stop offset="0.78" stop-color="white"/>
<stop offset="1" stop-color="white"/>
</linearGradient>
<radialGradient id="paint3_radial_83_112" cx="0" cy="0" r="1" gradientUnits="userSpaceOnUse" gradientTransform="translate(129.256 16.0686) scale(9.03657 9.03764)">
<stop stop-color="#464747"/>
<stop offset="0.01" stop-color="#464747"/>
<stop offset="1" stop-color="white"/>
</radialGradient>
<clipPath id="clip0_83_112">
<rect width="255" height="83" fill="white"/>
</clipPath>
</defs>
</svg>
