<svg width="134" height="54" viewBox="0 0 134 54" fill="none" xmlns="http://www.w3.org/2000/svg">
<g clip-path="url(#clip0_83_107)">
<path d="M0.0341797 0.0233881H2.08508C20.4026 0.0233881 38.7083 -0.0350029 57.0141 0.0233881C62.2975 0.130467 67.3993 1.96459 71.5345 5.24354C76.4473 8.84888 79.9452 14.0482 81.4257 19.9464C81.4257 20.1917 81.7187 20.3902 82 20.7872L87.8597 11.3629C89.9457 7.96459 91.9966 4.54288 94.153 1.17955C94.3458 0.929401 94.5875 0.720753 94.8634 0.566206C95.1394 0.41166 95.4439 0.314395 95.7586 0.28031C99.9541 0.202455 104.15 0.202455 108.345 0.28031C108.689 0.319876 109.021 0.432023 109.318 0.609223C109.615 0.786422 109.871 1.02462 110.068 1.308C115.928 10.8608 121.787 20.4486 127.565 30.013C129.511 33.2245 131.479 36.4244 133.507 39.5892C133.83 39.9852 134.015 40.476 134.032 40.9864C134.049 41.4969 133.897 41.9988 133.601 42.4153C131.432 45.9187 129.464 49.4222 127.284 52.9257C127.007 53.2371 126.668 53.4873 126.289 53.6603C125.909 53.8333 125.498 53.9251 125.081 53.93C121.284 54.0351 117.463 53.93 113.654 53.93H94.7625C92.8405 53.93 92.8404 53.93 92.8404 51.9797C92.8933 51.0072 92.8933 50.0326 92.8404 49.0602C92.7233 47.8924 93.2155 47.5303 94.3288 47.542C97.4579 47.542 100.575 47.542 103.704 47.542H127.366C128.022 47.542 128.69 47.4603 129.827 47.3902L102.04 0.537232C100.634 2.77945 99.4033 4.70637 98.2196 6.65663C94.1061 13.5117 90.016 20.3551 85.9025 27.2219C83.125 31.8932 80.5584 36.7163 77.6989 41.3058C74.9347 45.6365 71.0033 49.1047 66.3544 51.3141C62.5861 53.138 58.4366 54.0426 54.2483 53.9533C48.2948 53.9533 42.3413 53.9533 36.3762 53.9533C34.9581 53.9533 34.4659 53.568 34.4776 52.0498C34.5596 42.6138 34.4776 33.1778 34.4776 23.7302V21.9784C36.5402 21.9784 38.4388 21.92 40.3373 22.0368C40.6186 22.0368 41.0874 22.8426 41.0991 23.2864C41.1577 26.3928 41.0991 29.5109 41.0991 32.6289C41.0991 37.0083 41.0991 41.3876 41.0991 45.7552C41.0991 47.0632 41.4389 47.612 42.8218 47.5653C47.744 47.4369 52.7013 47.7172 57.5766 47.2267C64.7606 46.5026 70.0344 42.5554 73.5034 36.2959C75.6002 32.309 76.2973 27.7374 75.4839 23.3098C74.7699 18.6348 72.3648 14.3815 68.7218 11.3513C64.6677 7.90018 59.4593 6.09509 54.1311 6.29461C38.8959 6.41139 23.7661 6.29461 8.57769 6.29461H6.55025V51.8396C6.55025 53.8249 6.49166 53.8833 4.49935 53.895C3.37949 53.971 2.25574 53.971 1.13588 53.895C0.749139 53.895 0.327246 53.276 0.116296 52.8556C0.0331204 52.4275 0.0331204 51.9874 0.116296 51.5593V0.0233881H0.0341797Z" fill="black"/>
<path d="M32.1462 28.5532H24.9622C19.9815 28.5532 15.0007 28.5532 10.02 28.5532C8.70738 28.5532 8.34402 28.1327 8.35574 26.9065C8.35574 21.3594 8.35574 15.8123 8.35574 10.2651C8.35574 8.91044 8.84801 8.52503 10.1723 8.52503C24.6224 8.52503 39.0724 8.61846 53.5342 8.52503C57.5198 8.32582 61.4763 9.29628 64.9137 11.3161C68.7082 13.6308 71.5219 17.2487 72.8244 21.4878C73.7597 24.3609 73.9374 27.4255 73.3401 30.3867C72.5227 34.6771 70.1982 38.537 66.7834 41.2742C63.3686 44.0115 59.0869 45.4469 54.7062 45.3231C51.4833 45.2413 48.2605 45.3231 45.0376 45.3231C43.8657 45.3231 43.3617 44.9844 43.3734 43.7582C43.3734 36.9849 43.3734 30.2193 43.3734 23.4615C43.3734 22.2937 43.8306 21.9199 44.9322 21.9667C46.0338 22.0134 47.4753 22.025 48.741 21.9667C49.8309 21.9083 50.1707 22.317 50.159 23.403C50.159 27.9342 50.159 32.4536 50.159 36.9731C50.159 38.3628 50.6043 38.7482 51.9052 38.6548C53.2716 38.5846 54.6406 38.5846 56.007 38.6548C60.6948 38.8299 65.3005 34.3222 66.5545 30.1765C67.2895 27.3593 66.9837 24.3727 65.6928 21.7615C64.402 19.1504 62.2122 17.0886 59.5228 15.9524C57.9813 15.385 56.3495 15.1002 54.7062 15.1116C42.0609 15.0415 29.4156 15.1116 16.7704 15.1116C14.9304 15.1116 14.8014 15.2517 14.7897 17.1319C14.7897 18.1012 14.7897 19.0705 14.7897 20.0514C14.7897 21.9083 14.9539 22.0718 16.7821 22.0718C21.3175 22.0718 25.8646 22.0718 30.4001 22.0718C31.7244 22.0718 32.2635 22.4455 32.1932 23.8001C32.076 25.2599 32.1462 26.8482 32.1462 28.5532Z" fill="black"/>
<path d="M125.937 45.2296C125.093 45.2296 124.612 45.3114 124.132 45.3114C114.264 45.3114 104.408 45.3114 94.5403 45.3114C93.1222 45.3114 92.6183 44.9144 92.7589 43.5013C92.8527 42.4835 92.8527 41.4594 92.7589 40.4416C92.6417 39.2738 93.1457 38.9585 94.259 38.9585C100.119 38.9585 106.072 38.9585 111.979 38.9585C112.553 38.9585 113.151 38.9585 113.983 38.8767C109.951 32.1384 106.037 25.622 101.959 18.8253C100.283 21.7214 98.7709 24.314 97.2709 26.9299C92.3956 35.4939 87.5203 44.0774 82.645 52.6803C82.4556 53.0948 82.1422 53.4408 81.7478 53.6708C81.3533 53.9007 80.8971 54.0035 80.4418 53.965C78.0979 53.965 75.7541 53.965 73.4805 53.965L73.1758 53.5095C82.692 37.6389 92.2082 21.7799 101.924 5.55884L125.937 45.2296Z" fill="black"/>
<path d="M20.3328 31.1224C23.8486 31.1224 27.259 31.1224 30.7279 31.1224C31.7475 31.1224 32.1577 31.4844 32.146 32.4654C32.146 33.7733 32.146 35.093 32.146 36.4009C32.146 37.4637 31.6888 37.8257 30.6224 37.814C25.9346 37.814 21.2468 37.814 16.559 37.814C15.0941 37.814 14.7075 38.3395 14.7309 39.6825C14.7309 43.91 14.7309 48.1492 14.7309 52.3767C14.7309 53.6263 14.3675 54.1635 13.0667 54.0701C11.7658 53.9766 10.7228 54.0701 9.55085 54.0701C8.70705 54.0701 8.37891 53.6614 8.37891 52.8089C8.37891 46.0433 8.37891 39.2855 8.37891 32.5355C8.37891 31.5194 8.81249 31.1808 9.80864 31.1925C13.301 31.1458 16.817 31.1224 20.3328 31.1224Z" fill="black"/>
</g>
<defs>
<clipPath id="clip0_83_107">
<rect width="134" height="54" fill="white"/>
</clipPath>
</defs>
</svg>
