<svg width="105" height="82" viewBox="0 0 105 82" fill="none" xmlns="http://www.w3.org/2000/svg">
<path d="M51.1079 21.273L17.5014 49.07V79.0711C17.5014 79.8479 17.8087 80.5929 18.3556 81.1422C18.9025 81.6914 19.6443 82 20.4178 82L40.8439 81.9469C41.6148 81.943 42.3529 81.6328 42.8967 81.0839C43.4405 80.535 43.7457 79.7923 43.7457 79.018V61.4977C43.7457 60.7209 44.053 59.9759 44.5999 59.4267C45.1469 58.8774 45.8887 58.5688 46.6622 58.5688H58.3279C59.1014 58.5688 59.8432 58.8774 60.3902 59.4267C60.9371 59.9759 61.2444 60.7209 61.2444 61.4977V79.0052C61.2432 79.3906 61.3177 79.7724 61.4637 80.1289C61.6098 80.4853 61.8244 80.8092 62.0953 81.0822C62.3663 81.3551 62.6882 81.5717 63.0426 81.7194C63.3971 81.8672 63.7771 81.9433 64.1608 81.9433L84.5795 82C85.353 82 86.0948 81.6914 86.6418 81.1422C87.1887 80.5929 87.496 79.8479 87.496 79.0711V49.0499L53.8968 21.273C53.5018 20.9532 53.0097 20.7788 52.5023 20.7788C51.995 20.7788 51.5029 20.9532 51.1079 21.273ZM104.193 40.1662L88.9542 27.5518V2.19667C88.9542 1.61408 88.7238 1.05535 88.3136 0.643391C87.9034 0.231435 87.347 0 86.7669 0H76.5593C75.9792 0 75.4229 0.231435 75.0126 0.643391C74.6024 1.05535 74.372 1.61408 74.372 2.19667V15.4884L58.0527 2.00446C56.4866 0.71022 54.5214 0.00258722 52.4932 0.00258722C50.465 0.00258722 48.4999 0.71022 46.9338 2.00446L0.793817 40.1662C0.572327 40.35 0.389079 40.5759 0.254543 40.8309C0.120008 41.0859 0.0368215 41.365 0.00973755 41.6523C-0.0173464 41.9396 0.0122029 42.2295 0.0966969 42.5053C0.181191 42.7811 0.318974 43.0375 0.502173 43.2598L5.15025 48.9346C5.33295 49.1577 5.55767 49.3424 5.81155 49.4782C6.06543 49.6139 6.34348 49.6981 6.62978 49.7258C6.91609 49.7535 7.20502 49.7243 7.48005 49.6397C7.75508 49.5551 8.0108 49.4169 8.23257 49.233L51.1079 13.7677C51.5029 13.4479 51.995 13.2735 52.5023 13.2735C53.0097 13.2735 53.5018 13.4479 53.8968 13.7677L96.7739 49.233C96.9953 49.4169 97.2506 49.5553 97.5253 49.6402C97.7999 49.725 98.0885 49.7547 98.3746 49.7275C98.6607 49.7003 98.9386 49.6167 99.1925 49.4816C99.4464 49.3465 99.6713 49.1625 99.8544 48.9401L104.502 43.2653C104.685 43.0417 104.823 42.784 104.906 42.507C104.99 42.2299 105.018 41.9391 104.989 41.6511C104.96 41.3631 104.875 41.0836 104.738 40.8288C104.602 40.574 104.416 40.3488 104.193 40.1662Z" fill="#DBDCE0"/>
</svg>
