<svg width="109" height="82" viewBox="0 0 109 82" fill="none" xmlns="http://www.w3.org/2000/svg">
<path d="M106.935 27.0771C107.765 26.4151 109 27.0344 109 28.0807V71.75C109 77.4089 104.423 82 98.7812 82H10.2188C4.57715 82 0 77.4089 0 71.75V28.1021C0 27.0344 1.21348 26.4365 2.06504 27.0984C6.83379 30.8141 13.1566 35.5333 34.8715 51.3568C39.3635 54.6453 46.9424 61.5641 54.5 61.5214C62.1002 61.5854 69.8281 54.5172 74.1498 51.3568C95.8646 35.5333 102.166 30.7927 106.935 27.0771ZM54.5 54.6667C59.4391 54.7521 66.5496 48.4313 70.1262 45.826C98.3768 25.262 100.527 23.4682 107.041 18.3432C108.276 17.3823 109 15.8875 109 14.3073V10.25C109 4.59115 104.423 0 98.7812 0H10.2188C4.57715 0 0 4.59115 0 10.25V14.3073C0 15.8875 0.723828 17.3609 1.95859 18.3432C8.47305 23.4469 10.6232 25.262 38.8738 45.826C42.4504 48.4313 49.5609 54.7521 54.5 54.6667Z" fill="#DBDCE0"/>
</svg>
