<svg width="231" height="65" viewBox="0 0 231 65" fill="none" xmlns="http://www.w3.org/2000/svg">
<g clip-path="url(#clip0_83_66)">
<path d="M25.0802 64.7701C23.6802 63.9801 22.5902 62.98 22.7102 61.2C22.7604 60.4092 23.0894 59.6617 23.6387 59.0905C24.1879 58.5193 24.9219 58.1612 25.7102 58.08C26.4581 58.0289 27.2023 58.2228 27.8302 58.6324C28.4581 59.042 28.9355 59.645 29.1902 60.3501C29.43 61.1021 29.3982 61.9145 29.1003 62.6455C28.8024 63.3766 28.2574 63.9798 27.5602 64.3501C27.3102 64.4901 27.0502 64.61 26.8002 64.74L25.0802 64.7701Z" fill="black"/>
<path d="M116.98 54.1399H110.82V24.5899H110.62C106.32 34.5899 102.01 44.5899 97.5402 54.9099L84.6602 24.7299H84.4902V54.1299H78.4902V11.0299C80.4902 11.0299 82.6102 11.0299 84.6702 11.0299C84.9602 11.0299 85.3302 11.5799 85.4902 11.9499C89.4902 21.4899 93.4902 31.0399 97.4902 40.5999C97.5402 40.7199 97.6102 40.8199 97.7602 41.1199C98.4802 39.3099 99.1302 37.6399 99.8202 35.9699C103.154 27.9299 106.487 19.8966 109.82 11.8699C109.912 11.6617 110.049 11.477 110.222 11.3297C110.396 11.1825 110.6 11.0766 110.82 11.0199C112.82 10.9399 114.89 11.0199 117.02 11.0199L116.98 54.1399Z" fill="black"/>
<path d="M181.08 36.6C184 42.42 186.89 48.2 189.89 54.19C187.4 54.19 185.13 54.19 182.89 54.14C182.55 54.14 182.13 53.57 181.89 53.14C179.35 48.16 176.84 43.1533 174.36 38.12C174.239 37.7764 174.005 37.4839 173.696 37.2897C173.388 37.0956 173.023 37.0111 172.66 37.05C169.84 37.11 167.02 37.05 164.07 37.05V54.05H157.78V11.05C158.08 11.05 158.4 10.97 158.71 10.97C164.92 10.97 171.12 10.89 177.33 10.97C181.56 11.04 185.4 12.26 188.11 15.78C189.375 17.4487 190.227 19.3932 190.595 21.4543C190.964 23.5154 190.84 25.6346 190.232 27.6383C189.624 29.642 188.55 31.4733 187.099 32.9823C185.647 34.4913 183.859 35.6351 181.88 36.32C181.64 36.37 181.42 36.47 181.08 36.6ZM164.14 30.98C166.86 30.98 169.44 30.98 172.02 30.98C174.226 31.0288 176.433 30.952 178.63 30.75C179.829 30.6512 180.966 30.1736 181.875 29.3862C182.785 28.5988 183.421 27.5425 183.69 26.37C185.12 21.21 182.15 17.2 176.83 17.13C172.95 17.08 169.08 17.13 165.21 17.13C164.85 17.13 164.49 17.19 164.14 17.22V30.98Z" fill="black"/>
<path d="M121.02 11.0601H127.32C127.32 11.5501 127.38 11.9901 127.38 12.4301C127.38 17.4301 127.38 22.3501 127.38 27.3101C127.38 28.0301 127.45 28.4801 128.38 28.4701C134.5 28.4701 140.63 28.4701 146.75 28.4701C146.91 28.4701 147.07 28.4101 147.35 28.3701V11.0701H153.75V54.0701H147.39V34.9701H127.39V54.0601H120.99L121.02 11.0601Z" fill="black"/>
<path d="M214.48 11L230.26 54.18C227.92 54.18 225.78 54.18 223.65 54.18C223.44 54.18 223.16 53.69 223.04 53.38C222.04 50.61 221.04 47.83 220.04 45.04C219.977 44.6992 219.785 44.3959 219.504 44.193C219.222 43.99 218.874 43.903 218.53 43.95C213.53 44 208.46 43.95 203.42 43.95C203.077 43.8981 202.728 43.9833 202.447 44.1873C202.166 44.3913 201.977 44.6976 201.92 45.04C201 47.8 199.98 50.53 199.07 53.29C199.051 53.4439 199.001 53.5924 198.923 53.7265C198.845 53.8607 198.741 53.9779 198.617 54.0711C198.493 54.1643 198.351 54.2317 198.201 54.2693C198.05 54.3069 197.894 54.314 197.74 54.29C195.88 54.24 194.03 54.29 191.98 54.29L194.6 46.97C198.78 35.39 202.954 23.8134 207.12 12.24C207.155 12.0519 207.227 11.8725 207.331 11.7122C207.436 11.552 207.571 11.4139 207.729 11.3061C207.887 11.1983 208.065 11.1228 208.252 11.084C208.439 11.0452 208.633 11.0438 208.82 11.08C210.68 11.06 212.51 11 214.48 11ZM210.97 18.68C208.77 25.21 206.62 31.57 204.44 38.02H217.61C215.39 31.55 213.21 25.19 210.97 18.68Z" fill="black"/>
<path d="M36.3599 32.7099C36.3695 33.2002 36.2797 33.6872 36.0959 34.1418C35.9121 34.5964 35.6381 35.009 35.2904 35.3548C34.9428 35.7006 34.5287 35.9723 34.0731 36.1536C33.6176 36.335 33.13 36.4222 32.6399 36.4099C31.6708 36.4073 30.7418 36.0226 30.0547 35.3392C29.3676 34.6558 28.9778 33.729 28.9699 32.7599C28.9578 32.2701 29.0442 31.7828 29.224 31.327C29.4038 30.8712 29.6733 30.4561 30.0165 30.1064C30.3597 29.7566 30.7696 29.4794 31.222 29.291C31.6743 29.1027 32.1599 29.0071 32.6499 29.0099C33.1392 28.999 33.6257 29.0872 34.0801 29.2692C34.5344 29.4512 34.9473 29.7231 35.2939 30.0688C35.6405 30.4144 35.9135 30.8266 36.0967 31.2804C36.2799 31.7343 36.3694 32.2206 36.3599 32.7099V32.7099Z" fill="black"/>
<path d="M65.3201 29.14C65.3097 30.0216 64.9541 30.8641 64.3297 31.4866C63.7053 32.1092 62.8618 32.4622 61.9801 32.47C61.0988 32.4498 60.2588 32.0921 59.6335 31.4706C59.0083 30.8491 58.6455 30.0112 58.6201 29.13C58.6226 28.681 58.7146 28.237 58.8906 27.8239C59.0667 27.4109 59.3232 27.037 59.6453 26.7242C59.9675 26.4114 60.3487 26.1659 60.7667 26.0021C61.1847 25.8382 61.6312 25.7594 62.0801 25.77C62.9554 25.791 63.787 26.1569 64.3938 26.7881C65.0006 27.4192 65.3336 28.2645 65.3201 29.14V29.14Z" fill="black"/>
<path d="M36.0203 3.32006C36.0257 3.75622 35.9438 4.18906 35.7793 4.59307C35.6149 4.99708 35.3713 5.3641 35.0628 5.67254C34.7544 5.98097 34.3874 6.22459 33.9833 6.38903C33.5793 6.55347 33.1465 6.63542 32.7103 6.63006C32.2749 6.64336 31.8413 6.57007 31.4344 6.41445C31.0276 6.25883 30.6557 6.02398 30.3403 5.7235C30.025 5.42302 29.7724 5.06293 29.5973 4.66408C29.4222 4.26523 29.3281 3.83557 29.3203 3.40004C29.3094 2.9545 29.389 2.51138 29.5545 2.09755C29.72 1.68373 29.9678 1.30781 30.283 0.992666C30.5981 0.677519 30.974 0.429716 31.3878 0.264242C31.8017 0.0987673 32.2448 0.0190774 32.6903 0.0300498C33.1261 0.023404 33.5588 0.10368 33.9632 0.266164C34.3676 0.428649 34.7356 0.670097 35.0456 0.9764C35.3556 1.2827 35.6015 1.64773 35.7689 2.05013C35.9362 2.45253 36.0217 2.88424 36.0203 3.32006V3.32006Z" fill="black"/>
<path d="M52.5198 51.2599C52.9558 51.2651 53.3864 51.3566 53.7867 51.5292C54.1871 51.7017 54.5493 51.9519 54.8524 52.2653C55.1556 52.5786 55.3936 52.9489 55.5528 53.3548C55.7119 53.7607 55.7891 54.1941 55.7798 54.6299C55.7617 55.509 55.4016 56.3464 54.7762 56.9644C54.1507 57.5824 53.3091 57.9323 52.4298 57.9399C51.9825 57.9335 51.5409 57.8383 51.1307 57.6599C50.7204 57.4815 50.3497 57.2234 50.0399 56.9006C49.7302 56.5778 49.4876 56.1968 49.3262 55.7795C49.1648 55.3623 49.0879 54.9172 49.0998 54.47C49.1101 54.0335 49.2071 53.6035 49.3853 53.2049C49.5634 52.8063 49.8191 52.4472 50.1374 52.1484C50.4557 51.8497 50.8303 51.6173 51.2393 51.4647C51.6483 51.3122 52.0836 51.2426 52.5198 51.2599V51.2599Z" fill="black"/>
<path d="M3.34955 26.3199C3.78798 26.3209 4.2217 26.4103 4.62477 26.5828C5.02784 26.7553 5.39197 27.0074 5.69539 27.3238C5.9988 27.6403 6.23525 28.0147 6.39061 28.4247C6.54596 28.8347 6.61703 29.2718 6.59955 29.7099C6.59826 30.1485 6.51009 30.5824 6.34016 30.9867C6.17023 31.3909 5.92189 31.7575 5.60948 32.0653C5.29707 32.373 4.92679 32.6158 4.52002 32.7797C4.11324 32.9435 3.67805 33.0252 3.23955 33.0199C2.79974 33.0163 2.36516 32.9241 1.96184 32.7486C1.55851 32.5732 1.19471 32.3182 0.892226 31.9989C0.589739 31.6797 0.35477 31.3026 0.201384 30.8904C0.0479988 30.4782 -0.0206488 30.0393 -0.000458801 29.5999C-0.00470875 29.162 0.0795712 28.7278 0.247313 28.3234C0.415056 27.9189 0.662796 27.5525 0.975676 27.2461C1.28856 26.9398 1.66012 26.6998 2.06805 26.5407C2.47598 26.3815 2.91187 26.3064 3.34955 26.3199V26.3199Z" fill="black"/>
<path d="M16.6097 54.88C16.6231 55.3177 16.5484 55.7537 16.3901 56.1621C16.2318 56.5704 15.993 56.9428 15.688 57.2571C15.3831 57.5714 15.018 57.8213 14.6146 57.9918C14.2112 58.1624 13.7777 58.2502 13.3397 58.25C12.9015 58.2633 12.465 58.1887 12.0561 58.0305C11.6472 57.8723 11.2742 57.6337 10.9591 57.3288C10.644 57.024 10.3932 56.6591 10.2215 56.2556C10.0499 55.8522 9.96086 55.4184 9.95973 54.9799C9.95045 54.541 10.0281 54.1045 10.1881 53.6956C10.3482 53.2868 10.5876 52.9136 10.8924 52.5976C11.1973 52.2816 11.5616 52.029 11.9644 51.8544C12.3673 51.6797 12.8007 51.5865 13.2397 51.58C13.6782 51.5734 14.1137 51.6537 14.521 51.8163C14.9282 51.9789 15.2993 52.2206 15.6126 52.5275C15.9259 52.8343 16.1754 53.2002 16.3465 53.604C16.5177 54.0077 16.6071 54.4414 16.6097 54.88Z" fill="black"/>
<path d="M22.0804 6.74001C22.089 7.17862 22.0077 7.61432 21.8413 8.02025C21.675 8.42618 21.4272 8.79371 21.1132 9.10014C20.7993 9.40658 20.4259 9.64541 20.0161 9.8019C19.6062 9.95838 19.1687 10.0292 18.7304 10.01C18.293 10.0158 17.8591 9.93241 17.455 9.76494C17.0509 9.59747 16.6852 9.34942 16.3801 9.03594C16.0751 8.72245 15.837 8.35013 15.6806 7.94164C15.5242 7.53314 15.4527 7.09705 15.4704 6.65999C15.4676 6.22162 15.5528 5.78716 15.7208 5.38225C15.8888 4.97734 16.1362 4.61021 16.4485 4.30257C16.7608 3.99493 17.1316 3.75301 17.539 3.59111C17.9464 3.42922 18.3821 3.35064 18.8204 3.36C19.258 3.36247 19.6907 3.45247 20.093 3.62471C20.4952 3.79695 20.859 4.04796 21.1628 4.36293C21.4666 4.6779 21.7043 5.05046 21.8619 5.4587C22.0195 5.86694 22.0938 6.30261 22.0804 6.74001V6.74001Z" fill="black"/>
<path d="M8.21957 19.56C7.78156 19.5719 7.34554 19.4968 6.93678 19.3389C6.52803 19.1811 6.15467 18.9437 5.83839 18.6404C5.52211 18.3371 5.26919 17.9741 5.0943 17.5723C4.91941 17.1706 4.82603 16.7381 4.81958 16.3C4.81427 15.8624 4.89604 15.4282 5.06013 15.0225C5.22422 14.6168 5.46735 14.2479 5.77537 13.9371C6.0834 13.6262 6.45016 13.3798 6.85432 13.212C7.25849 13.0443 7.69199 12.9586 8.12958 12.96C8.56745 12.9453 9.00384 13.0182 9.41315 13.1745C9.82245 13.3307 10.1964 13.5671 10.5131 13.8699C10.8298 14.1726 11.0829 14.5355 11.2574 14.9374C11.432 15.3392 11.5245 15.7719 11.5296 16.21C11.5362 16.6484 11.4554 17.0837 11.2919 17.4905C11.1285 17.8973 10.8855 18.2675 10.5774 18.5794C10.2692 18.8912 9.90199 19.1386 9.49716 19.307C9.09233 19.4753 8.65802 19.5613 8.21957 19.56V19.56Z" fill="black"/>
<path d="M60.4497 46.07C60.0134 46.0806 59.5794 46.0044 59.173 45.8457C58.7665 45.687 58.3957 45.449 58.0821 45.1456C57.7684 44.8422 57.5183 44.4795 57.3462 44.0785C57.1741 43.6775 57.0835 43.2463 57.0797 42.81C57.0717 42.3742 57.1506 41.9413 57.3119 41.5364C57.4732 41.1315 57.7135 40.7628 58.0189 40.4518C58.3242 40.1408 58.6885 39.8939 59.0904 39.7253C59.4923 39.5567 59.9238 39.4699 60.3596 39.47C60.8062 39.4495 61.2523 39.5205 61.6704 39.6787C62.0885 39.8369 62.4699 40.0788 62.7912 40.3898C63.1124 40.7007 63.3666 41.074 63.5383 41.4868C63.7101 41.8995 63.7956 42.343 63.7896 42.79C63.787 43.2251 63.6984 43.6553 63.5289 44.056C63.3594 44.4567 63.1123 44.8199 62.8019 45.1248C62.4915 45.4296 62.1239 45.67 61.7202 45.8323C61.3165 45.9945 60.8847 46.0753 60.4497 46.07Z" fill="black"/>
<path d="M1.77043 43.2101C1.76594 42.7727 1.85063 42.3389 2.01932 41.9353C2.18801 41.5317 2.43715 41.1667 2.75157 40.8626C3.06599 40.5584 3.43909 40.3215 3.84808 40.1664C4.25708 40.0112 4.69341 39.941 5.13043 39.9601C5.56955 39.9532 6.00552 40.0351 6.41219 40.2009C6.81885 40.3667 7.18783 40.613 7.49696 40.9249C7.8061 41.2369 8.04903 41.608 8.21115 42.0162C8.37328 42.4243 8.45126 42.861 8.44043 43.3001C8.43529 43.7377 8.34313 44.17 8.16933 44.5717C7.99552 44.9734 7.74354 45.3365 7.42806 45.6399C7.11257 45.9433 6.73989 46.1809 6.3317 46.3389C5.9235 46.4968 5.48796 46.572 5.05043 46.5601C4.61218 46.5657 4.17733 46.4824 3.7722 46.3152C3.36708 46.1479 3.0001 45.9002 2.69347 45.587C2.38684 45.2739 2.14694 44.9018 1.98828 44.4932C1.82963 44.0846 1.75552 43.6481 1.77043 43.2101V43.2101Z" fill="black"/>
<path d="M56.9603 12.4901C57.398 12.4965 57.83 12.5899 58.2313 12.7649C58.6325 12.94 58.9949 13.193 59.2973 13.5094C59.5998 13.8259 59.8363 14.1993 59.993 14.608C60.1498 15.0167 60.2236 15.4525 60.2103 15.8901C60.2001 16.3283 60.1025 16.76 59.9231 17.1599C59.7437 17.5598 59.4863 17.9199 59.1658 18.2189C58.8453 18.518 58.4684 18.75 58.057 18.9013C57.6456 19.0526 57.2082 19.1202 56.7703 19.1001C56.3315 19.102 55.8969 19.0144 55.4931 18.8428C55.0892 18.6712 54.7245 18.419 54.4213 18.1018C54.1181 17.7846 53.8828 17.4089 53.7296 16.9977C53.5764 16.5865 53.5086 16.1484 53.5303 15.7101C53.5393 15.2719 53.6356 14.8399 53.8138 14.4395C53.992 14.0391 54.2483 13.6784 54.5679 13.3784C54.8874 13.0784 55.2636 12.8453 55.6745 12.6928C56.0853 12.5402 56.5225 12.4713 56.9603 12.4901Z" fill="black"/>
<path d="M45.9903 9.75992C45.5528 9.75904 45.1199 9.66952 44.7179 9.49679C44.3158 9.32407 43.953 9.0717 43.6511 8.75491C43.3493 8.43812 43.1147 8.0635 42.9616 7.65359C42.8085 7.24369 42.7401 6.807 42.7603 6.3699C42.7623 5.93226 42.8534 5.49962 43.0282 5.09839C43.203 4.69715 43.4577 4.33574 43.7768 4.03625C44.096 3.73677 44.4728 3.50549 44.8843 3.35654C45.2959 3.20758 45.7334 3.14409 46.1703 3.16992C46.6087 3.16816 47.0428 3.25536 47.4465 3.42627C47.8502 3.59717 48.215 3.84822 48.5188 4.16421C48.8227 4.4802 49.0592 4.85458 49.2142 5.26465C49.3691 5.67472 49.4393 6.11197 49.4203 6.54993C49.4101 6.98724 49.3127 7.41811 49.134 7.81735C48.9552 8.21659 48.6987 8.57619 48.3793 8.87509C48.0599 9.17399 47.6841 9.40617 47.2739 9.5581C46.8637 9.71004 46.4273 9.77865 45.9903 9.75992V9.75992Z" fill="black"/>
<path d="M39.7996 64.5699C39.362 64.5824 38.9265 64.5053 38.5198 64.3433C38.1131 64.1812 37.7439 63.9376 37.4348 63.6276C37.1257 63.3176 36.8833 62.9476 36.7225 62.5405C36.5617 62.1333 36.4858 61.6975 36.4996 61.2599C36.4926 60.8222 36.5747 60.3875 36.7408 59.9824C36.9069 59.5773 37.1537 59.2103 37.4661 58.9035C37.7785 58.5967 38.15 58.3566 38.558 58.1979C38.966 58.0391 39.4021 57.9649 39.8396 57.9799C40.2777 57.9673 40.7136 58.0448 41.1205 58.2075C41.5274 58.3703 41.8965 58.6149 42.2049 58.9261C42.5134 59.2374 42.7546 59.6088 42.9137 60.0171C43.0728 60.4254 43.1463 60.862 43.1297 61.2999C43.1426 61.738 43.0648 62.1739 42.9012 62.5805C42.7376 62.9871 42.4918 63.3554 42.1791 63.6625C41.8664 63.9695 41.4936 64.2086 41.0842 64.3648C40.6747 64.521 40.2374 64.5908 39.7996 64.5699V64.5699Z" fill="black"/>
<path d="M11.2897 39.7899C11.2815 39.3937 11.3535 38.9999 11.5014 38.6323C11.6493 38.2646 11.8699 37.9306 12.1502 37.6504C12.4304 37.3702 12.7644 37.1495 13.132 37.0016C13.4997 36.8538 13.8935 36.7818 14.2897 36.7899C15.0853 36.7899 15.8484 37.106 16.411 37.6686C16.9736 38.2312 17.2897 38.9943 17.2897 39.7899C17.2726 40.57 16.9591 41.3142 16.4131 41.8714C15.867 42.4287 15.1292 42.7571 14.3497 42.7899C13.9507 42.7979 13.5541 42.7262 13.1832 42.579C12.8123 42.4318 12.4744 42.2121 12.1895 41.9328C11.9045 41.6534 11.6782 41.32 11.5237 40.952C11.3691 40.5841 11.2896 40.189 11.2897 39.7899V39.7899Z" fill="black"/>
<path d="M51.7898 21.5201C51.7769 21.9141 51.6864 22.3017 51.5236 22.6608C51.3608 23.0198 51.1288 23.3433 50.8409 23.6126C50.553 23.8819 50.2148 24.0919 49.8457 24.2304C49.4766 24.369 49.0838 24.4334 48.6898 24.4201C47.9169 24.3865 47.1868 24.0557 46.652 23.4967C46.1173 22.9377 45.8191 22.1937 45.8198 21.4201C45.8127 21.0274 45.8859 20.6373 46.035 20.274C46.1842 19.9106 46.4061 19.5816 46.687 19.3072C46.968 19.0327 47.3022 18.8187 47.669 18.6782C48.0357 18.5376 48.4274 18.4736 48.8198 18.4901C49.2181 18.4786 49.6144 18.5495 49.984 18.6985C50.3535 18.8475 50.6882 19.0713 50.9671 19.3559C51.246 19.6404 51.4631 19.9795 51.6047 20.352C51.7463 20.7244 51.8093 21.1221 51.7898 21.5201V21.5201Z" fill="black"/>
<path d="M37.4696 54.76C37.073 54.7696 36.6786 54.6986 36.3103 54.5512C35.942 54.4039 35.6074 54.1832 35.3269 53.9027C35.0464 53.6222 34.8258 53.2876 34.6784 52.9193C34.5311 52.551 34.46 52.1566 34.4696 51.76C34.4614 51.3638 34.5335 50.97 34.6813 50.6024C34.8292 50.2347 35.0499 49.9007 35.3301 49.6205C35.6103 49.3403 35.9443 49.1196 36.312 48.9717C36.6796 48.8239 37.0734 48.7519 37.4696 48.76C38.255 48.7599 39.0091 49.0677 39.57 49.6174C40.1309 50.1671 40.4539 50.9148 40.4696 51.7C40.4776 52.099 40.4059 52.4956 40.2587 52.8665C40.1115 53.2374 39.8918 53.5753 39.6124 53.8602C39.3331 54.1452 38.9996 54.3716 38.6317 54.5261C38.2637 54.6806 37.8687 54.7601 37.4696 54.76V54.76Z" fill="black"/>
<path d="M28.3097 54.8201C27.9128 54.8311 27.5177 54.7611 27.1487 54.6142C26.7798 54.4673 26.4447 54.2467 26.1638 53.9659C25.883 53.6851 25.6625 53.35 25.5156 52.981C25.3687 52.6121 25.2987 52.217 25.3097 51.8201C25.3097 51.0244 25.6258 50.2614 26.1884 49.6988C26.751 49.1362 27.5141 48.8201 28.3097 48.8201C29.0864 48.8329 29.8278 49.1464 30.378 49.6947C30.9282 50.2431 31.2443 50.9834 31.2597 51.7601C31.2803 52.158 31.2189 52.556 31.0794 52.9293C30.9399 53.3025 30.7252 53.6432 30.4486 53.9301C30.172 54.217 29.8395 54.444 29.4715 54.5971C29.1036 54.7502 28.7082 54.8261 28.3097 54.8201V54.8201Z" fill="black"/>
<path d="M35.64 13.08C35.647 13.4736 35.5738 13.8645 35.4249 14.2289C35.276 14.5932 35.0544 14.9235 34.7737 15.1995C34.493 15.4755 34.1591 15.6914 33.7923 15.8342C33.4254 15.977 33.0334 16.0436 32.64 16.03C31.8668 16.0121 31.1304 15.6963 30.5844 15.1485C30.0385 14.6007 29.7252 13.8632 29.71 13.09C29.71 12.2943 30.026 11.5313 30.5886 10.9687C31.1513 10.406 31.9143 10.09 32.71 10.09C33.0998 10.0899 33.4858 10.1676 33.8453 10.3186C34.2047 10.4696 34.5304 10.6908 34.8033 10.9693C35.0762 11.2477 35.2907 11.5778 35.4344 11.9403C35.5781 12.3027 35.6479 12.6902 35.64 13.08Z" fill="black"/>
<path d="M13.0201 27.69C13.4122 27.675 13.8032 27.74 14.1693 27.881C14.5354 28.0221 14.869 28.2362 15.1497 28.5103C15.4304 28.7845 15.6523 29.1129 15.8019 29.4756C15.9516 29.8383 16.0258 30.2277 16.0201 30.62C16.0201 31.4156 15.704 32.1787 15.1414 32.7413C14.5788 33.3039 13.8157 33.62 13.0201 33.62C12.2431 33.6205 11.4963 33.3196 10.9367 32.7805C10.3772 32.2415 10.0486 31.5064 10.0201 30.73C10.0035 30.3297 10.0694 29.9303 10.2137 29.5566C10.3581 29.1829 10.5778 28.8429 10.8592 28.5578C11.1406 28.2726 11.4776 28.0484 11.8494 27.8991C12.2211 27.7498 12.6196 27.6787 13.0201 27.69Z" fill="black"/>
<path d="M48.8398 47.3201C48.8441 47.7124 48.7689 48.1016 48.6189 48.4641C48.4688 48.8267 48.247 49.1552 47.9668 49.4298C47.6866 49.7045 47.3537 49.9196 46.9882 50.0623C46.6226 50.2049 46.232 50.2722 45.8398 50.2601C45.0528 50.2602 44.2972 49.951 43.736 49.3991C43.1748 48.8473 42.853 48.097 42.8398 47.3101C42.8398 46.5144 43.1559 45.7514 43.7185 45.1888C44.2811 44.6261 45.0442 44.3101 45.8398 44.3101C46.2347 44.3101 46.6256 44.388 46.9902 44.5394C47.3548 44.6908 47.686 44.9127 47.9647 45.1923C48.2434 45.4719 48.4642 45.8038 48.6144 46.1689C48.7645 46.5341 48.8412 46.9253 48.8398 47.3201V47.3201Z" fill="black"/>
<path d="M19.6798 50.48C19.2842 50.4779 18.8931 50.3954 18.5303 50.2376C18.1676 50.0797 17.8407 49.8498 17.5695 49.5618C17.2982 49.2737 17.0884 48.9336 16.9527 48.562C16.8169 48.1904 16.7581 47.7951 16.7798 47.4C16.8183 46.6307 17.1513 45.9056 17.7098 45.375C18.2683 44.8445 19.0094 44.5491 19.7798 44.5501C20.5615 44.5709 21.3042 44.8961 21.8496 45.4565C22.395 46.0169 22.7001 46.7681 22.6998 47.5501C22.6814 48.337 22.3545 49.0852 21.7896 49.6333C21.2246 50.1814 20.4669 50.4855 19.6798 50.48V50.48Z" fill="black"/>
<path d="M52.1696 33.26C51.7745 33.2621 51.3832 33.1831 51.0199 33.028C50.6565 32.8728 50.3288 32.6448 50.057 32.358C49.7852 32.0713 49.5751 31.7318 49.4397 31.3606C49.3043 30.9895 49.2464 30.5945 49.2697 30.2C49.2956 29.4219 49.6231 28.6842 50.1829 28.1431C50.7427 27.6019 51.491 27.2996 52.2697 27.3C53.0653 27.3 53.8284 27.6161 54.391 28.1787C54.9536 28.7413 55.2697 29.5044 55.2697 30.3C55.2646 30.6992 55.1799 31.0933 55.0205 31.4593C54.8612 31.8253 54.6304 32.1558 54.3417 32.4315C54.053 32.7071 53.7121 32.9224 53.3392 33.0647C52.9662 33.207 52.5686 33.2734 52.1696 33.26V33.26Z" fill="black"/>
<path d="M41.6698 12.2301C42.0662 12.2267 42.459 12.3047 42.8241 12.4591C43.1891 12.6135 43.5187 12.8411 43.7923 13.1279C44.0659 13.4147 44.2779 13.7545 44.4151 14.1264C44.5522 14.4983 44.6117 14.8943 44.5898 15.2901C44.5639 16.0683 44.2364 16.8059 43.6766 17.3471C43.1168 17.8882 42.3685 18.1905 41.5898 18.1901C40.799 18.1747 40.0448 17.8537 39.4855 17.2944C38.9262 16.7351 38.6052 15.9809 38.5898 15.1901C38.595 14.7927 38.6791 14.4002 38.8372 14.0356C38.9953 13.6709 39.2243 13.3414 39.5108 13.066C39.7974 12.7906 40.1358 12.5749 40.5064 12.4314C40.8771 12.2879 41.2725 12.2194 41.6698 12.2301V12.2301Z" fill="black"/>
<path d="M16.3901 24.65C15.9953 24.658 15.6028 24.5879 15.2351 24.4439C14.8674 24.2998 14.5318 24.0845 14.2475 23.8104C13.9632 23.5364 13.7358 23.2089 13.5784 22.8467C13.421 22.4846 13.3366 22.0949 13.3301 21.7001C13.3455 20.9234 13.6616 20.1831 14.2118 19.6347C14.762 19.0864 15.5034 18.7728 16.2801 18.7601C16.6739 18.745 17.0666 18.8106 17.4341 18.9528C17.8015 19.0951 18.1361 19.311 18.417 19.5873C18.698 19.8636 18.9195 20.1944 19.0679 20.5595C19.2164 20.9245 19.2885 21.3161 19.2801 21.7101C19.2867 22.0938 19.2169 22.475 19.0746 22.8314C18.9324 23.1878 18.7205 23.5123 18.4515 23.786C18.1825 24.0597 17.8616 24.277 17.5077 24.4254C17.1538 24.5737 16.7738 24.6501 16.3901 24.65V24.65Z" fill="black"/>
<path d="M26.4199 15.37C26.4042 16.1639 26.0743 16.9192 25.5025 17.4703C24.9308 18.0214 24.1639 18.3234 23.3699 18.31C22.5966 18.2974 21.8581 17.9866 21.3084 17.4425C20.7587 16.8985 20.4404 16.1631 20.4199 15.39C20.4199 14.5944 20.736 13.8313 21.2986 13.2687C21.8612 12.7061 22.6243 12.39 23.4199 12.39C24.2121 12.39 24.9722 12.7033 25.5342 13.2616C26.0962 13.8199 26.4146 14.5778 26.4199 15.37Z" fill="black"/>
<path d="M51.2302 42.3901C50.8329 42.4026 50.4372 42.3335 50.0676 42.1872C49.698 42.0408 49.3622 41.8203 49.0811 41.5392C48.8 41.2581 48.5795 40.9224 48.4331 40.5527C48.2868 40.1831 48.2178 39.7874 48.2302 39.3901C48.2169 39.0034 48.281 38.618 48.4189 38.2565C48.5568 37.895 48.7656 37.5648 49.033 37.2852C49.3004 37.0057 49.6211 36.7825 49.9762 36.6287C50.3312 36.475 50.7134 36.3938 51.1002 36.3901C51.8943 36.3658 52.6656 36.6575 53.2449 37.2012C53.8241 37.7448 54.1641 38.4961 54.1902 39.2901C54.2036 39.689 54.1372 40.0866 53.9949 40.4596C53.8526 40.8326 53.6373 41.1734 53.3617 41.4621C53.086 41.7508 52.7555 41.9815 52.3895 42.1409C52.0235 42.3002 51.6294 42.385 51.2302 42.3901V42.3901Z" fill="black"/>
<path d="M22.0801 26.39C22.1035 25.6995 22.3958 25.0453 22.8945 24.5671C23.3933 24.0889 24.0591 23.8244 24.7501 23.83C25.1021 23.8417 25.4484 23.9225 25.7691 24.0681C26.0898 24.2136 26.3787 24.4209 26.6192 24.6782C26.8598 24.9354 27.0472 25.2376 27.1709 25.5674C27.2946 25.8971 27.3521 26.248 27.3401 26.6C27.3235 26.9421 27.2392 27.2774 27.0922 27.5867C26.9452 27.896 26.7382 28.173 26.4834 28.4018C26.2286 28.6306 25.9309 28.8065 25.6077 28.9195C25.2844 29.0325 24.9419 29.0803 24.6001 29.06C24.2582 29.0536 23.9211 28.9791 23.6084 28.8408C23.2957 28.7025 23.0138 28.5031 22.7791 28.2545C22.5444 28.0058 22.3617 27.7128 22.2417 27.3927C22.1217 27.0725 22.0667 26.7317 22.0801 26.39V26.39Z" fill="black"/>
<path d="M37.9904 26.32C37.9707 25.9759 38.023 25.6315 38.1439 25.3087C38.2648 24.986 38.4516 24.6919 38.6925 24.4454C38.9334 24.1989 39.223 24.0053 39.5429 23.8769C39.8628 23.7486 40.2059 23.6883 40.5504 23.7C40.8947 23.6851 41.2386 23.7404 41.5609 23.8626C41.8832 23.9848 42.1773 24.1713 42.4252 24.4108C42.6731 24.6503 42.8697 24.9378 43.003 25.2557C43.1362 25.5736 43.2034 25.9153 43.2004 26.26C43.2057 26.6049 43.1428 26.9475 43.0154 27.268C42.8879 27.5886 42.6985 27.8808 42.4578 28.1279C42.2172 28.3751 41.9301 28.5723 41.6131 28.7082C41.296 28.8441 40.9553 28.9161 40.6104 28.92C40.2665 28.9254 39.9251 28.8619 39.6061 28.7334C39.2871 28.6049 38.997 28.4139 38.7529 28.1716C38.5088 27.9294 38.3156 27.6408 38.1847 27.3228C38.0537 27.0048 37.9877 26.6639 37.9904 26.32V26.32Z" fill="black"/>
<path d="M28.4396 44.5201C28.0979 44.5391 27.756 44.4883 27.4346 44.3708C27.1131 44.2533 26.819 44.0716 26.5701 43.8368C26.3212 43.6019 26.1228 43.3188 25.9869 43.0048C25.851 42.6907 25.7804 42.3522 25.7796 42.01C25.762 41.6578 25.8162 41.3057 25.9389 40.9751C26.0617 40.6445 26.2504 40.3423 26.4936 40.0869C26.7368 39.8316 27.0294 39.6283 27.3537 39.4896C27.6779 39.3509 28.027 39.2796 28.3796 39.28C29.0714 39.2851 29.7339 39.5594 30.2268 40.0448C30.7196 40.5302 31.004 41.1885 31.0196 41.88C31.025 42.5715 30.7568 43.237 30.2735 43.7315C29.7902 44.2261 29.131 44.5095 28.4396 44.5201V44.5201Z" fill="black"/>
<path d="M34.5405 41.91C34.5256 41.5681 34.5801 41.2268 34.7004 40.9065C34.8208 40.5862 35.0046 40.2935 35.2409 40.046C35.4772 39.7985 35.7611 39.6013 36.0755 39.4662C36.3898 39.3312 36.7283 39.261 37.0705 39.26C37.4233 39.2478 37.7749 39.3073 38.104 39.4348C38.4331 39.5624 38.733 39.7555 38.9854 40.0023C39.2378 40.249 39.4375 40.5445 39.5724 40.8706C39.7074 41.1968 39.7747 41.547 39.7705 41.9C39.7626 42.5896 39.4831 43.2484 38.9926 43.7332C38.5021 44.2181 37.8402 44.49 37.1505 44.49C36.8095 44.4926 36.4714 44.4279 36.1555 44.2995C35.8396 44.1712 35.5522 43.9817 35.3097 43.742C35.0672 43.5023 34.8744 43.2171 34.7424 42.9027C34.6104 42.5883 34.5418 42.2509 34.5405 41.91V41.91Z" fill="black"/>
<path d="M32.6998 19.96C33.0413 19.9518 33.3809 20.0129 33.6982 20.1395C34.0155 20.2661 34.3038 20.4557 34.5458 20.6968C34.7878 20.9379 34.9785 21.2255 35.1064 21.5422C35.2343 21.859 35.2966 22.1984 35.2898 22.54C35.2965 22.882 35.2346 23.2219 35.1076 23.5397C34.9807 23.8574 34.7914 24.1464 34.5509 24.3898C34.3104 24.6331 34.0236 24.8257 33.7073 24.9562C33.3911 25.0868 33.0519 25.1527 32.7098 25.1499C32.3579 25.1596 32.0076 25.0974 31.6806 24.9671C31.3535 24.8369 31.0564 24.6413 30.8074 24.3923C30.5585 24.1434 30.3629 23.8463 30.2326 23.5192C30.1024 23.1921 30.0402 22.8419 30.0498 22.49C30.0522 22.1482 30.1233 21.8104 30.2589 21.4967C30.3944 21.1829 30.5917 20.8996 30.8389 20.6636C31.0861 20.4276 31.3782 20.2437 31.6979 20.1228C32.0176 20.0019 32.3583 19.9466 32.6998 19.96V19.96Z" fill="black"/>
<path d="M42.5804 32.22C43.2712 32.2065 43.9396 32.4653 44.4411 32.9406C44.9426 33.4159 45.2369 34.0695 45.2604 34.76C45.2604 35.4717 44.9784 36.1544 44.4761 36.6586C43.9738 37.1628 43.2921 37.4474 42.5804 37.45C42.2391 37.4487 41.9013 37.3797 41.5868 37.247C41.2724 37.1142 40.9873 36.9204 40.7483 36.6767C40.5092 36.433 40.3209 36.1443 40.1943 35.8273C40.0676 35.5103 40.0051 35.1713 40.0104 34.83C39.9981 34.4874 40.0558 34.1458 40.1801 33.8262C40.3044 33.5066 40.4926 33.2157 40.7332 32.9714C40.9738 32.7271 41.2617 32.5344 41.5793 32.4052C41.8969 32.276 42.2376 32.213 42.5804 32.22V32.22Z" fill="black"/>
<path d="M22.7398 37.59C22.3963 37.5913 22.056 37.5243 21.7386 37.3929C21.4213 37.2614 21.1332 37.0682 20.8912 36.8244C20.6493 36.5805 20.4582 36.291 20.3292 35.9727C20.2002 35.6543 20.1358 35.3134 20.1398 34.97C20.1504 34.2742 20.4362 33.6109 20.9348 33.1255C21.4334 32.64 22.104 32.372 22.7998 32.38C23.144 32.3756 23.4856 32.4415 23.8034 32.5736C24.1213 32.7058 24.4089 32.9014 24.6485 33.1485C24.8882 33.3957 25.0749 33.6891 25.1972 34.0109C25.3195 34.3327 25.3748 34.6761 25.3598 35.02C25.3699 35.3645 25.3086 35.7073 25.1798 36.027C25.0511 36.3467 24.8576 36.6363 24.6115 36.8776C24.3655 37.119 24.0722 37.3068 23.7501 37.4294C23.428 37.552 23.0841 37.6066 22.7398 37.59Z" fill="black"/>
</g>
<defs>
<clipPath id="clip0_83_66">
<rect width="230.26" height="64.77" fill="white"/>
</clipPath>
</defs>
</svg>
